<?xml version="1.0" encoding="utf-8"?>
<svg xmlns="http://www.w3.org/2000/svg" xmlns:xlink="http://www.w3.org/1999/xlink" width="600" height="400" viewBox="0 0 2400 1600">
<defs>
  <clipPath id="clip230">
    <rect x="0" y="0" width="2400" height="1600"/>
  </clipPath>
</defs>
<path clip-path="url(#clip230)" d="M0 1600 L2400 1600 L2400 0 L0 0  Z" fill="#ffffff" fill-rule="evenodd" fill-opacity="1"/>
<defs>
  <clipPath id="clip231">
    <rect x="174" y="47" width="2180" height="1377"/>
  </clipPath>
</defs>
<path clip-path="url(#clip231)" d="M-276.063 1492.7 L-276.063 807.601 L98.6522 465.053 L747.679 662.823 L747.679 1347.92 L372.963 1690.47 L-276.063 1492.7  Z" fill="#ffffff" fill-rule="evenodd" fill-opacity="1"/>
<polyline clip-path="url(#clip231)" style="stroke:#000000; stroke-linecap:round; stroke-linejoin:round; stroke-width:2; stroke-opacity:0.1; fill:none" points="740.34,1157.51 1137.54,813.525 1137.54,125.557 "/>
<polyline clip-path="url(#clip231)" style="stroke:#000000; stroke-linecap:round; stroke-linejoin:round; stroke-width:2; stroke-opacity:0.1; fill:none" points="1064.85,1251.19 1462.05,907.204 1462.05,219.236 "/>
<polyline clip-path="url(#clip231)" style="stroke:#000000; stroke-linecap:round; stroke-linejoin:round; stroke-width:2; stroke-opacity:0.1; fill:none" points="1389.37,1344.87 1786.56,1000.88 1786.56,312.915 "/>
<polyline clip-path="url(#clip231)" style="stroke:#000000; stroke-linecap:round; stroke-linejoin:round; stroke-width:2; stroke-opacity:0.1; fill:none" points="1508.55,1264.13 820.583,1065.53 820.583,377.565 "/>
<polyline clip-path="url(#clip231)" style="stroke:#000000; stroke-linecap:round; stroke-linejoin:round; stroke-width:2; stroke-opacity:0.1; fill:none" points="1706.32,1092.86 1018.35,894.259 1018.35,206.291 "/>
<polyline clip-path="url(#clip231)" style="stroke:#000000; stroke-linecap:round; stroke-linejoin:round; stroke-width:2; stroke-opacity:0.1; fill:none" points="720.869,1132.42 1118.07,788.434 1806.04,987.033 "/>
<polyline clip-path="url(#clip231)" style="stroke:#000000; stroke-linecap:round; stroke-linejoin:round; stroke-width:2; stroke-opacity:0.1; fill:none" points="720.869,807.904 1118.07,463.92 1806.04,662.52 "/>
<polyline clip-path="url(#clip231)" style="stroke:#000000; stroke-linecap:round; stroke-linejoin:round; stroke-width:2; stroke-opacity:0.1; fill:none" points="720.869,483.391 1118.07,139.407 1806.04,338.006 "/>
<polyline clip-path="url(#clip230)" style="stroke:#000000; stroke-linecap:round; stroke-linejoin:round; stroke-width:4; stroke-opacity:1; fill:none" points="720.869,1151.89 1408.84,1350.49 "/>
<polyline clip-path="url(#clip230)" style="stroke:#000000; stroke-linecap:round; stroke-linejoin:round; stroke-width:4; stroke-opacity:1; fill:none" points="740.34,1157.51 745.106,1153.38 "/>
<polyline clip-path="url(#clip230)" style="stroke:#000000; stroke-linecap:round; stroke-linejoin:round; stroke-width:4; stroke-opacity:1; fill:none" points="1064.85,1251.19 1069.62,1247.06 "/>
<polyline clip-path="url(#clip230)" style="stroke:#000000; stroke-linecap:round; stroke-linejoin:round; stroke-width:4; stroke-opacity:1; fill:none" points="1389.37,1344.87 1394.13,1340.74 "/>
<path clip-path="url(#clip230)" d="M720.001 1170.86 Q716.39 1170.86 714.561 1174.42 Q712.756 1177.96 712.756 1185.09 Q712.756 1192.2 714.561 1195.76 Q716.39 1199.31 720.001 1199.31 Q723.635 1199.31 725.441 1195.76 Q727.269 1192.2 727.269 1185.09 Q727.269 1177.96 725.441 1174.42 Q723.635 1170.86 720.001 1170.86 M720.001 1167.15 Q725.811 1167.15 728.867 1171.76 Q731.945 1176.34 731.945 1185.09 Q731.945 1193.82 728.867 1198.43 Q725.811 1203.01 720.001 1203.01 Q714.191 1203.01 711.112 1198.43 Q708.056 1193.82 708.056 1185.09 Q708.056 1176.34 711.112 1171.76 Q714.191 1167.15 720.001 1167.15 Z" fill="#000000" fill-rule="nonzero" fill-opacity="1" /><path clip-path="url(#clip230)" d="M1036.55 1292.08 L1044.19 1292.08 L1044.19 1265.72 L1035.88 1267.38 L1035.88 1263.12 L1044.14 1261.46 L1048.82 1261.46 L1048.82 1292.08 L1056.46 1292.08 L1056.46 1296.02 L1036.55 1296.02 L1036.55 1292.08 Z" fill="#000000" fill-rule="nonzero" fill-opacity="1" /><path clip-path="url(#clip230)" d="M1364.65 1385.76 L1380.97 1385.76 L1380.97 1389.7 L1359.03 1389.7 L1359.03 1385.76 Q1361.69 1383.01 1366.27 1378.38 Q1370.88 1373.72 1372.06 1372.38 Q1374.3 1369.86 1375.18 1368.12 Q1376.09 1366.36 1376.09 1364.67 Q1376.09 1361.92 1374.14 1360.18 Q1372.22 1358.45 1369.12 1358.45 Q1366.92 1358.45 1364.47 1359.21 Q1362.04 1359.97 1359.26 1361.52 L1359.26 1356.8 Q1362.08 1355.67 1364.54 1355.09 Q1366.99 1354.51 1369.03 1354.51 Q1374.4 1354.51 1377.59 1357.2 Q1380.79 1359.88 1380.79 1364.37 Q1380.79 1366.5 1379.98 1368.42 Q1379.19 1370.32 1377.08 1372.91 Q1376.5 1373.59 1373.4 1376.8 Q1370.3 1380 1364.65 1385.76 Z" fill="#000000" fill-rule="nonzero" fill-opacity="1" /><path clip-path="url(#clip230)" d="M703.067 1410.87 L720.223 1410.87 L720.223 1416.09 L703.067 1416.09 L703.067 1410.87 Z" fill="#000000" fill-rule="nonzero" fill-opacity="1" /><path clip-path="url(#clip230)" d="M746.863 1395.68 L752.719 1395.68 L760.04 1423.5 L767.329 1395.68 L774.236 1395.68 L781.556 1423.5 L788.845 1395.68 L794.701 1395.68 L785.376 1431.33 L778.469 1431.33 L770.798 1402.11 L763.096 1431.33 L756.189 1431.33 L746.863 1395.68 Z" fill="#000000" fill-rule="nonzero" fill-opacity="1" /><path clip-path="url(#clip230)" d="M834.073 1412.04 L834.073 1414.91 L807.146 1414.91 Q807.528 1420.96 810.775 1424.14 Q814.053 1427.29 819.878 1427.29 Q823.251 1427.29 826.403 1426.46 Q829.585 1425.63 832.705 1423.98 L832.705 1429.52 Q829.554 1430.85 826.243 1431.55 Q822.933 1432.25 819.528 1432.25 Q810.997 1432.25 806 1427.29 Q801.035 1422.32 801.035 1413.86 Q801.035 1405.11 805.746 1399.98 Q810.488 1394.82 818.509 1394.82 Q825.702 1394.82 829.872 1399.47 Q834.073 1404.09 834.073 1412.04 M828.217 1410.33 Q828.153 1405.52 825.511 1402.65 Q822.901 1399.79 818.573 1399.79 Q813.671 1399.79 810.711 1402.56 Q807.783 1405.33 807.337 1410.36 L828.217 1410.33 Z" fill="#000000" fill-rule="nonzero" fill-opacity="1" /><path clip-path="url(#clip230)" d="M866.411 1396.73 L866.411 1402.27 Q863.928 1401 861.255 1400.36 Q858.581 1399.73 855.717 1399.73 Q851.356 1399.73 849.16 1401.06 Q846.996 1402.4 846.996 1405.07 Q846.996 1407.11 848.555 1408.29 Q850.115 1409.43 854.825 1410.48 L856.831 1410.93 Q863.069 1412.27 865.679 1414.72 Q868.321 1417.14 868.321 1421.5 Q868.321 1426.46 864.374 1429.36 Q860.459 1432.25 853.584 1432.25 Q850.72 1432.25 847.6 1431.68 Q844.513 1431.14 841.075 1430.03 L841.075 1423.98 Q844.322 1425.67 847.473 1426.53 Q850.624 1427.35 853.711 1427.35 Q857.849 1427.35 860.077 1425.95 Q862.305 1424.52 862.305 1421.94 Q862.305 1419.56 860.682 1418.28 Q859.09 1417.01 853.648 1415.83 L851.611 1415.35 Q846.168 1414.21 843.749 1411.85 Q841.33 1409.47 841.33 1405.33 Q841.33 1400.3 844.895 1397.56 Q848.46 1394.82 855.016 1394.82 Q858.263 1394.82 861.127 1395.3 Q863.992 1395.78 866.411 1396.73 Z" fill="#000000" fill-rule="nonzero" fill-opacity="1" /><path clip-path="url(#clip230)" d="M883.439 1385.56 L883.439 1395.68 L895.502 1395.68 L895.502 1400.24 L883.439 1400.24 L883.439 1419.59 Q883.439 1423.95 884.617 1425.19 Q885.826 1426.43 889.487 1426.43 L895.502 1426.43 L895.502 1431.33 L889.487 1431.33 Q882.707 1431.33 880.129 1428.82 Q877.551 1426.27 877.551 1419.59 L877.551 1400.24 L873.254 1400.24 L873.254 1395.68 L877.551 1395.68 L877.551 1385.56 L883.439 1385.56 Z" fill="#000000" fill-rule="nonzero" fill-opacity="1" /><path clip-path="url(#clip230)" d="M920.965 1412.33 L920.965 1409.47 L933.474 1396.96 L937.293 1400.78 L929.877 1408.19 L960.305 1408.19 L952.889 1400.78 L956.709 1396.96 L969.217 1409.47 L969.217 1412.33 L956.709 1424.84 L952.889 1421.02 L960.305 1413.6 L929.877 1413.6 L937.293 1421.02 L933.474 1424.84 L920.965 1412.33 Z" fill="#000000" fill-rule="nonzero" fill-opacity="1" /><path clip-path="url(#clip230)" d="M1029.76 1412.04 L1029.76 1414.91 L1002.83 1414.91 Q1003.21 1420.96 1006.46 1424.14 Q1009.73 1427.29 1015.56 1427.29 Q1018.93 1427.29 1022.08 1426.46 Q1025.27 1425.63 1028.39 1423.98 L1028.39 1429.52 Q1025.24 1430.85 1021.93 1431.55 Q1018.62 1432.25 1015.21 1432.25 Q1006.68 1432.25 1001.68 1427.29 Q996.717 1422.32 996.717 1413.86 Q996.717 1405.11 1001.43 1399.98 Q1006.17 1394.82 1014.19 1394.82 Q1021.38 1394.82 1025.55 1399.47 Q1029.76 1404.09 1029.76 1412.04 M1023.9 1410.33 Q1023.83 1405.52 1021.19 1402.65 Q1018.58 1399.79 1014.25 1399.79 Q1009.35 1399.79 1006.39 1402.56 Q1003.46 1405.33 1003.02 1410.36 L1023.9 1410.33 Z" fill="#000000" fill-rule="nonzero" fill-opacity="1" /><path clip-path="url(#clip230)" d="M1055.57 1413.41 Q1048.47 1413.41 1045.73 1415.04 Q1043 1416.66 1043 1420.57 Q1043 1423.69 1045.03 1425.54 Q1047.1 1427.35 1050.63 1427.35 Q1055.5 1427.35 1058.43 1423.92 Q1061.39 1420.45 1061.39 1414.72 L1061.39 1413.41 L1055.57 1413.41 M1067.25 1410.99 L1067.25 1431.33 L1061.39 1431.33 L1061.39 1425.92 Q1059.39 1429.17 1056.4 1430.73 Q1053.4 1432.25 1049.07 1432.25 Q1043.6 1432.25 1040.35 1429.2 Q1037.14 1426.11 1037.14 1420.96 Q1037.14 1414.94 1041.15 1411.88 Q1045.19 1408.83 1053.18 1408.83 L1061.39 1408.83 L1061.39 1408.26 Q1061.39 1404.21 1058.72 1402.02 Q1056.08 1399.79 1051.27 1399.79 Q1048.22 1399.79 1045.32 1400.52 Q1042.42 1401.25 1039.75 1402.72 L1039.75 1397.31 Q1042.96 1396.07 1045.99 1395.46 Q1049.01 1394.82 1051.88 1394.82 Q1059.61 1394.82 1063.43 1398.83 Q1067.25 1402.85 1067.25 1410.99 Z" fill="#000000" fill-rule="nonzero" fill-opacity="1" /><path clip-path="url(#clip230)" d="M1102.04 1396.73 L1102.04 1402.27 Q1099.55 1401 1096.88 1400.36 Q1094.21 1399.73 1091.34 1399.73 Q1086.98 1399.73 1084.79 1401.06 Q1082.62 1402.4 1082.62 1405.07 Q1082.62 1407.11 1084.18 1408.29 Q1085.74 1409.43 1090.45 1410.48 L1092.46 1410.93 Q1098.7 1412.27 1101.31 1414.72 Q1103.95 1417.14 1103.95 1421.5 Q1103.95 1426.46 1100 1429.36 Q1096.09 1432.25 1089.21 1432.25 Q1086.35 1432.25 1083.23 1431.68 Q1080.14 1431.14 1076.7 1430.03 L1076.7 1423.98 Q1079.95 1425.67 1083.1 1426.53 Q1086.25 1427.35 1089.34 1427.35 Q1093.48 1427.35 1095.7 1425.95 Q1097.93 1424.52 1097.93 1421.94 Q1097.93 1419.56 1096.31 1418.28 Q1094.72 1417.01 1089.27 1415.83 L1087.24 1415.35 Q1081.79 1414.21 1079.38 1411.85 Q1076.96 1409.47 1076.96 1405.33 Q1076.96 1400.3 1080.52 1397.56 Q1084.09 1394.82 1090.64 1394.82 Q1093.89 1394.82 1096.75 1395.3 Q1099.62 1395.78 1102.04 1396.73 Z" fill="#000000" fill-rule="nonzero" fill-opacity="1" /><path clip-path="url(#clip230)" d="M1119.07 1385.56 L1119.07 1395.68 L1131.13 1395.68 L1131.13 1400.24 L1119.07 1400.24 L1119.07 1419.59 Q1119.07 1423.95 1120.24 1425.19 Q1121.45 1426.43 1125.11 1426.43 L1131.13 1426.43 L1131.13 1431.33 L1125.11 1431.33 Q1118.33 1431.33 1115.76 1428.82 Q1113.18 1426.27 1113.18 1419.59 L1113.18 1400.24 L1108.88 1400.24 L1108.88 1395.68 L1113.18 1395.68 L1113.18 1385.56 L1119.07 1385.56 Z" fill="#000000" fill-rule="nonzero" fill-opacity="1" /><path clip-path="url(#clip230)" d="M1162.67 1390.46 L1162.67 1408.19 L1180.4 1408.19 L1180.4 1413.6 L1162.67 1413.6 L1162.67 1431.33 L1157.32 1431.33 L1157.32 1413.6 L1139.6 1413.6 L1139.6 1408.19 L1157.32 1408.19 L1157.32 1390.46 L1162.67 1390.46 Z" fill="#000000" fill-rule="nonzero" fill-opacity="1" /><polyline clip-path="url(#clip230)" style="stroke:#000000; stroke-linecap:round; stroke-linejoin:round; stroke-width:4; stroke-opacity:1; fill:none" points="1408.84,1350.49 1806.04,1006.5 "/>
<polyline clip-path="url(#clip230)" style="stroke:#000000; stroke-linecap:round; stroke-linejoin:round; stroke-width:4; stroke-opacity:1; fill:none" points="1508.55,1264.13 1500.3,1261.75 "/>
<polyline clip-path="url(#clip230)" style="stroke:#000000; stroke-linecap:round; stroke-linejoin:round; stroke-width:4; stroke-opacity:1; fill:none" points="1706.32,1092.86 1698.07,1090.48 "/>
<path clip-path="url(#clip230)" d="M1539.93 1271.19 Q1536.32 1271.19 1534.49 1274.75 Q1532.68 1278.29 1532.68 1285.42 Q1532.68 1292.53 1534.49 1296.1 Q1536.32 1299.64 1539.93 1299.64 Q1543.56 1299.64 1545.37 1296.1 Q1547.2 1292.53 1547.2 1285.42 Q1547.2 1278.29 1545.37 1274.75 Q1543.56 1271.19 1539.93 1271.19 M1539.93 1267.48 Q1545.74 1267.48 1548.79 1272.09 Q1551.87 1276.67 1551.87 1285.42 Q1551.87 1294.15 1548.79 1298.76 Q1545.74 1303.34 1539.93 1303.34 Q1534.12 1303.34 1531.04 1298.76 Q1527.98 1294.15 1527.98 1285.42 Q1527.98 1276.67 1531.04 1272.09 Q1534.12 1267.48 1539.93 1267.48 Z" fill="#000000" fill-rule="nonzero" fill-opacity="1" /><path clip-path="url(#clip230)" d="M1726.42 1127.46 L1734.06 1127.46 L1734.06 1101.09 L1725.75 1102.76 L1725.75 1098.5 L1734.02 1096.84 L1738.69 1096.84 L1738.69 1127.46 L1746.33 1127.46 L1746.33 1131.4 L1726.42 1131.4 L1726.42 1127.46 Z" fill="#000000" fill-rule="nonzero" fill-opacity="1" /><path clip-path="url(#clip230)" d="M1627.05 1338.17 L1644.21 1338.17 L1644.21 1343.39 L1627.05 1343.39 L1627.05 1338.17 Z" fill="#000000" fill-rule="nonzero" fill-opacity="1" /><path clip-path="url(#clip230)" d="M1696.98 1324.04 L1696.98 1329.58 Q1694.49 1328.31 1691.82 1327.67 Q1689.15 1327.03 1686.28 1327.03 Q1681.92 1327.03 1679.73 1328.37 Q1677.56 1329.71 1677.56 1332.38 Q1677.56 1334.42 1679.12 1335.6 Q1680.68 1336.74 1685.39 1337.79 L1687.4 1338.24 Q1693.64 1339.57 1696.25 1342.03 Q1698.89 1344.44 1698.89 1348.8 Q1698.89 1353.77 1694.94 1356.67 Q1691.03 1359.56 1684.15 1359.56 Q1681.29 1359.56 1678.17 1358.99 Q1675.08 1358.45 1671.64 1357.33 L1671.64 1351.29 Q1674.89 1352.97 1678.04 1353.83 Q1681.19 1354.66 1684.28 1354.66 Q1688.42 1354.66 1690.64 1353.26 Q1692.87 1351.83 1692.87 1349.25 Q1692.87 1346.86 1691.25 1345.59 Q1689.66 1344.32 1684.21 1343.14 L1682.18 1342.66 Q1676.73 1341.52 1674.32 1339.16 Q1671.9 1336.77 1671.9 1332.64 Q1671.9 1327.61 1675.46 1324.87 Q1679.03 1322.13 1685.58 1322.13 Q1688.83 1322.13 1691.69 1322.61 Q1694.56 1323.09 1696.98 1324.04 Z" fill="#000000" fill-rule="nonzero" fill-opacity="1" /><path clip-path="url(#clip230)" d="M1722.03 1327.1 Q1717.32 1327.1 1714.58 1330.79 Q1711.84 1334.45 1711.84 1340.85 Q1711.84 1347.24 1714.55 1350.94 Q1717.28 1354.6 1722.03 1354.6 Q1726.71 1354.6 1729.44 1350.91 Q1732.18 1347.21 1732.18 1340.85 Q1732.18 1334.51 1729.44 1330.82 Q1726.71 1327.1 1722.03 1327.1 M1722.03 1322.13 Q1729.67 1322.13 1734.03 1327.1 Q1738.39 1332.06 1738.39 1340.85 Q1738.39 1349.6 1734.03 1354.6 Q1729.67 1359.56 1722.03 1359.56 Q1714.36 1359.56 1710 1354.6 Q1705.67 1349.6 1705.67 1340.85 Q1705.67 1332.06 1710 1327.1 Q1714.36 1322.13 1722.03 1322.13 Z" fill="#000000" fill-rule="nonzero" fill-opacity="1" /><path clip-path="url(#clip230)" d="M1747.49 1344.57 L1747.49 1322.99 L1753.35 1322.99 L1753.35 1344.35 Q1753.35 1349.41 1755.32 1351.96 Q1757.29 1354.47 1761.24 1354.47 Q1765.98 1354.47 1768.72 1351.45 Q1771.49 1348.42 1771.49 1343.2 L1771.49 1322.99 L1777.34 1322.99 L1777.34 1358.64 L1771.49 1358.64 L1771.49 1353.17 Q1769.36 1356.41 1766.52 1358 Q1763.72 1359.56 1760 1359.56 Q1753.85 1359.56 1750.67 1355.74 Q1747.49 1351.92 1747.49 1344.57 M1762.23 1322.13 L1762.23 1322.13 Z" fill="#000000" fill-rule="nonzero" fill-opacity="1" /><path clip-path="url(#clip230)" d="M1795.2 1312.87 L1795.2 1322.99 L1807.26 1322.99 L1807.26 1327.54 L1795.2 1327.54 L1795.2 1346.89 Q1795.2 1351.26 1796.38 1352.5 Q1797.59 1353.74 1801.25 1353.74 L1807.26 1353.74 L1807.26 1358.64 L1801.25 1358.64 Q1794.47 1358.64 1791.89 1356.13 Q1789.31 1353.58 1789.31 1346.89 L1789.31 1327.54 L1785.01 1327.54 L1785.01 1322.99 L1789.31 1322.99 L1789.31 1312.87 L1795.2 1312.87 Z" fill="#000000" fill-rule="nonzero" fill-opacity="1" /><path clip-path="url(#clip230)" d="M1844.6 1337.12 L1844.6 1358.64 L1838.74 1358.64 L1838.74 1337.31 Q1838.74 1332.25 1836.77 1329.74 Q1834.79 1327.22 1830.85 1327.22 Q1826.11 1327.22 1823.37 1330.25 Q1820.63 1333.27 1820.63 1338.49 L1820.63 1358.64 L1814.74 1358.64 L1814.74 1309.11 L1820.63 1309.11 L1820.63 1328.53 Q1822.73 1325.32 1825.56 1323.72 Q1828.43 1322.13 1832.15 1322.13 Q1838.3 1322.13 1841.45 1325.95 Q1844.6 1329.74 1844.6 1337.12 Z" fill="#000000" fill-rule="nonzero" fill-opacity="1" /><path clip-path="url(#clip230)" d="M1874.04 1339.64 L1874.04 1336.77 L1886.55 1324.26 L1890.37 1328.08 L1882.95 1335.5 L1913.38 1335.5 L1905.96 1328.08 L1909.78 1324.26 L1922.29 1336.77 L1922.29 1339.64 L1909.78 1352.15 L1905.96 1348.33 L1913.38 1340.91 L1882.95 1340.91 L1890.37 1348.33 L1886.55 1352.15 L1874.04 1339.64 Z" fill="#000000" fill-rule="nonzero" fill-opacity="1" /><path clip-path="url(#clip230)" d="M1981.97 1337.12 L1981.97 1358.64 L1976.11 1358.64 L1976.11 1337.31 Q1976.11 1332.25 1974.14 1329.74 Q1972.17 1327.22 1968.22 1327.22 Q1963.48 1327.22 1960.74 1330.25 Q1958 1333.27 1958 1338.49 L1958 1358.64 L1952.11 1358.64 L1952.11 1322.99 L1958 1322.99 L1958 1328.53 Q1960.1 1325.32 1962.94 1323.72 Q1965.8 1322.13 1969.52 1322.13 Q1975.67 1322.13 1978.82 1325.95 Q1981.97 1329.74 1981.97 1337.12 Z" fill="#000000" fill-rule="nonzero" fill-opacity="1" /><path clip-path="url(#clip230)" d="M2007.46 1327.1 Q2002.75 1327.1 2000.02 1330.79 Q1997.28 1334.45 1997.28 1340.85 Q1997.28 1347.24 1999.98 1350.94 Q2002.72 1354.6 2007.46 1354.6 Q2012.14 1354.6 2014.88 1350.91 Q2017.62 1347.21 2017.62 1340.85 Q2017.62 1334.51 2014.88 1330.82 Q2012.14 1327.1 2007.46 1327.1 M2007.46 1322.13 Q2015.1 1322.13 2019.46 1327.1 Q2023.82 1332.06 2023.82 1340.85 Q2023.82 1349.6 2019.46 1354.6 Q2015.1 1359.56 2007.46 1359.56 Q1999.79 1359.56 1995.43 1354.6 Q1991.1 1349.6 1991.1 1340.85 Q1991.1 1332.06 1995.43 1327.1 Q1999.79 1322.13 2007.46 1322.13 Z" fill="#000000" fill-rule="nonzero" fill-opacity="1" /><path clip-path="url(#clip230)" d="M2054.19 1328.47 Q2053.2 1327.89 2052.02 1327.64 Q2050.88 1327.35 2049.48 1327.35 Q2044.51 1327.35 2041.84 1330.6 Q2039.2 1333.81 2039.2 1339.86 L2039.2 1358.64 L2033.31 1358.64 L2033.31 1322.99 L2039.2 1322.99 L2039.2 1328.53 Q2041.04 1325.28 2044 1323.72 Q2046.96 1322.13 2051.2 1322.13 Q2051.8 1322.13 2052.53 1322.23 Q2053.27 1322.29 2054.16 1322.45 L2054.19 1328.47 Z" fill="#000000" fill-rule="nonzero" fill-opacity="1" /><path clip-path="url(#clip230)" d="M2066.12 1312.87 L2066.12 1322.99 L2078.19 1322.99 L2078.19 1327.54 L2066.12 1327.54 L2066.12 1346.89 Q2066.12 1351.26 2067.3 1352.5 Q2068.51 1353.74 2072.17 1353.74 L2078.19 1353.74 L2078.19 1358.64 L2072.17 1358.64 Q2065.39 1358.64 2062.81 1356.13 Q2060.24 1353.58 2060.24 1346.89 L2060.24 1327.54 L2055.94 1327.54 L2055.94 1322.99 L2060.24 1322.99 L2060.24 1312.87 L2066.12 1312.87 Z" fill="#000000" fill-rule="nonzero" fill-opacity="1" /><path clip-path="url(#clip230)" d="M2115.52 1337.12 L2115.52 1358.64 L2109.67 1358.64 L2109.67 1337.31 Q2109.67 1332.25 2107.69 1329.74 Q2105.72 1327.22 2101.77 1327.22 Q2097.03 1327.22 2094.29 1330.25 Q2091.56 1333.27 2091.56 1338.49 L2091.56 1358.64 L2085.67 1358.64 L2085.67 1309.11 L2091.56 1309.11 L2091.56 1328.53 Q2093.66 1325.32 2096.49 1323.72 Q2099.35 1322.13 2103.08 1322.13 Q2109.22 1322.13 2112.37 1325.95 Q2115.52 1329.74 2115.52 1337.12 Z" fill="#000000" fill-rule="nonzero" fill-opacity="1" /><path clip-path="url(#clip230)" d="M2171.76 1317.77 L2171.76 1335.5 L2189.49 1335.5 L2189.49 1340.91 L2171.76 1340.91 L2171.76 1358.64 L2166.42 1358.64 L2166.42 1340.91 L2148.69 1340.91 L2148.69 1335.5 L2166.42 1335.5 L2166.42 1317.77 L2171.76 1317.77 Z" fill="#000000" fill-rule="nonzero" fill-opacity="1" /><polyline clip-path="url(#clip230)" style="stroke:#000000; stroke-linecap:round; stroke-linejoin:round; stroke-width:4; stroke-opacity:1; fill:none" points="720.869,1151.89 720.869,463.92 "/>
<polyline clip-path="url(#clip230)" style="stroke:#000000; stroke-linecap:round; stroke-linejoin:round; stroke-width:4; stroke-opacity:1; fill:none" points="720.869,1132.42 725.636,1128.29 "/>
<polyline clip-path="url(#clip230)" style="stroke:#000000; stroke-linecap:round; stroke-linejoin:round; stroke-width:4; stroke-opacity:1; fill:none" points="720.869,807.904 725.636,803.777 "/>
<polyline clip-path="url(#clip230)" style="stroke:#000000; stroke-linecap:round; stroke-linejoin:round; stroke-width:4; stroke-opacity:1; fill:none" points="720.869,483.391 725.636,479.263 "/>
<path clip-path="url(#clip230)" d="M680.125 1118.22 Q676.514 1118.22 674.685 1121.78 Q672.88 1125.32 672.88 1132.45 Q672.88 1139.56 674.685 1143.12 Q676.514 1146.67 680.125 1146.67 Q683.759 1146.67 685.565 1143.12 Q687.393 1139.56 687.393 1132.45 Q687.393 1125.32 685.565 1121.78 Q683.759 1118.22 680.125 1118.22 M680.125 1114.51 Q685.935 1114.51 688.991 1119.12 Q692.069 1123.7 692.069 1132.45 Q692.069 1141.18 688.991 1145.79 Q685.935 1150.37 680.125 1150.37 Q674.315 1150.37 671.236 1145.79 Q668.18 1141.18 668.18 1132.45 Q668.18 1123.7 671.236 1119.12 Q674.315 1114.51 680.125 1114.51 Z" fill="#000000" fill-rule="nonzero" fill-opacity="1" /><path clip-path="url(#clip230)" d="M672.162 821.249 L679.801 821.249 L679.801 794.884 L671.491 796.55 L671.491 792.291 L679.755 790.624 L684.43 790.624 L684.43 821.249 L692.069 821.249 L692.069 825.184 L672.162 825.184 L672.162 821.249 Z" fill="#000000" fill-rule="nonzero" fill-opacity="1" /><path clip-path="url(#clip230)" d="M675.75 496.736 L692.069 496.736 L692.069 500.671 L670.125 500.671 L670.125 496.736 Q672.787 493.981 677.37 489.352 Q681.977 484.699 683.157 483.356 Q685.403 480.833 686.282 479.097 Q687.185 477.338 687.185 475.648 Q687.185 472.894 685.241 471.157 Q683.319 469.421 680.217 469.421 Q678.018 469.421 675.565 470.185 Q673.134 470.949 670.356 472.5 L670.356 467.778 Q673.18 466.644 675.634 466.065 Q678.088 465.486 680.125 465.486 Q685.495 465.486 688.69 468.171 Q691.884 470.857 691.884 475.347 Q691.884 477.477 691.074 479.398 Q690.287 481.296 688.18 483.889 Q687.602 484.56 684.5 487.778 Q681.398 490.972 675.75 496.736 Z" fill="#000000" fill-rule="nonzero" fill-opacity="1" /><path clip-path="url(#clip230)" d="M590.259 1039.97 L590.259 1022.81 L595.479 1022.81 L595.479 1039.97 L590.259 1039.97 Z" fill="#000000" fill-rule="nonzero" fill-opacity="1" /><path clip-path="url(#clip230)" d="M580.487 969.307 L561.199 969.307 L561.199 963.45 L610.724 963.45 L610.724 969.307 L605.377 969.307 Q608.56 971.153 610.12 973.986 Q611.648 976.787 611.648 980.733 Q611.648 987.194 606.491 991.269 Q601.335 995.311 592.932 995.311 Q584.53 995.311 579.373 991.269 Q574.217 987.194 574.217 980.733 Q574.217 976.787 575.777 973.986 Q577.305 971.153 580.487 969.307 M592.932 989.263 Q599.394 989.263 603.086 986.622 Q606.746 983.948 606.746 979.301 Q606.746 974.654 603.086 971.98 Q599.394 969.307 592.932 969.307 Q586.471 969.307 582.811 971.98 Q579.119 974.654 579.119 979.301 Q579.119 983.948 582.811 986.622 Q586.471 989.263 592.932 989.263 Z" fill="#000000" fill-rule="nonzero" fill-opacity="1" /><path clip-path="url(#clip230)" d="M579.182 937.574 Q579.182 942.284 582.875 945.022 Q586.535 947.759 592.932 947.759 Q599.33 947.759 603.022 945.053 Q606.682 942.316 606.682 937.574 Q606.682 932.895 602.99 930.158 Q599.298 927.42 592.932 927.42 Q586.598 927.42 582.906 930.158 Q579.182 932.895 579.182 937.574 M574.217 937.574 Q574.217 929.935 579.182 925.574 Q584.148 921.214 592.932 921.214 Q601.685 921.214 606.682 925.574 Q611.648 929.935 611.648 937.574 Q611.648 945.244 606.682 949.605 Q601.685 953.934 592.932 953.934 Q584.148 953.934 579.182 949.605 Q574.217 945.244 574.217 937.574 Z" fill="#000000" fill-rule="nonzero" fill-opacity="1" /><path clip-path="url(#clip230)" d="M575.077 914.912 L575.077 909.055 L602.895 901.735 L575.077 894.446 L575.077 887.539 L602.895 880.219 L575.077 872.93 L575.077 867.074 L610.724 876.399 L610.724 883.306 L581.506 890.977 L610.724 898.679 L610.724 905.586 L575.077 914.912 Z" fill="#000000" fill-rule="nonzero" fill-opacity="1" /><path clip-path="url(#clip230)" d="M589.208 828.561 L610.724 828.561 L610.724 834.417 L589.399 834.417 Q584.339 834.417 581.824 836.391 Q579.31 838.364 579.31 842.311 Q579.31 847.053 582.333 849.791 Q585.357 852.528 590.577 852.528 L610.724 852.528 L610.724 858.416 L575.077 858.416 L575.077 852.528 L580.615 852.528 Q577.4 850.427 575.809 847.595 Q574.217 844.73 574.217 841.006 Q574.217 834.863 578.037 831.712 Q581.824 828.561 589.208 828.561 Z" fill="#000000" fill-rule="nonzero" fill-opacity="1" /><path clip-path="url(#clip230)" d="M591.723 799.12 L588.858 799.12 L576.35 786.611 L580.169 782.792 L587.585 790.208 L587.585 759.78 L580.169 767.196 L576.35 763.376 L588.858 750.868 L591.723 750.868 L604.231 763.376 L600.412 767.196 L592.996 759.78 L592.996 790.208 L600.412 782.792 L604.231 786.611 L591.723 799.12 Z" fill="#000000" fill-rule="nonzero" fill-opacity="1" /><path clip-path="url(#clip230)" d="M596.656 721.426 L575.077 721.426 L575.077 715.57 L596.433 715.57 Q601.494 715.57 604.041 713.596 Q606.555 711.623 606.555 707.676 Q606.555 702.934 603.531 700.197 Q600.508 697.427 595.288 697.427 L575.077 697.427 L575.077 691.571 L610.724 691.571 L610.724 697.427 L605.25 697.427 Q608.496 699.56 610.088 702.393 Q611.648 705.194 611.648 708.918 Q611.648 715.06 607.828 718.243 Q604.009 721.426 596.656 721.426 M574.217 706.69 L574.217 706.69 Z" fill="#000000" fill-rule="nonzero" fill-opacity="1" /><path clip-path="url(#clip230)" d="M605.377 673.843 L624.283 673.843 L624.283 679.731 L575.077 679.731 L575.077 673.843 L580.487 673.843 Q577.305 671.996 575.777 669.196 Q574.217 666.363 574.217 662.448 Q574.217 655.955 579.373 651.913 Q584.53 647.839 592.932 647.839 Q601.335 647.839 606.491 651.913 Q611.648 655.955 611.648 662.448 Q611.648 666.363 610.12 669.196 Q608.56 671.996 605.377 673.843 M592.932 653.918 Q586.471 653.918 582.811 656.591 Q579.119 659.233 579.119 663.88 Q579.119 668.527 582.811 671.201 Q586.471 673.843 592.932 673.843 Q599.394 673.843 603.086 671.201 Q606.746 668.527 606.746 663.88 Q606.746 659.233 603.086 656.591 Q599.394 653.918 592.932 653.918 Z" fill="#000000" fill-rule="nonzero" fill-opacity="1" /><path clip-path="url(#clip230)" d="M569.857 593.571 L587.585 593.571 L587.585 575.842 L592.996 575.842 L592.996 593.571 L610.724 593.571 L610.724 598.918 L592.996 598.918 L592.996 616.647 L587.585 616.647 L587.585 598.918 L569.857 598.918 L569.857 593.571 Z" fill="#000000" fill-rule="nonzero" fill-opacity="1" /><polyline clip-path="url(#clip231)" style="stroke:#808080; stroke-linecap:round; stroke-linejoin:round; stroke-width:4; stroke-opacity:1; fill:none" points="1037.82,880.409 840.054,1051.68 "/>
<polyline clip-path="url(#clip231)" style="stroke:#808080; stroke-linecap:round; stroke-linejoin:round; stroke-width:4; stroke-opacity:1; fill:none" points="1164.57,820.849 1164.57,1145.36 "/>
<polyline clip-path="url(#clip231)" style="stroke:#808080; stroke-linecap:round; stroke-linejoin:round; stroke-width:4; stroke-opacity:1; fill:none" points="1362.34,974.088 1164.57,1145.36 "/>
<polyline clip-path="url(#clip231)" style="stroke:#808080; stroke-linecap:round; stroke-linejoin:round; stroke-width:4; stroke-opacity:1; fill:none" points="840.054,727.17 1164.57,1145.36 "/>
<polyline clip-path="url(#clip231)" style="stroke:#808080; stroke-linecap:round; stroke-linejoin:round; stroke-width:4; stroke-opacity:1; fill:none" points="840.054,1051.68 1037.82,880.409 "/>
<polyline clip-path="url(#clip231)" style="stroke:#808080; stroke-linecap:round; stroke-linejoin:round; stroke-width:4; stroke-opacity:1; fill:none" points="1037.82,555.896 1037.82,880.409 "/>
<polyline clip-path="url(#clip231)" style="stroke:#808080; stroke-linecap:round; stroke-linejoin:round; stroke-width:4; stroke-opacity:1; fill:none" points="1362.34,974.088 1037.82,880.409 "/>
<polyline clip-path="url(#clip231)" style="stroke:#808080; stroke-linecap:round; stroke-linejoin:round; stroke-width:4; stroke-opacity:1; fill:none" points="1164.57,820.849 1362.34,649.575 "/>
<polyline clip-path="url(#clip231)" style="stroke:#808080; stroke-linecap:round; stroke-linejoin:round; stroke-width:4; stroke-opacity:1; fill:none" points="1362.34,974.088 1362.34,649.575 "/>
<polyline clip-path="url(#clip231)" style="stroke:#808080; stroke-linecap:round; stroke-linejoin:round; stroke-width:4; stroke-opacity:1; fill:none" points="1686.85,743.254 1362.34,649.575 "/>
<polyline clip-path="url(#clip231)" style="stroke:#808080; stroke-linecap:round; stroke-linejoin:round; stroke-width:4; stroke-opacity:1; fill:none" points="1164.57,1145.36 1164.57,820.849 "/>
<polyline clip-path="url(#clip231)" style="stroke:#808080; stroke-linecap:round; stroke-linejoin:round; stroke-width:4; stroke-opacity:1; fill:none" points="1362.34,649.575 1164.57,820.849 "/>
<polyline clip-path="url(#clip231)" style="stroke:#808080; stroke-linecap:round; stroke-linejoin:round; stroke-width:4; stroke-opacity:1; fill:none" points="840.054,402.657 1164.57,820.849 "/>
<polyline clip-path="url(#clip231)" style="stroke:#808080; stroke-linecap:round; stroke-linejoin:round; stroke-width:4; stroke-opacity:1; fill:none" points="1489.08,914.528 1164.57,820.849 "/>
<polyline clip-path="url(#clip231)" style="stroke:#808080; stroke-linecap:round; stroke-linejoin:round; stroke-width:4; stroke-opacity:1; fill:none" points="840.054,727.17 1164.57,820.849 "/>
<polyline clip-path="url(#clip231)" style="stroke:#808080; stroke-linecap:round; stroke-linejoin:round; stroke-width:4; stroke-opacity:1; fill:none" points="1037.82,880.409 1037.82,555.896 "/>
<polyline clip-path="url(#clip231)" style="stroke:#808080; stroke-linecap:round; stroke-linejoin:round; stroke-width:4; stroke-opacity:1; fill:none" points="840.054,727.17 1037.82,555.896 "/>
<polyline clip-path="url(#clip231)" style="stroke:#808080; stroke-linecap:round; stroke-linejoin:round; stroke-width:4; stroke-opacity:1; fill:none" points="1164.57,1145.36 1362.34,974.088 "/>
<polyline clip-path="url(#clip231)" style="stroke:#808080; stroke-linecap:round; stroke-linejoin:round; stroke-width:4; stroke-opacity:1; fill:none" points="1037.82,880.409 1362.34,974.088 "/>
<polyline clip-path="url(#clip231)" style="stroke:#808080; stroke-linecap:round; stroke-linejoin:round; stroke-width:4; stroke-opacity:1; fill:none" points="1362.34,649.575 1362.34,974.088 "/>
<polyline clip-path="url(#clip231)" style="stroke:#808080; stroke-linecap:round; stroke-linejoin:round; stroke-width:4; stroke-opacity:1; fill:none" points="1686.85,1067.77 1362.34,974.088 "/>
<polyline clip-path="url(#clip231)" style="stroke:#808080; stroke-linecap:round; stroke-linejoin:round; stroke-width:4; stroke-opacity:1; fill:none" points="1362.34,649.575 1686.85,743.254 "/>
<polyline clip-path="url(#clip231)" style="stroke:#808080; stroke-linecap:round; stroke-linejoin:round; stroke-width:4; stroke-opacity:1; fill:none" points="1489.08,914.528 1686.85,743.254 "/>
<polyline clip-path="url(#clip231)" style="stroke:#808080; stroke-linecap:round; stroke-linejoin:round; stroke-width:4; stroke-opacity:1; fill:none" points="1164.57,820.849 840.054,402.657 "/>
<polyline clip-path="url(#clip231)" style="stroke:#808080; stroke-linecap:round; stroke-linejoin:round; stroke-width:4; stroke-opacity:1; fill:none" points="840.054,727.17 840.054,402.657 "/>
<polyline clip-path="url(#clip231)" style="stroke:#808080; stroke-linecap:round; stroke-linejoin:round; stroke-width:4; stroke-opacity:1; fill:none" points="1164.57,820.849 1489.08,914.528 "/>
<polyline clip-path="url(#clip231)" style="stroke:#808080; stroke-linecap:round; stroke-linejoin:round; stroke-width:4; stroke-opacity:1; fill:none" points="1686.85,743.254 1489.08,914.528 "/>
<polyline clip-path="url(#clip231)" style="stroke:#808080; stroke-linecap:round; stroke-linejoin:round; stroke-width:4; stroke-opacity:1; fill:none" points="1164.57,1145.36 840.054,727.17 "/>
<polyline clip-path="url(#clip231)" style="stroke:#808080; stroke-linecap:round; stroke-linejoin:round; stroke-width:4; stroke-opacity:1; fill:none" points="1164.57,820.849 840.054,727.17 "/>
<polyline clip-path="url(#clip231)" style="stroke:#808080; stroke-linecap:round; stroke-linejoin:round; stroke-width:4; stroke-opacity:1; fill:none" points="1037.82,555.896 840.054,727.17 "/>
<polyline clip-path="url(#clip231)" style="stroke:#808080; stroke-linecap:round; stroke-linejoin:round; stroke-width:4; stroke-opacity:1; fill:none" points="840.054,402.657 840.054,727.17 "/>
<polyline clip-path="url(#clip231)" style="stroke:#808080; stroke-linecap:round; stroke-linejoin:round; stroke-width:4; stroke-opacity:1; fill:none" points="1362.34,974.088 1686.85,1067.77 "/>
<circle clip-path="url(#clip231)" cx="840.054" cy="1051.68" r="14.4" fill="#009af9" fill-rule="evenodd" fill-opacity="1" stroke="#000000" stroke-opacity="1" stroke-width="3.2"/>
<line clip-path="url(#clip231)" x1="1164.57" y1="1145.36" x2="1148.57" y2="1129.36" style="stroke:#e26f46; stroke-width:4; stroke-opacity:1"/>
<line clip-path="url(#clip231)" x1="1164.57" y1="1145.36" x2="1148.57" y2="1161.36" style="stroke:#e26f46; stroke-width:4; stroke-opacity:1"/>
<line clip-path="url(#clip231)" x1="1164.57" y1="1145.36" x2="1180.57" y2="1161.36" style="stroke:#e26f46; stroke-width:4; stroke-opacity:1"/>
<line clip-path="url(#clip231)" x1="1164.57" y1="1145.36" x2="1180.57" y2="1129.36" style="stroke:#e26f46; stroke-width:4; stroke-opacity:1"/>
<path clip-path="url(#clip231)" d="M1037.82 864.409 L1021.82 896.409 L1053.82 896.409 L1037.82 864.409 Z" fill="#3da44d" fill-rule="evenodd" fill-opacity="1" stroke="#000000" stroke-opacity="1" stroke-width="3.2"/>
<path clip-path="url(#clip231)" d="M1346.34 633.575 L1346.34 665.575 L1378.34 665.575 L1378.34 633.575 L1346.34 633.575 Z" fill="#c271d2" fill-rule="evenodd" fill-opacity="1" stroke="#000000" stroke-opacity="1" stroke-width="3.2"/>
<path clip-path="url(#clip231)" d="M1164.57 804.849 L1149.35 815.905 L1155.16 833.793 L1173.98 833.793 L1179.78 815.905 Z" fill="#ac8d18" fill-rule="evenodd" fill-opacity="1" stroke="#000000" stroke-opacity="1" stroke-width="3.2"/>
<path clip-path="url(#clip231)" d="M1037.82 571.896 L1023.97 563.896 L1023.97 547.896 L1037.82 539.896 L1051.68 547.896 L1051.68 563.896 Z" fill="#00a9ad" fill-rule="evenodd" fill-opacity="1" stroke="#000000" stroke-opacity="1" stroke-width="3.2"/>
<path clip-path="url(#clip231)" d="M1362.34 958.088 L1349.83 964.12 L1346.74 977.656 L1355.39 988.504 L1369.28 988.504 L1377.94 977.656 L1374.85 964.12 Z" fill="#ed5d92" fill-rule="evenodd" fill-opacity="1" stroke="#000000" stroke-opacity="1" stroke-width="3.2"/>
<path clip-path="url(#clip231)" d="M1686.85 759.254 L1675.54 754.566 L1670.85 743.254 L1675.54 731.942 L1686.85 727.254 L1698.16 731.942 L1702.85 743.254 L1698.16 754.566 Z" fill="#c68125" fill-rule="evenodd" fill-opacity="1" stroke="#000000" stroke-opacity="1" stroke-width="3.2"/>
<path clip-path="url(#clip231)" d="M856.054 386.657 L824.054 386.657 L840.054 418.657 L856.054 386.657 Z" fill="#00a98d" fill-rule="evenodd" fill-opacity="1" stroke="#000000" stroke-opacity="1" stroke-width="3.2"/>
<path clip-path="url(#clip231)" d="M1489.08 898.528 L1485.32 909.344 L1473.86 909.584 L1483 916.512 L1479.67 927.472 L1489.08 920.928 L1498.49 927.472 L1495.16 916.512 L1504.3 909.584 L1492.84 909.344 L1489.08 898.528 Z" fill="#8e971d" fill-rule="evenodd" fill-opacity="1" stroke="#000000" stroke-opacity="1" stroke-width="3.2"/>
<line clip-path="url(#clip231)" x1="840.054" y1="727.17" x2="840.054" y2="711.17" style="stroke:#00a8cb; stroke-width:4; stroke-opacity:1"/>
<line clip-path="url(#clip231)" x1="840.054" y1="727.17" x2="824.054" y2="727.17" style="stroke:#00a8cb; stroke-width:4; stroke-opacity:1"/>
<line clip-path="url(#clip231)" x1="840.054" y1="727.17" x2="840.054" y2="743.17" style="stroke:#00a8cb; stroke-width:4; stroke-opacity:1"/>
<line clip-path="url(#clip231)" x1="840.054" y1="727.17" x2="856.054" y2="727.17" style="stroke:#00a8cb; stroke-width:4; stroke-opacity:1"/>
<path clip-path="url(#clip231)" d="M1686.85 1083.77 L1683.65 1073.3 L1672.99 1075.77 L1680.45 1067.77 L1672.99 1059.77 L1683.65 1062.23 L1686.85 1051.77 L1690.05 1062.23 L1700.71 1059.77 L1693.25 1067.77 L1700.71 1075.77 L1690.05 1073.3 L1686.85 1083.77 Z" fill="#9b7fe8" fill-rule="evenodd" fill-opacity="1" stroke="#000000" stroke-opacity="1" stroke-width="3.2"/>
<path clip-path="url(#clip230)" d="M1908.99 1091.03 L2280.14 1091.03 L2280.14 93.1086 L1908.99 93.1086  Z" fill="#ffffff" fill-rule="evenodd" fill-opacity="1"/>
<polyline clip-path="url(#clip230)" style="stroke:#000000; stroke-linecap:round; stroke-linejoin:round; stroke-width:4; stroke-opacity:1; fill:none" points="1908.99,1091.03 2280.14,1091.03 2280.14,93.1086 1908.99,93.1086 1908.99,1091.03 "/>
<path clip-path="url(#clip230)" d="M2059.88 166.633 L2059.88 188.149 L2054.02 188.149 L2054.02 166.824 Q2054.02 161.763 2052.05 159.248 Q2050.07 156.734 2046.13 156.734 Q2041.39 156.734 2038.65 159.758 Q2035.91 162.781 2035.91 168.001 L2035.91 188.149 L2030.02 188.149 L2030.02 152.501 L2035.91 152.501 L2035.91 158.039 Q2038.01 154.824 2040.84 153.233 Q2043.71 151.641 2047.43 151.641 Q2053.58 151.641 2056.73 155.461 Q2059.88 159.248 2059.88 166.633 Z" fill="#000000" fill-rule="nonzero" fill-opacity="1" /><path clip-path="url(#clip230)" d="M2085.37 156.607 Q2080.66 156.607 2077.92 160.299 Q2075.19 163.959 2075.19 170.356 Q2075.19 176.754 2077.89 180.446 Q2080.63 184.106 2085.37 184.106 Q2090.05 184.106 2092.79 180.414 Q2095.53 176.722 2095.53 170.356 Q2095.53 164.023 2092.79 160.33 Q2090.05 156.607 2085.37 156.607 M2085.37 151.641 Q2093.01 151.641 2097.37 156.607 Q2101.73 161.572 2101.73 170.356 Q2101.73 179.109 2097.37 184.106 Q2093.01 189.072 2085.37 189.072 Q2077.7 189.072 2073.34 184.106 Q2069.01 179.109 2069.01 170.356 Q2069.01 161.572 2073.34 156.607 Q2077.7 151.641 2085.37 151.641 Z" fill="#000000" fill-rule="nonzero" fill-opacity="1" /><path clip-path="url(#clip230)" d="M2134.9 157.912 L2134.9 138.623 L2140.75 138.623 L2140.75 188.149 L2134.9 188.149 L2134.9 182.801 Q2133.05 185.984 2130.22 187.544 Q2127.42 189.072 2123.47 189.072 Q2117.01 189.072 2112.94 183.915 Q2108.89 178.759 2108.89 170.356 Q2108.89 161.954 2112.94 156.798 Q2117.01 151.641 2123.47 151.641 Q2127.42 151.641 2130.22 153.201 Q2133.05 154.729 2134.9 157.912 M2114.94 170.356 Q2114.94 176.818 2117.58 180.51 Q2120.26 184.17 2124.9 184.17 Q2129.55 184.17 2132.22 180.51 Q2134.9 176.818 2134.9 170.356 Q2134.9 163.895 2132.22 160.235 Q2129.55 156.543 2124.9 156.543 Q2120.26 156.543 2117.58 160.235 Q2114.94 163.895 2114.94 170.356 Z" fill="#000000" fill-rule="nonzero" fill-opacity="1" /><path clip-path="url(#clip230)" d="M2183.31 168.861 L2183.31 171.725 L2156.38 171.725 Q2156.76 177.773 2160.01 180.955 Q2163.29 184.106 2169.11 184.106 Q2172.49 184.106 2175.64 183.279 Q2178.82 182.451 2181.94 180.796 L2181.94 186.334 Q2178.79 187.671 2175.48 188.371 Q2172.17 189.072 2168.76 189.072 Q2160.23 189.072 2155.24 184.106 Q2150.27 179.141 2150.27 170.675 Q2150.27 161.922 2154.98 156.798 Q2159.72 151.641 2167.74 151.641 Q2174.94 151.641 2179.11 156.288 Q2183.31 160.903 2183.31 168.861 M2177.45 167.142 Q2177.39 162.336 2174.75 159.471 Q2172.14 156.607 2167.81 156.607 Q2162.91 156.607 2159.95 159.376 Q2157.02 162.145 2156.57 167.174 L2177.45 167.142 Z" fill="#000000" fill-rule="nonzero" fill-opacity="1" /><circle clip-path="url(#clip230)" cx="2005.82" cy="235.669" r="20.48" fill="#009af9" fill-rule="evenodd" fill-opacity="1" stroke="#000000" stroke-opacity="1" stroke-width="4.55111"/>
<path clip-path="url(#clip230)" d="M2103.31 249.013 L2110.95 249.013 L2110.95 222.648 L2102.64 224.315 L2102.64 220.055 L2110.91 218.389 L2115.58 218.389 L2115.58 249.013 L2123.22 249.013 L2123.22 252.949 L2103.31 252.949 L2103.31 249.013 Z" fill="#000000" fill-rule="nonzero" fill-opacity="1" /><line clip-path="url(#clip230)" x1="2005.82" y1="306.949" x2="1983.06" y2="284.193" style="stroke:#e26f46; stroke-width:4.55111; stroke-opacity:1"/>
<line clip-path="url(#clip230)" x1="2005.82" y1="306.949" x2="1983.06" y2="329.704" style="stroke:#e26f46; stroke-width:4.55111; stroke-opacity:1"/>
<line clip-path="url(#clip230)" x1="2005.82" y1="306.949" x2="2028.57" y2="329.704" style="stroke:#e26f46; stroke-width:4.55111; stroke-opacity:1"/>
<line clip-path="url(#clip230)" x1="2005.82" y1="306.949" x2="2028.57" y2="284.193" style="stroke:#e26f46; stroke-width:4.55111; stroke-opacity:1"/>
<path clip-path="url(#clip230)" d="M2108.27 320.293 L2124.59 320.293 L2124.59 324.229 L2102.64 324.229 L2102.64 320.293 Q2105.3 317.539 2109.89 312.909 Q2114.49 308.256 2115.68 306.914 Q2117.92 304.391 2118.8 302.655 Q2119.7 300.895 2119.7 299.206 Q2119.7 296.451 2117.76 294.715 Q2115.84 292.979 2112.74 292.979 Q2110.54 292.979 2108.08 293.743 Q2105.65 294.507 2102.87 296.057 L2102.87 291.335 Q2105.7 290.201 2108.15 289.622 Q2110.61 289.044 2112.64 289.044 Q2118.01 289.044 2121.21 291.729 Q2124.4 294.414 2124.4 298.905 Q2124.4 301.034 2123.59 302.956 Q2122.8 304.854 2120.7 307.446 Q2120.12 308.118 2117.02 311.335 Q2113.92 314.53 2108.27 320.293 Z" fill="#000000" fill-rule="nonzero" fill-opacity="1" /><path clip-path="url(#clip230)" d="M2005.82 355.473 L1983.06 400.984 L2028.57 400.984 L2005.82 355.473 Z" fill="#3da44d" fill-rule="evenodd" fill-opacity="1" stroke="#000000" stroke-opacity="1" stroke-width="4.55111"/>
<path clip-path="url(#clip230)" d="M2118.27 376.874 Q2121.62 377.592 2123.5 379.861 Q2125.4 382.129 2125.4 385.462 Q2125.4 390.578 2121.88 393.379 Q2118.36 396.18 2111.88 396.18 Q2109.7 396.18 2107.39 395.74 Q2105.1 395.323 2102.64 394.467 L2102.64 389.953 Q2104.59 391.087 2106.9 391.666 Q2109.22 392.245 2111.74 392.245 Q2116.14 392.245 2118.43 390.509 Q2120.74 388.773 2120.74 385.462 Q2120.74 382.407 2118.59 380.694 Q2116.46 378.958 2112.64 378.958 L2108.61 378.958 L2108.61 375.115 L2112.83 375.115 Q2116.28 375.115 2118.11 373.749 Q2119.93 372.361 2119.93 369.768 Q2119.93 367.106 2118.04 365.694 Q2116.16 364.259 2112.64 364.259 Q2110.72 364.259 2108.52 364.675 Q2106.32 365.092 2103.68 365.972 L2103.68 361.805 Q2106.35 361.064 2108.66 360.694 Q2111 360.324 2113.06 360.324 Q2118.38 360.324 2121.49 362.754 Q2124.59 365.162 2124.59 369.282 Q2124.59 372.152 2122.94 374.143 Q2121.3 376.111 2118.27 376.874 Z" fill="#000000" fill-rule="nonzero" fill-opacity="1" /><path clip-path="url(#clip230)" d="M1983.06 426.753 L1983.06 472.264 L2028.57 472.264 L2028.57 426.753 L1983.06 426.753 Z" fill="#c271d2" fill-rule="evenodd" fill-opacity="1" stroke="#000000" stroke-opacity="1" stroke-width="4.55111"/>
<path clip-path="url(#clip230)" d="M2118.24 436.303 L2106.44 454.752 L2118.24 454.752 L2118.24 436.303 M2117.02 432.229 L2122.9 432.229 L2122.9 454.752 L2127.83 454.752 L2127.83 458.641 L2122.9 458.641 L2122.9 466.789 L2118.24 466.789 L2118.24 458.641 L2102.64 458.641 L2102.64 454.127 L2117.02 432.229 Z" fill="#000000" fill-rule="nonzero" fill-opacity="1" /><path clip-path="url(#clip230)" d="M2005.82 498.033 L1984.18 513.757 L1992.44 539.198 L2019.2 539.198 L2027.46 513.757 Z" fill="#ac8d18" fill-rule="evenodd" fill-opacity="1" stroke="#000000" stroke-opacity="1" stroke-width="4.55111"/>
<path clip-path="url(#clip230)" d="M2104.1 503.509 L2122.46 503.509 L2122.46 507.444 L2108.38 507.444 L2108.38 515.916 Q2109.4 515.569 2110.42 515.407 Q2111.44 515.222 2112.46 515.222 Q2118.24 515.222 2121.62 518.393 Q2125 521.564 2125 526.981 Q2125 532.559 2121.53 535.661 Q2118.06 538.74 2111.74 538.74 Q2109.56 538.74 2107.3 538.37 Q2105.05 537.999 2102.64 537.258 L2102.64 532.559 Q2104.73 533.694 2106.95 534.249 Q2109.17 534.805 2111.65 534.805 Q2115.65 534.805 2117.99 532.698 Q2120.33 530.592 2120.33 526.981 Q2120.33 523.37 2117.99 521.263 Q2115.65 519.157 2111.65 519.157 Q2109.77 519.157 2107.9 519.573 Q2106.05 519.99 2104.1 520.87 L2104.1 503.509 Z" fill="#000000" fill-rule="nonzero" fill-opacity="1" /><path clip-path="url(#clip230)" d="M2005.82 614.824 L1986.11 603.446 L1986.11 580.691 L2005.82 569.313 L2025.52 580.691 L2025.52 603.446 Z" fill="#00a9ad" fill-rule="evenodd" fill-opacity="1" stroke="#000000" stroke-opacity="1" stroke-width="4.55111"/>
<path clip-path="url(#clip230)" d="M2114.98 590.205 Q2111.83 590.205 2109.98 592.358 Q2108.15 594.511 2108.15 598.261 Q2108.15 601.988 2109.98 604.163 Q2111.83 606.316 2114.98 606.316 Q2118.13 606.316 2119.96 604.163 Q2121.81 601.988 2121.81 598.261 Q2121.81 594.511 2119.96 592.358 Q2118.13 590.205 2114.98 590.205 M2124.26 575.553 L2124.26 579.812 Q2122.5 578.978 2120.7 578.539 Q2118.92 578.099 2117.16 578.099 Q2112.53 578.099 2110.07 581.224 Q2107.64 584.349 2107.3 590.668 Q2108.66 588.654 2110.72 587.589 Q2112.78 586.502 2115.26 586.502 Q2120.47 586.502 2123.48 589.673 Q2126.51 592.821 2126.51 598.261 Q2126.51 603.585 2123.36 606.802 Q2120.21 610.02 2114.98 610.02 Q2108.99 610.02 2105.81 605.437 Q2102.64 600.83 2102.64 592.103 Q2102.64 583.909 2106.53 579.048 Q2110.42 574.164 2116.97 574.164 Q2118.73 574.164 2120.51 574.511 Q2122.32 574.858 2124.26 575.553 Z" fill="#000000" fill-rule="nonzero" fill-opacity="1" /><path clip-path="url(#clip230)" d="M2005.82 640.593 L1988.02 649.172 L1983.63 668.423 L1995.94 683.851 L2015.69 683.851 L2028 668.423 L2023.61 649.172 Z" fill="#ed5d92" fill-rule="evenodd" fill-opacity="1" stroke="#000000" stroke-opacity="1" stroke-width="4.55111"/>
<path clip-path="url(#clip230)" d="M2102.64 646.069 L2124.86 646.069 L2124.86 648.059 L2112.32 680.629 L2107.43 680.629 L2119.24 650.004 L2102.64 650.004 L2102.64 646.069 Z" fill="#000000" fill-rule="nonzero" fill-opacity="1" /><path clip-path="url(#clip230)" d="M2005.82 757.384 L1989.73 750.717 L1983.06 734.629 L1989.73 718.54 L2005.82 711.873 L2021.9 718.54 L2028.57 734.629 L2021.9 750.717 Z" fill="#c68125" fill-rule="evenodd" fill-opacity="1" stroke="#000000" stroke-opacity="1" stroke-width="4.55111"/>
<path clip-path="url(#clip230)" d="M2114.49 735.497 Q2111.16 735.497 2109.24 737.279 Q2107.34 739.061 2107.34 742.186 Q2107.34 745.311 2109.24 747.094 Q2111.16 748.876 2114.49 748.876 Q2117.83 748.876 2119.75 747.094 Q2121.67 745.288 2121.67 742.186 Q2121.67 739.061 2119.75 737.279 Q2117.85 735.497 2114.49 735.497 M2109.82 733.506 Q2106.81 732.765 2105.12 730.705 Q2103.45 728.645 2103.45 725.682 Q2103.45 721.538 2106.39 719.131 Q2109.36 716.724 2114.49 716.724 Q2119.66 716.724 2122.6 719.131 Q2125.54 721.538 2125.54 725.682 Q2125.54 728.645 2123.85 730.705 Q2122.18 732.765 2119.19 733.506 Q2122.57 734.293 2124.45 736.585 Q2126.35 738.876 2126.35 742.186 Q2126.35 747.21 2123.27 749.895 Q2120.21 752.58 2114.49 752.58 Q2108.78 752.58 2105.7 749.895 Q2102.64 747.21 2102.64 742.186 Q2102.64 738.876 2104.54 736.585 Q2106.44 734.293 2109.82 733.506 M2108.11 726.122 Q2108.11 728.807 2109.77 730.312 Q2111.46 731.816 2114.49 731.816 Q2117.5 731.816 2119.19 730.312 Q2120.91 728.807 2120.91 726.122 Q2120.91 723.437 2119.19 721.932 Q2117.5 720.427 2114.49 720.427 Q2111.46 720.427 2109.77 721.932 Q2108.11 723.437 2108.11 726.122 Z" fill="#000000" fill-rule="nonzero" fill-opacity="1" /><path clip-path="url(#clip230)" d="M2028.57 783.153 L1983.06 783.153 L2005.82 828.664 L2028.57 783.153 Z" fill="#00a98d" fill-rule="evenodd" fill-opacity="1" stroke="#000000" stroke-opacity="1" stroke-width="4.55111"/>
<path clip-path="url(#clip230)" d="M2104.86 822.471 L2104.86 818.212 Q2106.62 819.045 2108.43 819.485 Q2110.24 819.925 2111.97 819.925 Q2116.6 819.925 2119.03 816.823 Q2121.49 813.698 2121.83 807.355 Q2120.49 809.346 2118.43 810.411 Q2116.37 811.476 2113.87 811.476 Q2108.68 811.476 2105.65 808.351 Q2102.64 805.203 2102.64 799.763 Q2102.64 794.439 2105.79 791.221 Q2108.94 788.004 2114.17 788.004 Q2120.17 788.004 2123.31 792.61 Q2126.49 797.193 2126.49 805.943 Q2126.49 814.115 2122.6 818.999 Q2118.73 823.86 2112.18 823.86 Q2110.42 823.86 2108.61 823.513 Q2106.81 823.165 2104.86 822.471 M2114.17 807.818 Q2117.32 807.818 2119.15 805.666 Q2121 803.513 2121 799.763 Q2121 796.036 2119.15 793.883 Q2117.32 791.707 2114.17 791.707 Q2111.02 791.707 2109.17 793.883 Q2107.34 796.036 2107.34 799.763 Q2107.34 803.513 2109.17 805.666 Q2111.02 807.818 2114.17 807.818 Z" fill="#000000" fill-rule="nonzero" fill-opacity="1" /><path clip-path="url(#clip230)" d="M2005.82 854.433 L2000.47 869.816 L1984.18 870.157 L1997.17 880.01 L1992.44 895.598 L2005.82 886.291 L2019.2 895.598 L2014.46 880.01 L2027.46 870.157 L2011.16 869.816 L2005.82 854.433 Z" fill="#8e971d" fill-rule="evenodd" fill-opacity="1" stroke="#000000" stroke-opacity="1" stroke-width="4.55111"/>
<path clip-path="url(#clip230)" d="M2103.31 890.533 L2110.95 890.533 L2110.95 864.168 L2102.64 865.835 L2102.64 861.575 L2110.91 859.909 L2115.58 859.909 L2115.58 890.533 L2123.22 890.533 L2123.22 894.469 L2103.31 894.469 L2103.31 890.533 Z" fill="#000000" fill-rule="nonzero" fill-opacity="1" /><path clip-path="url(#clip230)" d="M2142.67 862.987 Q2139.05 862.987 2137.23 866.552 Q2135.42 870.094 2135.42 877.223 Q2135.42 884.33 2137.23 887.895 Q2139.05 891.436 2142.67 891.436 Q2146.3 891.436 2148.11 887.895 Q2149.93 884.33 2149.93 877.223 Q2149.93 870.094 2148.11 866.552 Q2146.3 862.987 2142.67 862.987 M2142.67 859.284 Q2148.48 859.284 2151.53 863.89 Q2154.61 868.473 2154.61 877.223 Q2154.61 885.95 2151.53 890.557 Q2148.48 895.14 2142.67 895.14 Q2136.86 895.14 2133.78 890.557 Q2130.72 885.95 2130.72 877.223 Q2130.72 868.473 2133.78 863.89 Q2136.86 859.284 2142.67 859.284 Z" fill="#000000" fill-rule="nonzero" fill-opacity="1" /><line clip-path="url(#clip230)" x1="2005.82" y1="948.469" x2="2005.82" y2="925.713" style="stroke:#00a8cb; stroke-width:4.55111; stroke-opacity:1"/>
<line clip-path="url(#clip230)" x1="2005.82" y1="948.469" x2="1983.06" y2="948.469" style="stroke:#00a8cb; stroke-width:4.55111; stroke-opacity:1"/>
<line clip-path="url(#clip230)" x1="2005.82" y1="948.469" x2="2005.82" y2="971.224" style="stroke:#00a8cb; stroke-width:4.55111; stroke-opacity:1"/>
<line clip-path="url(#clip230)" x1="2005.82" y1="948.469" x2="2028.57" y2="948.469" style="stroke:#00a8cb; stroke-width:4.55111; stroke-opacity:1"/>
<path clip-path="url(#clip230)" d="M2103.31 961.813 L2110.95 961.813 L2110.95 935.448 L2102.64 937.115 L2102.64 932.855 L2110.91 931.189 L2115.58 931.189 L2115.58 961.813 L2123.22 961.813 L2123.22 965.749 L2103.31 965.749 L2103.31 961.813 Z" fill="#000000" fill-rule="nonzero" fill-opacity="1" /><path clip-path="url(#clip230)" d="M2133.48 961.813 L2141.11 961.813 L2141.11 935.448 L2132.8 937.115 L2132.8 932.855 L2141.07 931.189 L2145.74 931.189 L2145.74 961.813 L2153.38 961.813 L2153.38 965.749 L2133.48 965.749 L2133.48 961.813 Z" fill="#000000" fill-rule="nonzero" fill-opacity="1" /><path clip-path="url(#clip230)" d="M2005.82 1042.5 L2001.26 1027.62 L1986.11 1031.13 L1996.71 1019.75 L1986.11 1008.37 L2001.26 1011.88 L2005.82 996.993 L2010.37 1011.88 L2025.52 1008.37 L2014.92 1019.75 L2025.52 1031.13 L2010.37 1027.62 L2005.82 1042.5 Z" fill="#9b7fe8" fill-rule="evenodd" fill-opacity="1" stroke="#000000" stroke-opacity="1" stroke-width="4.55111"/>
<path clip-path="url(#clip230)" d="M2103.31 1033.09 L2110.95 1033.09 L2110.95 1006.73 L2102.64 1008.39 L2102.64 1004.14 L2110.91 1002.47 L2115.58 1002.47 L2115.58 1033.09 L2123.22 1033.09 L2123.22 1037.03 L2103.31 1037.03 L2103.31 1033.09 Z" fill="#000000" fill-rule="nonzero" fill-opacity="1" /><path clip-path="url(#clip230)" d="M2136.69 1033.09 L2153.01 1033.09 L2153.01 1037.03 L2131.07 1037.03 L2131.07 1033.09 Q2133.73 1030.34 2138.31 1025.71 Q2142.92 1021.06 2144.1 1019.71 Q2146.35 1017.19 2147.23 1015.45 Q2148.13 1013.7 2148.13 1012.01 Q2148.13 1009.25 2146.18 1007.51 Q2144.26 1005.78 2141.16 1005.78 Q2138.96 1005.78 2136.51 1006.54 Q2134.08 1007.31 2131.3 1008.86 L2131.3 1004.14 Q2134.12 1003 2136.58 1002.42 Q2139.03 1001.84 2141.07 1001.84 Q2146.44 1001.84 2149.63 1004.53 Q2152.83 1007.21 2152.83 1011.7 Q2152.83 1013.83 2152.02 1015.76 Q2151.23 1017.65 2149.12 1020.25 Q2148.55 1020.92 2145.44 1024.14 Q2142.34 1027.33 2136.69 1033.09 Z" fill="#000000" fill-rule="nonzero" fill-opacity="1" /></svg>
