<?xml version="1.0" encoding="UTF-8" standalone="no"?>
<!-- Created with Inkscape (http://www.inkscape.org/) -->

<svg
   version="1.1"
   id="svg1"
   width="351.7312"
   height="332.74557"
   viewBox="0 0 351.7312 332.74557"
   xmlns="http://www.w3.org/2000/svg"
   xmlns:svg="http://www.w3.org/2000/svg">
  <defs
     id="defs1">
    <clipPath
       clipPathUnits="userSpaceOnUse"
       id="clipPath1">
      <path
         d="M -388,-194.87487 H 887 V 1455.1251 H -388 Z"
         id="path1" />
    </clipPath>
    <clipPath
       clipPathUnits="userSpaceOnUse"
       id="clipPath2">
      <path
         d="m -491.25,-268.125 h 1275 v 1650 h -1275 z"
         id="path2" />
    </clipPath>
    <clipPath
       clipPathUnits="userSpaceOnUse"
       id="clipPath3">
      <path
         d="m -729.75,-257.875 h 1275 v 1650 h -1275 z"
         id="path3" />
    </clipPath>
  </defs>
  <g
     id="g1"
     transform="translate(-228.41406,-104.57472)">
    <g
       aria-label="yy&#10;y&#10;y&#10;y&#10;y&#10;@&#10;@&#10;@&#10;@&#10;@&#10;@&#10;H&#10;H&#10;H&#10;H&#10;H&#10;H&#10;&#10;&#10;&#10;&#10;&#10;&#10;&#10;&#10;&#10;&#10;"
       transform="matrix(0.64,0,0,0.64,248.32,124.71992)"
       clip-path="url(#clipPath1)"
       id="g17">
      <path
         d="M 10.352051,-0.00183112 C 10.352051,-5.7147217 5.7133789,-10.353394 4.8828125e-4,-10.353394 -5.7124023,-10.353394 -10.351074,-5.7147217 -10.351074,-0.00183112 -10.351074,5.7110595 -5.7124023,10.349731 4.8828125e-4,10.349731 5.7133789,10.349731 10.352051,5.7110595 10.352051,-0.00183112 Z m 124.499509,0 c 0,-5.71289058 -4.63867,-10.35156288 -10.35156,-10.35156288 -5.71289,0 -10.35156,4.6386723 -10.35156,10.35156288 0,5.71289062 4.63867,10.35156212 10.35156,10.35156212 5.71289,0 10.35156,-4.6386715 10.35156,-10.35156212 z M 10.352051,62.504272 C 10.352051,56.791382 5.7133789,52.15271 4.8828125e-4,52.15271 -5.7124023,52.15271 -10.351074,56.791382 -10.351074,62.504272 c 0,5.712891 4.6386717,10.351563 10.35156228125,10.351563 C 5.7133789,72.855835 10.352051,68.217163 10.352051,62.504272 Z m 0,62.249758 c 0,-5.71289 -4.6386721,-10.35156 -10.35156271875,-10.35156 -5.71289058125,0 -10.35156228125,4.63867 -10.35156228125,10.35156 0,5.71289 4.6386717,10.35156 10.35156228125,10.35156 C 5.7133789,135.10559 10.352051,130.46692 10.352051,124.75403 Z M 134.85767,62.504272 c 0,-5.71289 -4.63868,-10.351562 -10.35157,-10.351562 -5.71289,0 -10.35156,4.638672 -10.35156,10.351562 0,5.712891 4.63867,10.351563 10.35156,10.351563 5.71289,0 10.35157,-4.638672 10.35157,-10.351563 z m 0,62.249758 c 0,-5.71289 -4.63868,-10.35156 -10.35157,-10.35156 -5.71289,0 -10.35156,4.63867 -10.35156,10.35156 0,5.71289 4.63867,10.35156 10.35156,10.35156 5.71289,0 10.35157,-4.63867 10.35157,-10.35156 z m 0,0"
         style="fill:#000000;fill-opacity:1;fill-rule:nonzero;stroke:none"
         id="path15" />
      <path
         d="M -0.20703125,0.50476067 C -0.3046875,0.45593255 -0.40234375,0.38269036 -0.5,0.38269036 c -0.21972656,0 -0.41503906,0.1953125 -0.41503906,0.41503906 0,0.12207031 0.0732422,0.21972658 0.12207031,0.31738278 L 19.885742,21.793823 c 0.09766,0.04883 0.195313,0.12207 0.317383,0.12207 0.219727,0 0.415039,-0.195312 0.415039,-0.415039 0,-0.09766 -0.07324,-0.195312 -0.12207,-0.292968 z M 20.544922,21.25061 c -0.09766,-0.04883 -0.195313,-0.12207 -0.292969,-0.12207 -0.219726,0 -0.415039,0.195312 -0.415039,0.415039 0,0.12207 0.07324,0.219727 0.12207,0.317383 l 20.678711,20.678711 c 0.09766,0.04883 0.195313,0.12207 0.317383,0.12207 0.219727,0 0.415039,-0.195312 0.415039,-0.415039 0,-0.09766 -0.07324,-0.195312 -0.12207,-0.292969 z m 20.745849,20.751953 c -0.09766,-0.04883 -0.195312,-0.12207 -0.292968,-0.12207 -0.219727,0 -0.415039,0.195313 -0.415039,0.415039 0,0.12207 0.07324,0.219727 0.12207,0.317383 l 20.678711,20.678711 c 0.09766,0.04883 0.195312,0.12207 0.317383,0.12207 0.219726,0 0.415039,-0.195312 0.415039,-0.415039 0,-0.09766 -0.07324,-0.195312 -0.122071,-0.292969 z m 20.751954,20.751954 c -0.09766,-0.04883 -0.195313,-0.122071 -0.292969,-0.122071 -0.219727,0 -0.415039,0.195313 -0.415039,0.415039 0,0.122071 0.07324,0.219727 0.12207,0.317383 l 20.678711,20.678711 c 0.09766,0.04883 0.195313,0.12207 0.317383,0.12207 0.219726,0 0.415039,-0.195312 0.415039,-0.415039 0,-0.09766 -0.07324,-0.195312 -0.12207,-0.292968 z m 20.751953,20.745849 c -0.09766,-0.04883 -0.195313,-0.12207 -0.292969,-0.12207 -0.219727,0 -0.415039,0.195312 -0.415039,0.415039 0,0.12207 0.07324,0.219726 0.12207,0.317383 l 20.67871,20.678712 c 0.0977,0.0488 0.19531,0.12207 0.31738,0.12207 0.21973,0 0.41504,-0.19531 0.41504,-0.41504 0,-0.0977 -0.0732,-0.19531 -0.12207,-0.29297 z m 20.745852,20.751954 c -0.0977,-0.0488 -0.19532,-0.12207 -0.29297,-0.12207 -0.21973,0 -0.41504,0.19531 -0.41504,0.41504 0,0.12207 0.0732,0.21972 0.12207,0.31738 l 20.67871,20.67871 c 0.0977,0.0488 0.19531,0.12207 0.31738,0.12207 0.21973,0 0.41504,-0.19531 0.41504,-0.41504 0,-0.0977 -0.0732,-0.19531 -0.12207,-0.29297 z M -0.33520508,0.30334466 c -0.0488281,-0.0488281 -0.0976563,-0.0732422 -0.17089844,-0.0732422 -0.21972656,0 -0.41503906,0.1953125 -0.41503906,0.41503906 0,0.17089844 0.0976563,0.31738281 0.24414063,0.36621098 L 20.001709,11.338501 c 0.04883,0.04883 0.12207,0.07324 0.195312,0.07324 0.219727,0 0.41504,-0.195312 0.41504,-0.415039 0,-0.146484 -0.09766,-0.292969 -0.244141,-0.341797 z M 20.416748,10.801392 c -0.04883,-0.04883 -0.09766,-0.07324 -0.170898,-0.07324 -0.219727,0 -0.415039,0.195313 -0.415039,0.415039 0,0.170899 0.09766,0.317383 0.24414,0.366211 l 20.678711,10.327149 c 0.04883,0.04883 0.12207,0.07324 0.195313,0.07324 0.219726,0 0.415039,-0.195313 0.415039,-0.415039 0,-0.146484 -0.09766,-0.292969 -0.244141,-0.341797 z m 20.751953,10.247802 c -0.04883,-0.04883 -0.09766,-0.07324 -0.170898,-0.07324 -0.219727,0 -0.415039,0.195313 -0.415039,0.415039 0,0.170899 0.09766,0.317383 0.24414,0.366211 l 20.678711,10.327149 c 0.04883,0.04883 0.122071,0.07324 0.195313,0.07324 0.219726,0 0.415039,-0.195313 0.415039,-0.415039 0,-0.146485 -0.09766,-0.292969 -0.244141,-0.341797 z m 20.74585,10.504151 c -0.04883,-0.04883 -0.09766,-0.07324 -0.170899,-0.07324 -0.219726,0 -0.415039,0.195313 -0.415039,0.41504 0,0.170898 0.09766,0.317382 0.244141,0.36621 l 20.678711,10.327149 c 0.04883,0.04883 0.12207,0.07324 0.195312,0.07324 0.219727,0 0.415039,-0.195312 0.415039,-0.415039 0,-0.146484 -0.09766,-0.292969 -0.24414,-0.341797 z m 20.751953,10.247802 c -0.04883,-0.04883 -0.09766,-0.07324 -0.170899,-0.07324 -0.219726,0 -0.415039,0.195313 -0.415039,0.415039 0,0.170899 0.09766,0.317383 0.244141,0.366211 l 20.678713,10.327149 c 0.0488,0.04883 0.12207,0.07324 0.19531,0.07324 0.21973,0 0.41504,-0.195313 0.41504,-0.415039 0,-0.146485 -0.0977,-0.292969 -0.24414,-0.341797 z m 20.751956,10.504151 c -0.0488,-0.04883 -0.0977,-0.07324 -0.1709,-0.07324 -0.21973,0 -0.41504,0.195312 -0.41504,0.415039 0,0.170898 0.0977,0.317382 0.24414,0.366211 l 20.67871,10.327148 c 0.0488,0.04883 0.12207,0.07324 0.19531,0.07324 0.21973,0 0.41504,-0.195312 0.41504,-0.415039 0,-0.146484 -0.0977,-0.292969 -0.24414,-0.341797 z m 0,0"
         style="fill:#000000;fill-opacity:1;fill-rule:nonzero;stroke:none"
         id="path16" />
      <path
         d="m 20.374023,53.013306 c 0.146485,-0.04883 0.244141,-0.195313 0.244141,-0.366211 0,-0.219727 -0.195312,-0.415039 -0.415039,-0.415039 -0.07324,0 -0.146484,0.02441 -0.195313,0.07324 L -0.67089844,62.65686 c -0.14648437,0.04883 -0.24414062,0.195313 -0.24414062,0.341797 0,0.219727 0.1953125,0.415039 0.41503906,0.415039 0.0732422,0 0.12207031,-0.02441 0.17089844,-0.07324 z M 41.11377,42.509155 c 0.146484,-0.04883 0.24414,-0.195312 0.24414,-0.366211 0,-0.219726 -0.195312,-0.415039 -0.415039,-0.415039 -0.07324,0 -0.146484,0.02441 -0.195312,0.07324 L 20.068848,52.15271 c -0.146485,0.04883 -0.244141,0.195312 -0.244141,0.341797 0,0.219726 0.195313,0.415039 0.415039,0.415039 0.07324,0 0.12207,-0.02441 0.170899,-0.07324 z M 61.865723,32.261352 c 0.146484,-0.04883 0.24414,-0.195312 0.24414,-0.36621 0,-0.219727 -0.195312,-0.41504 -0.415039,-0.41504 -0.07324,0 -0.146484,0.02442 -0.195312,0.07324 L 40.820801,41.904907 c -0.146485,0.04883 -0.244141,0.195313 -0.244141,0.341797 0,0.219727 0.195313,0.415039 0.415039,0.415039 0.07324,0 0.122071,-0.02441 0.170899,-0.07324 z m 20.751953,-10.50415 c 0.146484,-0.04883 0.24414,-0.195312 0.24414,-0.366211 0,-0.219726 -0.195312,-0.415039 -0.415039,-0.415039 -0.07324,0 -0.146484,0.02441 -0.195312,0.07324 L 61.572754,31.400757 c -0.146484,0.04883 -0.244141,0.195312 -0.244141,0.341797 0,0.219726 0.195313,0.415039 0.415039,0.415039 0.07324,0 0.122071,-0.02441 0.170899,-0.07324 z M 103.36353,11.509399 c 0.14648,-0.04883 0.24414,-0.195312 0.24414,-0.366211 0,-0.219726 -0.19532,-0.415039 -0.41504,-0.415039 -0.0732,0 -0.14649,0.02441 -0.19532,0.07324 L 82.318604,21.152954 c -0.146485,0.04883 -0.244141,0.195313 -0.244141,0.341797 0,0.219726 0.195312,0.415039 0.415039,0.415039 0.07324,0 0.12207,-0.02441 0.170898,-0.07324 z M 124.11548,1.0113525 c 0.14648,-0.0488282 0.24414,-0.19531253 0.24414,-0.36621097 0,-0.21972656 -0.19531,-0.41503906 -0.41504,-0.41503906 -0.0732,0 -0.14648,0.0244141 -0.19531,0.0732422 L 103.07056,10.654907 c -0.14649,0.04883 -0.24414,0.195313 -0.24414,0.341797 0,0.219727 0.19531,0.415039 0.41504,0.415039 0.0732,0 0.12207,-0.02441 0.17089,-0.07324 z M 20.483887,104.86267 c 0.04883,-0.0977 0.12207,-0.19531 0.12207,-0.31738 0,-0.21973 -0.195312,-0.41504 -0.415039,-0.41504 -0.12207,0 -0.219727,0.0732 -0.317383,0.12207 l -20.67871078,20.70312 c -0.0488281,0.0977 -0.12207031,0.19532 -0.12207031,0.29297 0,0.21973 0.1953125,0.41504 0.41503906,0.41504 0.0976563,0 0.1953125,-0.0732 0.29296875,-0.12207 z M 41.23584,84.110718 c 0.04883,-0.09766 0.12207,-0.195313 0.12207,-0.317383 0,-0.219727 -0.195312,-0.415039 -0.415039,-0.415039 -0.12207,0 -0.219726,0.07324 -0.317383,0.12207 L 19.946777,104.20349 c -0.04883,0.0977 -0.12207,0.19531 -0.12207,0.29297 0,0.21973 0.195313,0.41504 0.415039,0.41504 0.09766,0 0.195313,-0.0732 0.292969,-0.12207 z m 20.745849,-20.74585 c 0.04883,-0.09766 0.122071,-0.195312 0.122071,-0.317383 0,-0.219726 -0.195313,-0.415039 -0.415039,-0.415039 -0.122071,0 -0.219727,0.07324 -0.317383,0.122071 L 40.692627,83.457642 c -0.04883,0.09766 -0.12207,0.195312 -0.12207,0.292968 0,0.219727 0.195312,0.415039 0.415039,0.415039 0.09766,0 0.195312,-0.07324 0.292968,-0.12207 z M 82.733643,42.612915 c 0.04883,-0.09766 0.12207,-0.195313 0.12207,-0.317383 0,-0.219726 -0.195313,-0.415039 -0.415039,-0.415039 -0.12207,0 -0.219727,0.07324 -0.317383,0.12207 L 61.44458,62.705688 c -0.04883,0.09766 -0.12207,0.195313 -0.12207,0.292969 0,0.219727 0.195312,0.415039 0.415039,0.415039 0.09766,0 0.195312,-0.07324 0.292969,-0.12207 z M 103.4856,21.860962 c 0.0488,-0.09766 0.12207,-0.195313 0.12207,-0.317383 0,-0.219727 -0.19532,-0.415039 -0.41504,-0.415039 -0.12207,0 -0.21973,0.07324 -0.31739,0.12207 L 82.196533,41.953735 c -0.04883,0.09766 -0.12207,0.195313 -0.12207,0.292969 0,0.219727 0.195312,0.415039 0.415039,0.415039 0.09766,0 0.195312,-0.07324 0.292969,-0.12207 z M 124.23145,1.1151122 c 0.0488,-0.097656 0.12207,-0.19531247 0.12207,-0.31738278 0,-0.21972656 -0.19532,-0.41503906 -0.41504,-0.41503906 -0.12207,0 -0.21973,0.0732422 -0.31739,0.12207031 L 102.94238,21.207886 c -0.0488,0.09766 -0.12207,0.195312 -0.12207,0.292968 0,0.219727 0.19532,0.415039 0.41504,0.415039 0.0977,0 0.19531,-0.07324 0.29297,-0.12207 z m 0,0"
         style="fill:#000000;fill-opacity:1;fill-rule:nonzero;stroke:none"
         id="path17" />
    </g>
    <path
       d="m 247.98528,164.57472 h 79.84 v 0.64 h -79.84 z"
       style="fill:#000000;fill-opacity:1;fill-rule:nonzero;stroke:none;stroke-width:0.64"
       id="path18" />
    <path
       d="m 247.98528,124.73472 h 79.84 v 0.64 h -79.84 z"
       style="fill:#000000;fill-opacity:1;fill-rule:nonzero;stroke:none;stroke-width:0.64"
       id="path19" />
    <path
       d="m 248.10938,164.75781 c -0.0313,-0.0312 -0.0625,-0.0469 -0.10938,-0.0469 -0.14062,0 -0.26562,0.125 -0.26562,0.26562 0,0.10938 0.0625,0.20313 0.15624,0.23438 l 13.23438,6.60937 c 0.0312,0.0312 0.0781,0.0469 0.125,0.0469 0.14063,0 0.26562,-0.125 0.26562,-0.26563 0,-0.0937 -0.0625,-0.1875 -0.15625,-0.21875 z m 13.28125,6.71875 c -0.0313,-0.0312 -0.0625,-0.0469 -0.10938,-0.0469 -0.14062,0 -0.26563,0.125 -0.26563,0.26562 0,0.10938 0.0625,0.20313 0.15626,0.23438 l 13.23437,6.60937 c 0.0312,0.0312 0.0781,0.0469 0.125,0.0469 0.14063,0 0.26562,-0.125 0.26562,-0.26563 0,-0.0937 -0.0625,-0.1875 -0.15624,-0.21875 z m 13.27734,6.5586 c -0.0312,-0.0312 -0.0625,-0.0469 -0.10938,-0.0469 -0.14062,0 -0.26562,0.125 -0.26562,0.26563 0,0.10937 0.0625,0.20312 0.15625,0.23437 l 13.23437,6.60938 c 0.0312,0.0312 0.0781,0.0469 0.125,0.0469 0.14063,0 0.26563,-0.125 0.26563,-0.26563 0,-0.0937 -0.0625,-0.18749 -0.15625,-0.21874 z m 13.28125,6.72265 c -0.0312,-0.0312 -0.0625,-0.0469 -0.10938,-0.0469 -0.14062,0 -0.26562,0.125 -0.26562,0.26562 0,0.10938 0.0625,0.20313 0.15625,0.23438 l 13.23437,6.60937 c 0.0312,0.0312 0.0781,0.0469 0.125,0.0469 0.14063,0 0.26563,-0.125 0.26563,-0.26563 0,-0.0937 -0.0625,-0.1875 -0.15625,-0.21875 z m 13.28125,6.5586 c -0.0312,-0.0312 -0.0625,-0.0469 -0.10938,-0.0469 -0.14062,0 -0.26562,0.125 -0.26562,0.26563 0,0.10937 0.0625,0.20312 0.15625,0.23437 l 13.23437,6.60938 c 0.0312,0.0312 0.0781,0.0469 0.125,0.0469 0.14063,0 0.26563,-0.125 0.26563,-0.26562 0,-0.0937 -0.0625,-0.1875 -0.15625,-0.21875 z m 13.27734,6.72265 c -0.0312,-0.0312 -0.0625,-0.0469 -0.10937,-0.0469 -0.14063,0 -0.26563,0.125 -0.26563,0.26562 0,0.10938 0.0625,0.20313 0.15625,0.23438 l 13.23438,6.60937 c 0.0312,0.0312 0.0781,0.0469 0.125,0.0469 0.14062,0 0.26562,-0.125 0.26562,-0.26563 0,-0.0937 -0.0625,-0.1875 -0.15625,-0.21875 z m 0,0"
       style="fill:#000000;fill-opacity:1;fill-rule:nonzero;stroke:none;stroke-width:0.64"
       aria-label="H&#10;H&#10;H&#10;H&#10;H&#10;H"
       id="path20" />
    <path
       d="m 247.98528,204.41472 h 79.84 v 0.64 h -79.84 z"
       style="fill:#000000;fill-opacity:1;fill-rule:nonzero;stroke:none;stroke-width:0.64"
       id="path21" />
    <g
       aria-label="&#10;&#10;&#10;&#10;&#10;&#10;yy&#10;yy&#10;y"
       transform="matrix(0.64,0,0,0.64,314.4,171.6)"
       clip-path="url(#clipPath2)"
       id="g23">
      <path
         d="m 20.871582,-9.9829102 c 0.146484,-0.048828 0.244141,-0.1953128 0.244141,-0.3662108 0,-0.219727 -0.195313,-0.415039 -0.415039,-0.415039 -0.07324,0 -0.146485,0.02441 -0.195313,0.07324 L -0.17333984,-0.33935547 c -0.14648438,0.0488281 -0.24414063,0.1953125 -0.24414063,0.34179688 0,0.21972656 0.1953125,0.41503906 0.41503906,0.41503906 0.07324219,0 0.12207032,-0.0244141 0.17089844,-0.0732422 z M 0.12573242,0.51513672 c 0.14648438,-0.0488281 0.24414063,-0.1953125 0.24414063,-0.36621094 0,-0.21972656 -0.1953125,-0.41503906 -0.41503907,-0.41503906 -0.07324218,0 -0.14648437,0.0244141 -0.1953125,0.0732422 L -20.919189,10.158691 c -0.146485,0.04883 -0.244141,0.195313 -0.244141,0.341797 0,0.219727 0.195312,0.415039 0.415039,0.415039 0.07324,0 0.12207,-0.02441 0.170898,-0.07324 z M -20.626221,10.762939 c 0.146485,-0.04883 0.244141,-0.195312 0.244141,-0.36621 0,-0.219727 -0.195313,-0.4150395 -0.415039,-0.4150395 -0.07324,0 -0.146485,0.024415 -0.195313,0.073243 l -20.678711,10.351562 c -0.146484,0.04883 -0.24414,0.195313 -0.24414,0.341797 0,0.219727 0.195312,0.415039 0.415039,0.415039 0.07324,0 0.12207,-0.02441 0.170898,-0.07324 z M -41.378174,21.26709 c 0.146485,-0.04883 0.244141,-0.195313 0.244141,-0.366211 0,-0.219727 -0.195313,-0.415039 -0.415039,-0.415039 -0.07324,0 -0.146485,0.02441 -0.195313,0.07324 l -20.678711,10.351563 c -0.146484,0.04883 -0.24414,0.195312 -0.24414,0.341796 0,0.219727 0.195312,0.415039 0.415039,0.415039 0.07324,0 0.12207,-0.02441 0.170898,-0.07324 z m -20.745849,10.247803 c 0.146484,-0.04883 0.24414,-0.195313 0.24414,-0.366211 0,-0.219727 -0.195312,-0.415039 -0.415039,-0.415039 -0.07324,0 -0.146484,0.02441 -0.195312,0.07324 l -20.678711,10.351562 c -0.146485,0.04883 -0.244141,0.195313 -0.244141,0.341797 0,0.219727 0.195313,0.415039 0.415039,0.415039 0.07324,0 0.12207,-0.02441 0.170899,-0.07324 z m -20.751954,10.50415 c 0.146485,-0.04883 0.244141,-0.195313 0.244141,-0.366211 0,-0.219727 -0.195312,-0.415039 -0.415039,-0.415039 -0.07324,0 -0.146484,0.02441 -0.195313,0.07324 L -103.9209,51.662598 c -0.14648,0.04883 -0.24414,0.195312 -0.24414,0.341797 0,0.219726 0.19531,0.415039 0.41504,0.415039 0.0732,0 0.12207,-0.02441 0.1709,-0.07324 z m 0,0"
         style="fill:#000000;fill-opacity:1;fill-rule:nonzero;stroke:none"
         id="path22" />
      <path
         d="m 187.11304,-94.003906 c 0,-5.712891 -4.63867,-10.351564 -10.35157,-10.351564 -5.71289,0 -10.35156,4.638673 -10.35156,10.351564 0,5.71289 4.63867,10.351562 10.35156,10.351562 5.7129,0 10.35157,-4.638672 10.35157,-10.351562 z m 207.73925,0 c 0,-5.712891 -4.63867,-10.351564 -10.35156,-10.351564 -5.71289,0 -10.35156,4.638673 -10.35156,10.351564 0,5.71289 4.63867,10.351562 10.35156,10.351562 5.71289,0 10.35156,-4.638672 10.35156,-10.351562 z m -145.23925,83.251953 c 0,-5.712891 -4.63867,-10.351563 -10.35157,-10.351563 -5.71289,0 -10.35156,4.638672 -10.35156,10.351563 0,5.7128905 4.63867,10.35156237 10.35156,10.35156237 5.7129,0 10.35157,-4.63867187 10.35157,-10.35156237 z m 83.01391,0 c 0,-5.712891 -4.63867,-10.351563 -10.35156,-10.351563 -5.71289,0 -10.35156,4.638672 -10.35156,10.351563 0,5.7128905 4.63867,10.35156237 10.35156,10.35156237 5.71289,0 10.35156,-4.63867187 10.35156,-10.35156237 z m 62.23755,83.001709 c 0,-5.712891 -4.63867,-10.351563 -10.35156,-10.351563 -5.71289,0 -10.35156,4.638672 -10.35156,10.351563 0,5.71289 4.63867,10.351562 10.35156,10.351562 5.71289,0 10.35156,-4.638672 10.35156,-10.351562 z m 0,0"
         style="fill:#000000;fill-opacity:1;fill-rule:nonzero;stroke:none"
         id="path23" />
    </g>
    <path
       d="m 467.02528,164.57472 h 53.28 v 0.64 h -53.28 z"
       style="fill:#000000;fill-opacity:1;fill-rule:nonzero;stroke:none;stroke-width:0.64"
       id="path24" />
    <g
       aria-label="&#10;&#10;i&#10;@&#10;@&#10;&#10;&#10;&#10;&#10;&#10;S&#10;S&#10;S&#10;S&#10;P&#10;P&#10;P&#10;P&#10;P&#10;y&#10;&#10;&#10;&#10;&#10;"
       transform="matrix(0.64,0,0,0.64,467.04,165.04)"
       clip-path="url(#clipPath3)"
       id="g32">
      <path
         d="m 20.994629,-20.387207 c 0.04883,-0.09766 0.12207,-0.195313 0.12207,-0.317383 0,-0.219726 -0.195312,-0.415039 -0.415039,-0.415039 -0.12207,0 -0.219726,0.07324 -0.317383,0.12207 L -0.29443359,-0.29443359 c -0.0488281,0.0976563 -0.12207032,0.1953125 -0.12207032,0.29296875 0,0.21972656 0.1953125,0.41503906 0.41503907,0.41503906 0.09765625,0 0.1953125,-0.0732422 0.29296875,-0.12207031 z m 10.50415,-10.498047 c 0.04883,-0.09766 0.122071,-0.195312 0.122071,-0.317383 0,-0.219726 -0.195313,-0.415039 -0.415039,-0.415039 -0.122071,0 -0.219727,0.07324 -0.317383,0.122071 L 10.209717,-10.79248 c -0.04883,0.09766 -0.122071,0.195312 -0.122071,0.292968 0,0.219727 0.195313,0.415039 0.41504,0.415039 0.09766,0 0.195312,-0.07324 0.292968,-0.12207 z m 0,0"
         style="fill:#000000;fill-opacity:1;fill-rule:nonzero;stroke:none"
         id="path25" />
      <path
         d="m 53.019775,-42.25 c 0,-5.932617 -4.833984,-10.766602 -10.766601,-10.766602 -5.932617,0 -10.766602,4.833985 -10.766602,10.766602 0,5.932617 4.833985,10.766602 10.766602,10.766602 5.932617,0 10.766601,-4.833985 10.766601,-10.766602 z m -0.830078,0 c 0,5.46875 -4.467773,9.936523 -9.936523,9.936523 -5.46875,0 -9.936524,-4.467773 -9.936524,-9.936523 0,-5.46875 4.467774,-9.936523 9.936524,-9.936523 5.46875,0 9.936523,4.467773 9.936523,9.936523 z m 0,0"
         style="fill:#000000;fill-opacity:1;fill-rule:nonzero;stroke:none"
         id="path26" />
      <path
         d="m 62.791504,-20.997559 c -0.09766,-0.04883 -0.195313,-0.12207 -0.292969,-0.12207 -0.219726,0 -0.415039,0.195313 -0.415039,0.415039 0,0.12207 0.07324,0.219727 0.12207,0.317383 L 82.884277,0.29150391 c 0.09766,0.0488281 0.195313,0.12207031 0.317383,0.12207031 0.219727,0 0.415039,-0.1953125 0.415039,-0.41503906 0,-0.09765625 -0.07324,-0.1953125 -0.12207,-0.29296875 z M 52.293457,-31.495605 c -0.09766,-0.04883 -0.195312,-0.122071 -0.292969,-0.122071 -0.219726,0 -0.415039,0.195313 -0.415039,0.415039 0,0.122071 0.07324,0.219727 0.122071,0.317383 l 20.67871,20.678711 c 0.09766,0.04883 0.195313,0.12207 0.317383,0.12207 0.219727,0 0.415039,-0.195312 0.415039,-0.415039 0,-0.09766 -0.07324,-0.195312 -0.12207,-0.292968 z m 0,0"
         style="fill:#000000;fill-opacity:1;fill-rule:nonzero;stroke:none"
         id="path27" />
      <path
         d="m 72.825684,-58.497559 c 0.170898,-0.07324 0.292968,-0.219726 0.292968,-0.390625 0,-0.24414 -0.195312,-0.415039 -0.415039,-0.415039 -0.07324,0 -0.09766,0.02441 -0.146484,0.02441 l -20.678711,6.90918 c -0.170898,0.02441 -0.292969,0.195313 -0.292969,0.366211 0,0.219727 0.195313,0.415039 0.415039,0.415039 0.04883,0 0.07324,-0.02441 0.122071,-0.04883 z m 20.751953,-7.000732 c 0.170898,-0.07324 0.292968,-0.219727 0.292968,-0.390625 0,-0.244141 -0.195312,-0.415039 -0.415039,-0.415039 -0.07324,0 -0.09766,0.02441 -0.146484,0.02441 l -20.678711,6.90918 c -0.170898,0.02441 -0.292969,0.195312 -0.292969,0.366211 0,0.219726 0.195313,0.415039 0.415039,0.415039 0.04883,0 0.07324,-0.02441 0.122071,-0.04883 z m 20.745853,-6.750488 c 0.17089,-0.07324 0.29297,-0.219727 0.29297,-0.390625 0,-0.244141 -0.19532,-0.415039 -0.41504,-0.415039 -0.0733,0 -0.0977,0.02441 -0.14649,0.02441 l -20.678709,6.909179 c -0.170899,0.02441 -0.292969,0.195313 -0.292969,0.366211 0,0.219727 0.195312,0.415039 0.415039,0.415039 0.04883,0 0.07324,-0.02441 0.12207,-0.04883 z m 20.75195,-7.000733 c 0.1709,-0.07324 0.29297,-0.219726 0.29297,-0.390625 0,-0.24414 -0.19531,-0.415039 -0.41504,-0.415039 -0.0732,0 -0.0977,0.02441 -0.14649,0.02441 l -20.67871,6.90918 c -0.17089,0.02441 -0.29296,0.195312 -0.29296,0.366211 0,0.219726 0.19531,0.415039 0.41503,0.415039 0.0488,0 0.0733,-0.02441 0.12207,-0.04883 z m 10.49805,-3.497314 c 0.17089,-0.07324 0.29297,-0.219727 0.29297,-0.390625 0,-0.244141 -0.19532,-0.415039 -0.41504,-0.415039 -0.0733,0 -0.0977,0.02441 -0.14649,0.02441 l -20.67871,6.90918 c -0.1709,0.02441 -0.29297,0.195312 -0.29297,0.36621 0,0.219727 0.19531,0.41504 0.41504,0.41504 0.0488,0 0.0732,-0.02441 0.12207,-0.04883 z m 0,0"
         style="fill:#000000;fill-opacity:1;fill-rule:nonzero;stroke:none"
         id="path28" />
      <path
         d="m 83.592285,-0.19677734 c -0.09766,-0.0976563 -0.219726,-0.17089844 -0.341797,-0.17089844 -0.219726,0 -0.415039,0.1953125 -0.415039,0.41503906 0,0.09765625 0.04883,0.1953125 0.07324,0.24414063 L 98.436035,20.994629 c 0.07324,0.09766 0.195313,0.170898 0.341797,0.170898 0.219727,0 0.415039,-0.195312 0.415039,-0.415039 0,-0.07324 -0.04883,-0.170898 -0.07324,-0.24414 z M 99.089111,20.555176 c -0.09766,-0.09766 -0.219726,-0.170899 -0.341797,-0.170899 -0.219726,0 -0.415039,0.195313 -0.415039,0.415039 0,0.09766 0.04883,0.195313 0.07324,0.244141 l 15.527345,20.703125 c 0.0732,0.09766 0.19531,0.170898 0.3418,0.170898 0.21972,0 0.41504,-0.195312 0.41504,-0.415039 0,-0.07324 -0.0488,-0.170898 -0.0732,-0.24414 z m 15.502929,20.745849 c -0.0977,-0.09766 -0.21973,-0.170898 -0.3418,-0.170898 -0.21972,0 -0.41503,0.195312 -0.41503,0.415039 0,0.09766 0.0488,0.195313 0.0732,0.244141 l 15.52734,20.703125 c 0.0732,0.09766 0.19531,0.170898 0.3418,0.170898 0.21972,0 0.41504,-0.195312 0.41504,-0.415039 0,-0.07324 -0.0488,-0.170898 -0.0733,-0.244141 z m 15.50293,20.751954 c -0.0977,-0.09766 -0.21973,-0.170899 -0.3418,-0.170899 -0.21972,0 -0.41504,0.195313 -0.41504,0.415039 0,0.09766 0.0488,0.195313 0.0733,0.244141 l 15.52734,20.703125 c 0.0732,0.09766 0.19531,0.170898 0.3418,0.170898 0.21972,0 0.41504,-0.195312 0.41504,-0.415039 0,-0.07324 -0.0488,-0.170898 -0.0733,-0.24414 z M -62.135254,-83.53418 c -0.04883,0 -0.07324,-0.02441 -0.12207,-0.02441 -0.219727,0 -0.415039,0.170899 -0.415039,0.415039 0,0.170899 0.12207,0.317383 0.292968,0.390625 l 20.678711,6.860352 c 0.04883,0.02441 0.07324,0.04883 0.146485,0.04883 0.219726,0 0.415039,-0.195312 0.415039,-0.415039 0,-0.170898 -0.12207,-0.341797 -0.292969,-0.366211 z m 20.751953,7.000733 c -0.04883,0 -0.07324,-0.02441 -0.12207,-0.02441 -0.219727,0 -0.415039,0.170898 -0.415039,0.415039 0,0.170898 0.12207,0.317383 0.292969,0.390625 l 20.678711,6.860351 c 0.04883,0.02441 0.07324,0.04883 0.146484,0.04883 0.219726,0 0.415039,-0.195312 0.415039,-0.415039 0,-0.170898 -0.12207,-0.341797 -0.292969,-0.366211 z m 20.751953,7.006836 c -0.04883,0 -0.07324,-0.02441 -0.12207,-0.02441 -0.219727,0 -0.415039,0.170898 -0.415039,0.415039 0,0.170898 0.12207,0.317382 0.292969,0.390625 l 20.67871066,6.860351 c 0.0488281,0.02441 0.0732422,0.04883 0.14648437,0.04883 0.21972656,0 0.41503906,-0.195312 0.41503906,-0.415039 0,-0.170898 -0.12207031,-0.341797 -0.29296875,-0.366211 z m 20.74584995,6.744384 c -0.04882812,0 -0.07324218,-0.02441 -0.12207031,-0.02441 -0.21972656,0 -0.41503906,0.170899 -0.41503906,0.415039 0,0.170899 0.12207031,0.317383 0.29296875,0.390625 l 20.67871067,6.860352 c 0.04883,0.02441 0.07324,0.04883 0.146485,0.04883 0.219726,0 0.415039,-0.195312 0.415039,-0.415039 0,-0.170898 -0.122071,-0.341797 -0.292969,-0.366211 z m 10.50415005,3.503418 c -0.04883,0 -0.07324,-0.02441 -0.12207,-0.02441 -0.219727,0 -0.415039,0.170899 -0.415039,0.415039 0,0.170899 0.12207,0.317383 0.292969,0.390625 l 20.678711,6.860352 c 0.04883,0.02441 0.07324,0.04883 0.146484,0.04883 0.219727,0 0.415039,-0.195312 0.415039,-0.415039 0,-0.170898 -0.12207,-0.341797 -0.292969,-0.366211 z m 0,0"
         style="fill:#000000;fill-opacity:1;fill-rule:nonzero;stroke:none"
         id="path29" />
      <path
         d="m -51.405273,82.499756 c 0,-5.712891 -4.638672,-10.351563 -10.351563,-10.351563 -5.712891,0 -10.351562,4.638672 -10.351562,10.351563 0,5.71289 4.638671,10.351562 10.351562,10.351562 5.712891,0 10.351563,-4.638672 10.351563,-10.351562 z m 0,0"
         style="fill:#000000;fill-opacity:1;fill-rule:nonzero;stroke:none"
         id="path30" />
      <path
         d="m 0.36474609,0.29150391 c 0.0244141,-0.0488281 0.0732422,-0.14648438 0.0732422,-0.24414063 0,-0.21972656 -0.1953125,-0.41503906 -0.41503906,-0.41503906 -0.14648438,0 -0.26855469,0.0732422 -0.34179688,0.17089844 L -15.846191,20.506348 c -0.02441,0.07324 -0.07324,0.170898 -0.07324,0.24414 0,0.219727 0.195313,0.415039 0.415039,0.415039 0.122071,0 0.244141,-0.07324 0.341797,-0.170898 z M -15.138184,21.037354 c 0.02441,-0.04883 0.07324,-0.146485 0.07324,-0.244141 0,-0.219727 -0.195313,-0.415039 -0.415039,-0.415039 -0.146485,0 -0.268555,0.07324 -0.341797,0.170898 l -15.527344,20.703125 c -0.02441,0.07324 -0.07324,0.170899 -0.07324,0.244141 0,0.219726 0.195312,0.415039 0.415039,0.415039 0.12207,0 0.24414,-0.07324 0.341797,-0.170898 z m -15.502929,20.751953 c 0.02441,-0.04883 0.07324,-0.146485 0.07324,-0.244141 0,-0.219727 -0.195313,-0.415039 -0.415039,-0.415039 -0.146485,0 -0.268555,0.07324 -0.341797,0.170898 L -46.852051,62.00415 c -0.02441,0.07324 -0.07324,0.170899 -0.07324,0.244141 0,0.219727 0.195313,0.415039 0.415039,0.415039 0.12207,0 0.244141,-0.07324 0.341797,-0.170898 z M -46.388184,62.54126 c 0.02441,-0.04883 0.07324,-0.146485 0.07324,-0.244141 0,-0.219726 -0.195313,-0.415039 -0.415039,-0.415039 -0.146485,0 -0.268555,0.07324 -0.341797,0.170899 l -15.527344,20.703125 c -0.02441,0.07324 -0.07324,0.170898 -0.07324,0.24414 0,0.219727 0.195312,0.415039 0.415039,0.415039 0.12207,0 0.24414,-0.07324 0.341797,-0.170898 z m 0,0"
         style="fill:#000000;fill-opacity:1;fill-rule:nonzero;stroke:none"
         id="path31" />
      <path
         d="m -41.13916,103.74609 c 0.219726,0 0.415039,-0.19531 0.415039,-0.41504 0,-0.21972 -0.195313,-0.41503 -0.415039,-0.41503 -11.181641,0 -20.288086,-9.10645 -20.288086,-20.28809 0,-0.219727 -0.195313,-0.415039 -0.415039,-0.415039 -0.219727,0 -0.415039,0.195312 -0.415039,0.415039 0,11.645507 9.472656,21.11816 21.118164,21.11816 z M 145.48193,82.62793 c 0,11.18164 -9.10644,20.28809 -20.28808,20.28809 -0.21973,0 -0.41504,0.19531 -0.41504,0.41503 0,0.21973 0.19531,0.41504 0.41504,0.41504 11.64551,0 21.11816,-9.472653 21.11816,-21.11816 0,-0.219727 -0.19531,-0.415039 -0.41504,-0.415039 -0.21972,0 -0.41504,0.195312 -0.41504,0.415039 z m 0,0"
         style="fill:#000000;fill-opacity:1;fill-rule:nonzero;stroke:none"
         id="path32" />
    </g>
    <path
       d="m 440.78528,230.81472 h 106.4 v 0.64 h -106.4 z"
       style="fill:#000000;fill-opacity:1;fill-rule:nonzero;stroke:none;stroke-width:0.64"
       id="path33" />
    <path
       d="m 561.6875,111.92188 c 2.76562,0 5.03125,2.26562 5.03125,5.03124 0,0.15625 0.125,0.26563 0.26563,0.26563 0.14062,0 0.26562,-0.10938 0.26562,-0.26563 0,-3.06249 -2.5,-5.5625 -5.5625,-5.5625 -0.15625,0 -0.26562,0.125 -0.26562,0.26563 0,0.14063 0.10937,0.26563 0.26562,0.26563 z m 0,0"
       style="fill:#000000;fill-opacity:1;fill-rule:nonzero;stroke:none;stroke-width:0.64"
       aria-label=""
       id="path34" />
    <path
       d="m 566.70528,116.73472 h 0.64 v 95.68 h -0.64 z"
       style="fill:#000000;fill-opacity:1;fill-rule:nonzero;stroke:none;stroke-width:0.64"
       id="path35" />
    <path
       d="m 566.71875,212.59765 c 0,2.76563 -2.26563,5.03125 -5.03125,5.03125 -0.15625,0 -0.26562,0.125 -0.26562,0.26563 0,0.14062 0.10937,0.26562 0.26562,0.26562 3.0625,0 5.5625,-2.5 5.5625,-5.5625 0,-0.14062 -0.125,-0.26562 -0.26562,-0.26562 -0.14063,0 -0.26563,0.125 -0.26563,0.26562 z m 0,0"
       style="fill:#000000;fill-opacity:1;fill-rule:nonzero;stroke:none;stroke-width:0.64"
       aria-label=""
       id="path36" />
    <path
       d="m 560.46528,217.53472 h 1.44 v 0.64 h -1.44 z"
       style="fill:#000000;fill-opacity:1;fill-rule:nonzero;stroke:none;stroke-width:0.64"
       id="path37" />
    <path
       d="m 560.46528,111.29472 h 1.44 v 0.64 h -1.44 z"
       style="fill:#000000;fill-opacity:1;fill-rule:nonzero;stroke:none;stroke-width:0.64"
       id="path38" />
    <path
       d="m 420.64062,116.95312 c 0,0.15625 0.125,0.26563 0.26563,0.26563 0.14063,0 0.26563,-0.10938 0.26563,-0.26563 0,-2.76562 2.26562,-5.03124 5.03124,-5.03124 0.14063,0 0.26563,-0.125 0.26563,-0.26563 0,-0.14063 -0.125,-0.26563 -0.26563,-0.26563 -3.06249,0 -5.5625,2.50001 -5.5625,5.5625 z m 0,0"
       style="fill:#000000;fill-opacity:1;fill-rule:nonzero;stroke:none;stroke-width:0.64"
       aria-label=""
       id="path39" />
    <path
       d="m 420.62528,116.73472 h 0.64 v 95.68 h -0.64 z"
       style="fill:#000000;fill-opacity:1;fill-rule:nonzero;stroke:none;stroke-width:0.64"
       id="path40" />
    <path
       d="m 426.20312,218.16015 c 0.14063,0 0.26563,-0.125 0.26563,-0.26562 0,-0.14063 -0.125,-0.26563 -0.26563,-0.26563 -2.76562,0 -5.03124,-2.26562 -5.03124,-5.03125 0,-0.14062 -0.125,-0.26562 -0.26563,-0.26562 -0.14063,0 -0.26563,0.125 -0.26563,0.26562 0,3.0625 2.50001,5.5625 5.5625,5.5625 z m 0,0"
       style="fill:#000000;fill-opacity:1;fill-rule:nonzero;stroke:none;stroke-width:0.64"
       aria-label=""
       id="path41" />
    <path
       d="m 426.22528,217.53472 h 1.44 v 0.64 h -1.44 z"
       style="fill:#000000;fill-opacity:1;fill-rule:nonzero;stroke:none;stroke-width:0.64"
       id="path42" />
    <path
       d="m 426.22528,111.29472 h 1.44 v 0.64 h -1.44 z"
       style="fill:#000000;fill-opacity:1;fill-rule:nonzero;stroke:none;stroke-width:0.64"
       id="path43" />
    <path
       d="m 427.19922,110.23047 c 0,0.15625 0.125,0.26562 0.26562,0.26562 0.14063,0 0.26563,-0.10937 0.26563,-0.26562 0,-2.76563 2.26562,-5.03125 5.03125,-5.03125 0.14062,0 0.26562,-0.125 0.26562,-0.26563 0,-0.14062 -0.125,-0.26562 -0.26562,-0.26562 -3.0625,0 -5.5625,2.5 -5.5625,5.5625 z m 0,0"
       style="fill:#000000;fill-opacity:1;fill-rule:nonzero;stroke:none;stroke-width:0.64"
       aria-label=""
       id="path44" />
    <path
       d="m 427.18528,110.01472 h 0.64 v 1.44 h -0.64 z"
       style="fill:#000000;fill-opacity:1;fill-rule:nonzero;stroke:none;stroke-width:0.64"
       id="path45" />
    <path
       d="m 555.12891,105.19922 c 2.76562,0 5.03125,2.26562 5.03125,5.03125 0,0.15625 0.125,0.26562 0.26562,0.26562 0.14063,0 0.26563,-0.10937 0.26563,-0.26562 0,-3.0625 -2.5,-5.5625 -5.5625,-5.5625 -0.15625,0 -0.26563,0.125 -0.26563,0.26562 0,0.14063 0.10938,0.26563 0.26563,0.26563 z m 0,0"
       style="fill:#000000;fill-opacity:1;fill-rule:nonzero;stroke:none;stroke-width:0.64"
       aria-label=""
       id="path46" />
    <path
       d="m 560.14528,110.01472 h 0.64 v 1.44 h -0.64 z"
       style="fill:#000000;fill-opacity:1;fill-rule:nonzero;stroke:none;stroke-width:0.64"
       id="path47" />
    <path
       d="m 432.94528,104.57472 h 122.24 v 0.64 h -122.24 z"
       style="fill:#000000;fill-opacity:1;fill-rule:nonzero;stroke:none;stroke-width:0.64"
       id="path48" />
    <path
       d="m 234.06528,277.21472 h 120.64 v 0.64 h -120.64 z"
       style="fill:#000000;fill-opacity:1;fill-rule:nonzero;stroke:none;stroke-width:0.64"
       id="path49" />
    <path
       d="m 234.06528,277.69472 h 0.64 v 119.68 h -0.64 z"
       style="fill:#000000;fill-opacity:1;fill-rule:nonzero;stroke:none;stroke-width:0.64"
       id="path50" />
    <path
       d="m 354.22528,277.69472 h 0.64 v 119.68 h -0.64 z"
       style="fill:#000000;fill-opacity:1;fill-rule:nonzero;stroke:none;stroke-width:0.64"
       id="path51" />
    <path
       d="m 234.06528,397.21472 h 120.64 v 0.64 h -120.64 z"
       style="fill:#000000;fill-opacity:1;fill-rule:nonzero;stroke:none;stroke-width:0.64"
       id="path52" />
    <path
       d="m 241.66406,277.51953 c 0,-3.65625 -2.96875,-6.625 -6.625,-6.625 -3.65625,0 -6.625,2.96875 -6.625,6.625 0,3.65625 2.96875,6.625 6.625,6.625 3.65625,0 6.625,-2.96875 6.625,-6.625 z m 0,0"
       style="fill:#000000;fill-opacity:1;fill-rule:nonzero;stroke:none;stroke-width:0.64"
       aria-label="y"
       id="path53" />
    <path
       d="m 261.26528,370.49472 h 73.12 v 0.64 h -73.12 z"
       style="fill:#000000;fill-opacity:1;fill-rule:nonzero;stroke:none;stroke-width:0.64"
       id="path54" />
    <path
       d="m 241.66406,317.35937 c 0,-3.65625 -2.96875,-6.62499 -6.625,-6.62499 -3.65625,0 -6.625,2.96874 -6.625,6.62499 0,3.65626 2.96875,6.62501 6.625,6.62501 3.65625,0 6.625,-2.96875 6.625,-6.62501 z m 0,0"
       style="fill:#000000;fill-opacity:1;fill-rule:nonzero;stroke:none;stroke-width:0.64"
       aria-label="y"
       id="path55" />
    <path
       d="m 234.70528,317.37472 h 20 v 0.64 h -20 z"
       style="fill:#000000;fill-opacity:1;fill-rule:nonzero;stroke:none;stroke-width:0.64"
       id="path56" />
    <path
       d="m 268.49219,317.35937 c 0,-3.79687 -3.09375,-6.89062 -6.89063,-6.89062 -3.79687,0 -6.89062,3.09375 -6.89062,6.89062 0,3.79688 3.09375,6.89063 6.89062,6.89063 3.79688,0 6.89063,-3.09375 6.89063,-6.89063 z m -0.53125,0 c 0,3.5 -2.85938,6.35938 -6.35938,6.35938 -3.5,0 -6.35937,-2.85938 -6.35937,-6.35938 0,-3.5 2.85937,-6.35937 6.35937,-6.35937 3.5,0 6.35938,2.85937 6.35938,6.35937 z m 0,0"
       style="fill:#000000;fill-opacity:1;fill-rule:nonzero;stroke:none;stroke-width:0.64"
       aria-label="i"
       id="path57" />
    <path
       d="m 260.94528,324.25472 h 0.64 v 73.12 h -0.64 z"
       style="fill:#000000;fill-opacity:1;fill-rule:nonzero;stroke:none;stroke-width:0.64"
       id="path58" />
    <path
       d="m 334.06528,317.53472 h 0.64 v 79.84 h -0.64 z"
       style="fill:#000000;fill-opacity:1;fill-rule:nonzero;stroke:none;stroke-width:0.64"
       id="path59" />
    <path
       d="m 267.82528,317.37472 h 66.56 v 0.64 h -66.56 z"
       style="fill:#000000;fill-opacity:1;fill-rule:nonzero;stroke:none;stroke-width:0.64"
       id="path60" />
    <path
       d="m 268.22656,370.48047 c 0,-3.65625 -2.96875,-6.625 -6.625,-6.625 -3.65625,0 -6.625,2.96875 -6.625,6.625 0,3.65625 2.96875,6.625 6.625,6.625 3.65625,0 6.625,-2.96875 6.625,-6.625 z m 0,26.5625 c 0,-3.65625 -2.96875,-6.625 -6.625,-6.625 -3.65625,0 -6.625,2.96875 -6.625,6.625 0,3.65625 2.96875,6.625 6.625,6.625 3.65625,0 6.625,-2.96875 6.625,-6.625 z m 72.96094,-26.5625 c 0,-3.65625 -2.96875,-6.625 -6.625,-6.625 -3.65625,0 -6.625,2.96875 -6.625,6.625 0,3.65625 2.96875,6.625 6.625,6.625 3.65625,0 6.625,-2.96875 6.625,-6.625 z m 0,26.5625 c 0,-3.65625 -2.96875,-6.625 -6.625,-6.625 -3.65625,0 -6.625,2.96875 -6.625,6.625 0,3.65625 2.96875,6.625 6.625,6.625 3.65625,0 6.625,-2.96875 6.625,-6.625 z m 0,0"
       style="fill:#000000;fill-opacity:1;fill-rule:nonzero;stroke:none;stroke-width:0.64"
       aria-label="y&#10;y&#10;y&#10;y"
       id="path61" />
    <path
       d="m 439.98528,283.93472 h 120.64 v 0.64 h -120.64 z"
       style="fill:#000000;fill-opacity:1;fill-rule:nonzero;stroke:none;stroke-width:0.64"
       id="path62" />
    <path
       d="m 439.98528,284.41472 h 0.64 v 119.68 h -0.64 z"
       style="fill:#000000;fill-opacity:1;fill-rule:nonzero;stroke:none;stroke-width:0.64"
       id="path63" />
    <path
       d="m 560.14528,284.41472 h 0.64 v 119.68 h -0.64 z"
       style="fill:#000000;fill-opacity:1;fill-rule:nonzero;stroke:none;stroke-width:0.64"
       id="path64" />
    <path
       d="m 439.98528,403.93472 h 120.64 v 0.64 h -120.64 z"
       style="fill:#000000;fill-opacity:1;fill-rule:nonzero;stroke:none;stroke-width:0.64"
       id="path65" />
    <path
       d="m 439.98528,323.77472 h 80.8 v 0.64 h -80.8 z"
       style="fill:#000000;fill-opacity:1;fill-rule:nonzero;stroke:none;stroke-width:0.64"
       id="path66" />
    <path
       d="m 439.98528,324.25472 h 0.64 v 79.84 h -0.64 z"
       style="fill:#000000;fill-opacity:1;fill-rule:nonzero;stroke:none;stroke-width:0.64"
       id="path67" />
    <path
       d="m 520.30528,324.25472 h 0.64 v 79.84 h -0.64 z"
       style="fill:#000000;fill-opacity:1;fill-rule:nonzero;stroke:none;stroke-width:0.64"
       id="path68" />
    <path
       d="m 439.98528,403.93472 h 80.8 v 0.64 h -80.8 z"
       style="fill:#000000;fill-opacity:1;fill-rule:nonzero;stroke:none;stroke-width:0.64"
       id="path69" />
    <path
       d="m 480.14528,284.41472 h 0.64 v 119.68 h -0.64 z"
       style="fill:#000000;fill-opacity:1;fill-rule:nonzero;stroke:none;stroke-width:0.64"
       id="path70" />
    <path
       d="m 487.42578,284.23828 c 0,-3.65625 -2.96875,-6.625 -6.625,-6.625 -3.65625,0 -6.625,2.96875 -6.625,6.625 0,3.65625 2.96875,6.625 6.625,6.625 3.65625,0 6.625,-2.96875 6.625,-6.625 z m -40.0039,39.84375 c 0,-3.65625 -2.96875,-6.625 -6.62501,-6.625 -3.65624,0 -6.62499,2.96875 -6.62499,6.625 0,3.65625 2.96875,6.625 6.62499,6.625 3.65626,0 6.62501,-2.96875 6.62501,-6.625 z m 40.0039,79.68359 c 0,-3.65625 -2.96875,-6.625 -6.625,-6.625 -3.65625,0 -6.625,2.96875 -6.625,6.625 0,3.65625 2.96875,6.625 6.625,6.625 3.65625,0 6.625,-2.96875 6.625,-6.625 z m 39.83984,-39.84375 c 0,-3.65625 -2.96875,-6.625 -6.62499,-6.625 -3.65625,0 -6.62501,2.96875 -6.62501,6.625 0,3.65625 2.96876,6.625 6.62501,6.625 3.65624,0 6.62499,-2.96875 6.62499,-6.625 z m 0,39.84375 c 0,-3.65625 -2.96875,-6.625 -6.62499,-6.625 -3.65625,0 -6.62501,2.96875 -6.62501,6.625 0,3.65625 2.96876,6.625 6.62501,6.625 3.65624,0 6.62499,-2.96875 6.62499,-6.625 z m -39.83984,-39.84375 c 0,-3.65625 -2.96875,-6.625 -6.625,-6.625 -3.65625,0 -6.625,2.96875 -6.625,6.625 0,3.65625 2.96875,6.625 6.625,6.625 3.65625,0 6.625,-2.96875 6.625,-6.625 z m 0,0"
       style="fill:#000000;fill-opacity:1;fill-rule:nonzero;stroke:none;stroke-width:0.64"
       aria-label="y&#10;y&#10;y&#10;y&#10;y&#10;y"
       id="path71" />
    <path
       d="m 480.30528,363.93472 h 40 v 0.64 h -40 z"
       style="fill:#000000;fill-opacity:1;fill-rule:nonzero;stroke:none;stroke-width:0.64"
       id="path72" />
    <path
       d="m 290.3125,237.82812 c 0,-0.0469 0,-0.0781 -0.23438,-0.29687 C 288.42188,235.85937 288,233.35937 288,231.32812 c 0,-2.3125 0.5,-4.60937 2.14063,-6.26562 0.17187,-0.15625 0.17187,-0.1875 0.17187,-0.23438 0,-0.0781 -0.0625,-0.125 -0.14062,-0.125 -0.125,0 -1.32813,0.90625 -2.10938,2.57813 -0.67187,1.46875 -0.82813,2.9375 -0.82813,4.04687 0,1.03125 0.14063,2.64063 0.875,4.14063 0.79688,1.625 1.93751,2.48437 2.06251,2.48437 0.0781,0 0.14062,-0.0469 0.14062,-0.125 z m 5.16406,-4.1875 c 0.0625,0.51563 0.42188,1.07813 1.04688,1.07813 0.26562,0 1.07812,-0.1875 1.07812,-1.25 v -0.75 h -0.32812 v 0.75 c 0,0.76562 -0.32813,0.84375 -0.48438,0.84375 -0.4375,0 -0.48437,-0.59375 -0.48437,-0.67188 V 231 c 0,-0.5625 0,-1.07813 -0.48438,-1.5625 -0.51562,-0.51563 -1.17187,-0.73438 -1.8125,-0.73438 -1.07812,0 -2,0.625 -2,1.5 0,0.39063 0.26563,0.625 0.60938,0.625 0.375,0 0.60937,-0.26562 0.60937,-0.60937 0,-0.15625 -0.0625,-0.59375 -0.67187,-0.60938 0.35937,-0.46875 1,-0.60937 1.4375,-0.60937 0.64062,0 1.39062,0.51562 1.39062,1.6875 v 0.5 c -0.67187,0.0312 -1.59375,0.0781 -2.4375,0.46875 -0.98437,0.45312 -1.3125,1.14062 -1.3125,1.71875 0,1.07812 1.28125,1.40625 2.10938,1.40625 0.875,0 1.48437,-0.53125 1.73437,-1.14063 z m -0.0937,-2.1875 v 1.32813 c 0,1.26562 -0.95312,1.71875 -1.54687,1.71875 -0.64063,0 -1.1875,-0.46875 -1.1875,-1.125 0,-0.73438 0.5625,-1.82813 2.73437,-1.92188 z m 6.21875,-0.125 c 0,-1.03125 -0.14062,-2.64062 -0.875,-4.14062 -0.79687,-1.625 -1.9375,-2.48438 -2.0625,-2.48438 -0.0781,0 -0.14062,0.0469 -0.14062,0.125 0,0.0469 0,0.0781 0.25,0.3125 1.3125,1.3125 2.0625,3.42188 2.0625,6.1875 0,2.26563 -0.48438,4.59375 -2.14063,6.26563 -0.17187,0.15625 -0.17187,0.1875 -0.17187,0.23437 0,0.0781 0.0625,0.125 0.14062,0.125 0.125,0 1.32813,-0.90625 2.10938,-2.57812 0.67187,-1.46875 0.82812,-2.9375 0.82812,-4.04688 z m 187.59766,26.5 c 0,-0.0469 0,-0.0781 -0.23438,-0.29687 -1.65624,-1.67188 -2.07812,-4.17188 -2.07812,-6.20313 0,-2.3125 0.5,-4.60937 2.14062,-6.26562 0.17188,-0.15625 0.17188,-0.1875 0.17188,-0.23438 0,-0.0781 -0.0625,-0.125 -0.14063,-0.125 -0.125,0 -1.32812,0.90625 -2.10937,2.57813 -0.67188,1.46875 -0.82813,2.9375 -0.82813,4.04687 0,1.03125 0.14063,2.64063 0.87501,4.14063 0.79687,1.625 1.93749,2.48437 2.06249,2.48437 0.0781,0 0.14063,-0.0469 0.14063,-0.125 z m 3.03906,-8.1875 v -4.20312 l -1.90625,0.15625 V 246 c 0.92188,0 1.03125,0.0937 1.03125,0.75 v 7.89062 h 0.32812 c 0.0156,-0.0156 0.125,-0.20312 0.48438,-0.82812 0.1875,0.3125 0.75,0.96875 1.73438,0.96875 1.57812,0 2.95312,-1.29688 2.95312,-3 0,-1.6875 -1.29687,-3 -2.8125,-3 -1.03125,0 -1.60937,0.625 -1.8125,0.85937 z m 0.0312,3.48438 v -2.71875 c 0,-0.25 0,-0.26563 0.15625,-0.48438 0.51563,-0.73437 1.23437,-0.84375 1.5625,-0.84375 0.59375,0 1.0625,0.34375 1.39063,0.84375 0.34375,0.54688 0.375,1.29688 0.375,1.84375 0,0.48438 -0.0156,1.28125 -0.40625,1.875 -0.28125,0.42188 -0.78125,0.85938 -1.5,0.85938 -0.59375,0 -1.0625,-0.32813 -1.39063,-0.8125 -0.1875,-0.28125 -0.1875,-0.3125 -0.1875,-0.5625 z m 8.83985,-1.79688 c 0,-1.03125 -0.14063,-2.64062 -0.875,-4.14062 -0.79688,-1.625 -1.9375,-2.48438 -2.06251,-2.48438 -0.0781,0 -0.14062,0.0469 -0.14062,0.125 0,0.0469 0,0.0781 0.25,0.3125 1.3125,1.3125 2.0625,3.42188 2.0625,6.1875 0,2.26563 -0.48438,4.59375 -2.14063,6.26563 -0.17187,0.15625 -0.17187,0.1875 -0.17187,0.23437 0,0.0781 0.0625,0.125 0.14062,0.125 0.12501,0 1.32813,-0.90625 2.10938,-2.57812 0.67188,-1.46875 0.82813,-2.9375 0.82813,-4.04688 z M 290.62891,423.91406 c 0,-0.0469 0,-0.0781 -0.23438,-0.29687 -1.65625,-1.67188 -2.07812,-4.17188 -2.07812,-6.20313 0,-2.3125 0.5,-4.60937 2.14062,-6.26562 0.17188,-0.15626 0.17188,-0.1875 0.17188,-0.23438 0,-0.0781 -0.0625,-0.125 -0.14063,-0.125 -0.125,0 -1.32812,0.90625 -2.10937,2.57812 -0.67188,1.46875 -0.82813,2.93751 -0.82813,4.04688 0,1.03125 0.14063,2.64062 0.875,4.14062 0.79688,1.625 1.9375,2.48438 2.0625,2.48438 0.0781,0 0.14063,-0.0469 0.14063,-0.125 z m 5.51172,-8.29687 c -0.53126,0.0312 -0.60938,0.43749 -0.60938,0.60937 0,0.34375 0.23437,0.60937 0.60938,0.60937 0.34375,0 0.60937,-0.23437 0.60937,-0.625 0,-0.90624 -1.01562,-1.42187 -2.03125,-1.42187 -1.65625,0 -2.875,1.4375 -2.875,3.07812 0,1.6875 1.3125,3 2.84375,3 1.78125,0 2.20313,-1.57812 2.20313,-1.71874 0,-0.12501 -0.14063,-0.12501 -0.17188,-0.12501 -0.125,0 -0.14063,0.0469 -0.17188,0.12501 -0.39062,1.23437 -1.25,1.39062 -1.73437,1.39062 -0.70313,0 -1.875,-0.5625 -1.875,-2.70313 0,-2.15625 1.09375,-2.71874 1.79688,-2.71874 0.10937,0 0.95312,0.0156 1.40625,0.5 z m 4.97265,1.79687 c 0,-1.03125 -0.14062,-2.64062 -0.875,-4.14062 -0.79687,-1.625 -1.9375,-2.48438 -2.0625,-2.48438 -0.0781,0 -0.14062,0.0469 -0.14062,0.125 0,0.0469 0,0.0781 0.25,0.3125 1.3125,1.3125 2.0625,3.42188 2.0625,6.1875 0,2.26562 -0.48438,4.59375 -2.14063,6.26562 -0.17187,0.15625 -0.17187,0.1875 -0.17187,0.23438 0,0.0781 0.0625,0.125 0.14062,0.125 0.125,0 1.32813,-0.90625 2.10938,-2.57812 0.67187,-1.46876 0.82812,-2.93751 0.82812,-4.04688 z m 194.80469,19.78125 c 0,-0.0469 0,-0.0781 -0.23437,-0.29687 -1.65626,-1.67188 -2.07813,-4.17188 -2.07813,-6.20313 0,-2.3125 0.5,-4.60937 2.14062,-6.26562 0.17188,-0.15625 0.17188,-0.1875 0.17188,-0.23438 0,-0.0781 -0.0625,-0.125 -0.14063,-0.125 -0.12499,0 -1.32812,0.90625 -2.10937,2.57813 -0.67187,1.46875 -0.82812,2.9375 -0.82812,4.04687 0,1.03125 0.14062,2.64062 0.87499,4.14062 0.79688,1.62501 1.93751,2.48438 2.0625,2.48438 0.0781,0 0.14063,-0.0469 0.14063,-0.125 z m 5.79297,-3.92187 v 0.875 l 1.95312,-0.14063 v -0.40625 c -0.92187,0 -1.03125,-0.0937 -1.03125,-0.75 v -8.04687 l -1.90625,0.15625 v 0.40624 c 0.92188,0 1.03125,0.0938 1.03125,0.75001 v 2.85937 c -0.39062,-0.48438 -0.95313,-0.82812 -1.67187,-0.82812 -1.5625,0 -2.95313,1.29687 -2.95313,3.01562 0,1.67187 1.29688,2.98438 2.8125,2.98438 0.84375,0 1.4375,-0.45313 1.76563,-0.875 z m 0,-3.54688 v 2.71875 c 0,0.23437 0,0.26562 -0.14063,0.48438 -0.40625,0.64062 -1,0.93749 -1.5625,0.93749 -0.59375,0 -1.07812,-0.34375 -1.39062,-0.85937 -0.34375,-0.53125 -0.39063,-1.29688 -0.39063,-1.82813 0,-0.5 0.0312,-1.29687 0.42188,-1.89062 0.26562,-0.40625 0.78125,-0.84375 1.48437,-0.84375 0.46875,0 1.03125,0.20313 1.4375,0.79688 0.14063,0.21875 0.14063,0.24999 0.14063,0.48437 z m 6.16015,0.96875 c 0,-1.03125 -0.14062,-2.64063 -0.87499,-4.14063 -0.79688,-1.62499 -1.93751,-2.48437 -2.06251,-2.48437 -0.0781,0 -0.14062,0.0469 -0.14062,0.125 0,0.0469 0,0.0781 0.25,0.3125 1.3125,1.3125 2.0625,3.42188 2.0625,6.1875 0,2.26563 -0.48438,4.59375 -2.14063,6.26563 -0.17187,0.15625 -0.17187,0.1875 -0.17187,0.23437 0,0.0781 0.0625,0.125 0.14062,0.125 0.125,0 1.32813,-0.90625 2.10938,-2.57812 0.67187,-1.46875 0.82812,-2.9375 0.82812,-4.04688 z m 0,0"
       style="fill:#000000;fill-opacity:1;fill-rule:nonzero;stroke:none;stroke-width:0.64"
       aria-label="(a)&#10;(b)&#10;(c)&#10;(d)"
       id="path73" />
    <path
       d="m 560.14528,284.09472 h 6.72 v 0.64 h -6.72 z"
       style="fill:#000000;fill-opacity:1;fill-rule:nonzero;stroke:none;stroke-width:0.64"
       id="path74" />
    <path
       d="m 573.42528,284.09472 h 6.72 v 0.64 h -6.72 z"
       style="fill:#000000;fill-opacity:1;fill-rule:nonzero;stroke:none;stroke-width:0.64"
       id="path75" />
    <path
       d="m 560.14528,403.77472 h 6.72 v 0.64 h -6.72 z"
       style="fill:#000000;fill-opacity:1;fill-rule:nonzero;stroke:none;stroke-width:0.64"
       id="path76" />
    <path
       d="m 573.42528,403.77472 h 6.72 v 0.64 h -6.72 z"
       style="fill:#000000;fill-opacity:1;fill-rule:nonzero;stroke:none;stroke-width:0.64"
       id="path77" />
    <path
       d="m 433.90528,403.77472 h 6.72 v 0.64 h -6.72 z"
       style="fill:#000000;fill-opacity:1;fill-rule:nonzero;stroke:none;stroke-width:0.64"
       id="path78" />
    <path
       d="m 420.62528,403.77472 h 6.72 v 0.64 h -6.72 z"
       style="fill:#000000;fill-opacity:1;fill-rule:nonzero;stroke:none;stroke-width:0.64"
       id="path79" />
    <path
       d="m 420.62528,363.93472 h 6.72 v 0.64 h -6.72 z"
       style="fill:#000000;fill-opacity:1;fill-rule:nonzero;stroke:none;stroke-width:0.64"
       id="path80" />
    <path
       d="m 433.90528,363.93472 h 6.72 v 0.64 h -6.72 z"
       style="fill:#000000;fill-opacity:1;fill-rule:nonzero;stroke:none;stroke-width:0.64"
       id="path81" />
    <path
       d="m 460.46528,363.93472 h 6.72 v 0.64 h -6.72 z"
       style="fill:#000000;fill-opacity:1;fill-rule:nonzero;stroke:none;stroke-width:0.64"
       id="path82" />
    <path
       d="m 447.18528,363.93472 h 6.72 v 0.64 h -6.72 z"
       style="fill:#000000;fill-opacity:1;fill-rule:nonzero;stroke:none;stroke-width:0.64"
       id="path83" />
    <path
       d="m 420.62528,284.09472 h 6.72 v 0.64 h -6.72 z"
       style="fill:#000000;fill-opacity:1;fill-rule:nonzero;stroke:none;stroke-width:0.64"
       id="path84" />
    <path
       d="m 433.90528,284.09472 h 6.72 v 0.64 h -6.72 z"
       style="fill:#000000;fill-opacity:1;fill-rule:nonzero;stroke:none;stroke-width:0.64"
       id="path85" />
    <path
       d="m 573.42528,324.09472 h 6.72 v 0.64 h -6.72 z"
       style="fill:#000000;fill-opacity:1;fill-rule:nonzero;stroke:none;stroke-width:0.64"
       id="path86" />
    <path
       d="m 420.62528,324.09472 h 6.72 v 0.64 h -6.72 z"
       style="fill:#000000;fill-opacity:1;fill-rule:nonzero;stroke:none;stroke-width:0.64"
       id="path87" />
    <path
       d="m 520.30528,324.09472 h 6.72 v 0.64 h -6.72 z"
       style="fill:#000000;fill-opacity:1;fill-rule:nonzero;stroke:none;stroke-width:0.64"
       id="path88" />
    <path
       d="m 533.58528,324.09472 h 6.72 v 0.64 h -6.72 z"
       style="fill:#000000;fill-opacity:1;fill-rule:nonzero;stroke:none;stroke-width:0.64"
       id="path89" />
    <path
       d="m 560.14528,324.09472 h 6.72 v 0.64 h -6.72 z"
       style="fill:#000000;fill-opacity:1;fill-rule:nonzero;stroke:none;stroke-width:0.64"
       id="path90" />
    <path
       d="m 546.86528,324.09472 h 6.72 v 0.64 h -6.72 z"
       style="fill:#000000;fill-opacity:1;fill-rule:nonzero;stroke:none;stroke-width:0.64"
       id="path91" />
    <path
       d="m 533.58528,363.93472 h 6.72 v 0.64 h -6.72 z"
       style="fill:#000000;fill-opacity:1;fill-rule:nonzero;stroke:none;stroke-width:0.64"
       id="path92" />
    <path
       d="m 546.86528,363.93472 h 6.72 v 0.64 h -6.72 z"
       style="fill:#000000;fill-opacity:1;fill-rule:nonzero;stroke:none;stroke-width:0.64"
       id="path93" />
    <path
       d="m 573.42528,363.93472 h 6.72 v 0.64 h -6.72 z"
       style="fill:#000000;fill-opacity:1;fill-rule:nonzero;stroke:none;stroke-width:0.64"
       id="path94" />
    <path
       d="m 560.14528,363.93472 h 6.72 v 0.64 h -6.72 z"
       style="fill:#000000;fill-opacity:1;fill-rule:nonzero;stroke:none;stroke-width:0.64"
       id="path95" />
    <path
       d="m 519.98528,271.13472 h 0.64 v 6.72 h -0.64 z"
       style="fill:#000000;fill-opacity:1;fill-rule:nonzero;stroke:none;stroke-width:0.64"
       id="path96" />
    <path
       d="m 519.98528,284.41472 h 0.64 v 6.72 h -0.64 z"
       style="fill:#000000;fill-opacity:1;fill-rule:nonzero;stroke:none;stroke-width:0.64"
       id="path97" />
    <path
       d="m 519.98528,297.69472 h 0.64 v 6.72 h -0.64 z"
       style="fill:#000000;fill-opacity:1;fill-rule:nonzero;stroke:none;stroke-width:0.64"
       id="path98" />
    <path
       d="m 519.98528,310.97472 h 0.64 v 6.72 h -0.64 z"
       style="fill:#000000;fill-opacity:1;fill-rule:nonzero;stroke:none;stroke-width:0.64"
       id="path99" />
    <path
       d="m 480.14528,271.13472 h 0.64 v 6.72 h -0.64 z"
       style="fill:#000000;fill-opacity:1;fill-rule:nonzero;stroke:none;stroke-width:0.64"
       id="path100" />
    <path
       d="m 440.30528,271.13472 h 0.64 v 6.72 h -0.64 z"
       style="fill:#000000;fill-opacity:1;fill-rule:nonzero;stroke:none;stroke-width:0.64"
       id="path101" />
    <path
       d="m 559.82528,271.13472 h 0.64 v 6.72 h -0.64 z"
       style="fill:#000000;fill-opacity:1;fill-rule:nonzero;stroke:none;stroke-width:0.64"
       id="path102" />
    <path
       d="m 480.14528,410.65472 h 0.64 v 6.72 h -0.64 z"
       style="fill:#000000;fill-opacity:1;fill-rule:nonzero;stroke:none;stroke-width:0.64"
       id="path103" />
    <path
       d="m 559.82528,410.65472 h 0.64 v 6.72 h -0.64 z"
       style="fill:#000000;fill-opacity:1;fill-rule:nonzero;stroke:none;stroke-width:0.64"
       id="path104" />
    <path
       d="m 519.98528,410.65472 h 0.64 v 6.72 h -0.64 z"
       style="fill:#000000;fill-opacity:1;fill-rule:nonzero;stroke:none;stroke-width:0.64"
       id="path105" />
    <path
       d="m 440.30528,410.65472 h 0.64 v 6.72 h -0.64 z"
       style="fill:#000000;fill-opacity:1;fill-rule:nonzero;stroke:none;stroke-width:0.64"
       id="path106" />
  </g>
</svg>
