<?xml version="1.0" encoding="utf-8"?>
<svg xmlns="http://www.w3.org/2000/svg" viewBox="258.9973 224.8055 187.4184 183.436" width="187.418px" height="183.436px" preserveAspectRatio="none"><defs><filter id="filter-0" primitiveUnits="objectBoundingBox"><title>stamp</title><feTurbulence result="turbulence-0" baseFrequency="2" type="fractalNoise" numOctaves="1" seed="74" x="0%"/><feDisplacementMap result="displacement-map-0" in="SourceGraphic" in2="turbulence-0" scale="0.01"/><feTurbulence result="turbulence-2" baseFrequency="0.57" type="turbulence" numOctaves="5" seed="96"/><feComponentTransfer result="component-transfer-2" in="turbulence-2"><feFuncR/><feFuncA type="gamma" exponent="1.06" offset="-1" amplitude="1.89"/></feComponentTransfer><feTurbulence result="turbulence-1" baseFrequency="0.4" type="turbulence" numOctaves="4" seed="54"/><feComponentTransfer result="component-transfer-1" in="turbulence-1"><feFuncR/><feFuncA type="gamma" exponent="0.58" offset="-1" amplitude="1.7"/></feComponentTransfer><feTurbulence result="turbulence-3" baseFrequency="0.3" type="turbulence" numOctaves="4" seed="28"/><feComponentTransfer result="component-transfer-3" in="turbulence-3"><feFuncR/><feFuncA type="gamma" exponent="1.06" offset="-1" amplitude="1.89"/></feComponentTransfer><feTurbulence result="turbulence-4" baseFrequency="0.02" type="turbulence" numOctaves="2" seed="48"/><feComponentTransfer result="component-transfer-0" in="turbulence-4"><feFuncR/><feFuncA type="gamma" exponent="0.21" offset="-0.89" amplitude="1.17"/></feComponentTransfer><feMerge result="merge-0"><feMergeNode in="component-transfer-2"/><feMergeNode in="component-transfer-1"/><feMergeNode in="component-transfer-3"/><feMergeNode in="component-transfer-0"/></feMerge><feComposite result="composite-0" in="displacement-map-0" in2="merge-0" operator="arithmetic" k1="-2" k2="1"/></filter></defs><path d="M 333.799 388.826 C 331.663 388.826 329.694 388.185 327.89 386.88 C 326.134 385.586 324.805 383.795 323.927 381.529 C 322.124 382.454 320.284 382.916 318.433 382.916 C 315.42 382.916 312.94 381.777 310.993 379.511 C 309.048 377.245 308.074 374.136 308.074 370.197 C 308.074 369.082 308.145 367.788 308.288 366.305 C 308.466 364.822 308.68 363.386 308.905 361.998 C 309.19 360.551 309.463 359.447 309.748 358.651 C 308.727 358.936 307.149 359.186 305.014 359.423 C 302.889 359.648 300.73 359.767 298.546 359.767 C 294.097 359.767 290.513 358.7 287.773 356.575 C 285.044 354.44 283.679 351.675 283.679 348.293 C 283.679 346.347 284.166 344.449 285.138 342.598 C 282.765 341.672 280.867 340.272 279.431 338.421 C 278.043 336.57 277.343 334.506 277.343 332.239 C 277.343 329.035 278.672 325.915 281.306 322.853 C 284 319.793 287.263 317.681 291.107 316.529 C 287.263 315.366 284 313.254 281.306 310.193 C 278.672 307.143 277.343 304.012 277.343 300.807 C 277.343 298.541 278.043 296.476 279.431 294.625 C 280.867 292.774 282.765 291.375 285.138 290.449 C 284.166 288.55 283.679 286.652 283.679 284.754 C 283.679 281.324 285.044 278.56 287.773 276.484 C 290.513 274.347 294.097 273.279 298.546 273.279 C 300.73 273.279 302.889 273.398 305.014 273.624 C 307.149 273.861 308.727 274.11 309.748 274.395 C 309.463 273.6 309.19 272.52 308.905 271.12 C 308.68 269.684 308.466 268.225 308.288 266.742 C 308.145 265.211 308.074 263.918 308.074 262.85 C 308.074 258.91 309.048 255.802 310.993 253.535 C 312.94 251.269 315.42 250.13 318.433 250.13 C 320.284 250.13 322.124 250.593 323.927 251.518 C 324.805 249.205 326.134 247.413 327.89 246.167 C 329.694 244.861 331.663 244.221 333.799 244.221 C 336.955 244.221 340.171 245.586 343.47 248.315 C 346.804 251.008 349.889 254.757 352.712 259.587 C 355.584 254.757 358.669 251.008 361.956 248.315 C 365.29 245.586 368.518 244.221 371.627 244.221 C 373.797 244.221 375.767 244.861 377.535 246.167 C 379.291 247.413 380.608 249.205 381.498 251.518 C 383.302 250.593 385.129 250.13 386.992 250.13 C 389.994 250.13 392.474 251.269 394.42 253.535 C 396.378 255.802 397.351 258.91 397.351 262.85 C 397.351 263.918 397.255 265.211 397.066 266.742 C 396.923 268.225 396.745 269.684 396.508 271.12 C 396.283 272.52 395.998 273.6 395.678 274.395 C 396.698 274.11 398.276 273.861 400.4 273.624 C 402.583 273.398 404.742 273.279 406.867 273.279 C 411.316 273.279 414.912 274.347 417.64 276.484 C 420.381 278.56 421.746 281.324 421.746 284.754 C 421.746 286.652 421.259 288.55 420.287 290.449 C 422.648 291.375 424.534 292.774 425.923 294.625 C 427.359 296.476 428.07 298.541 428.07 300.807 C 428.07 304.012 426.73 307.143 424.047 310.193 C 421.402 313.254 418.15 315.366 414.306 316.529 C 418.15 317.681 421.402 319.793 424.047 322.853 C 426.73 325.915 428.07 329.035 428.07 332.239 C 428.07 334.506 427.359 336.57 425.923 338.421 C 424.534 340.272 422.648 341.672 420.287 342.598 C 421.259 344.449 421.746 346.347 421.746 348.293 C 421.746 351.675 420.381 354.44 417.64 356.575 C 414.912 358.7 411.316 359.767 406.867 359.767 C 404.742 359.767 402.583 359.648 400.4 359.423 C 398.276 359.186 396.698 358.936 395.678 358.651 C 395.998 359.447 396.283 360.551 396.508 361.998 C 396.745 363.386 396.923 364.822 397.066 366.305 C 397.255 367.788 397.351 369.082 397.351 370.197 C 397.351 374.136 396.378 377.245 394.42 379.511 C 392.474 381.777 389.994 382.916 386.992 382.916 C 385.129 382.916 383.302 382.454 381.498 381.529 C 380.608 383.795 379.291 385.586 377.535 386.88 C 375.767 388.185 373.797 388.826 371.627 388.826 C 368.518 388.826 365.29 387.461 361.956 384.732 C 358.669 381.991 355.584 378.242 352.712 373.46 C 349.889 378.242 346.804 381.991 343.47 384.732 C 340.171 387.461 336.955 388.826 333.799 388.826 Z M 328.59 367.693 C 327.332 367.088 327.036 366.138 327.676 364.845 L 339.708 339.263 L 344.857 341.067 L 331.367 366.72 C 330.714 367.931 329.788 368.25 328.59 367.693 Z M 302.023 336.89 C 300.683 337.305 299.804 336.89 299.389 335.644 C 298.927 334.339 299.389 333.461 300.777 332.999 L 327.818 323.197 L 329.207 328.478 L 302.023 336.89 Z M 326.502 342.74 C 326.087 342.313 325.873 341.826 325.873 341.269 C 325.873 340.723 326.087 340.213 326.502 339.75 L 332.897 332.655 L 336.516 336.273 L 329.491 342.669 C 328.376 343.594 327.379 343.619 326.502 342.74 Z M 327.747 319.305 L 317.745 318.606 C 316.31 318.511 315.585 317.822 315.585 316.529 C 315.585 315.224 316.31 314.536 317.745 314.441 L 327.747 313.741 L 327.747 319.305 Z M 352.712 353.586 C 351.407 353.586 350.719 352.861 350.624 351.425 L 349.924 341.411 L 355.489 341.411 L 354.8 351.425 C 354.706 352.861 354.006 353.586 352.712 353.586 Z M 327.818 309.849 L 300.777 300.048 C 299.389 299.585 298.927 298.707 299.389 297.402 C 299.804 296.157 300.683 295.74 302.023 296.157 L 329.207 304.569 L 327.818 309.849 Z M 376.835 367.693 C 375.637 368.25 374.699 367.931 374.058 366.72 L 360.567 341.067 L 365.717 339.263 L 377.736 364.845 C 378.389 366.138 378.093 367.088 376.835 367.693 Z M 348.406 331.539 C 347.385 331.539 346.495 331.195 345.759 330.495 C 345.06 329.76 344.715 328.893 344.715 327.92 C 344.715 326.947 345.06 326.116 345.759 325.429 C 346.495 324.681 347.385 324.313 348.406 324.313 C 349.378 324.313 350.209 324.681 350.909 325.429 C 351.644 326.116 352.012 326.947 352.012 327.92 C 352.012 328.893 351.644 329.76 350.909 330.495 C 350.209 331.195 349.378 331.539 348.406 331.539 Z M 340.052 322.498 C 339.043 322.498 338.153 322.153 337.418 321.466 C 336.717 320.718 336.374 319.863 336.374 318.89 C 336.374 317.918 336.717 317.075 337.418 316.387 C 338.153 315.639 339.043 315.272 340.052 315.272 C 341.025 315.272 341.867 315.639 342.556 316.387 C 343.303 317.075 343.671 317.918 343.671 318.89 C 343.671 319.863 343.303 320.718 342.556 321.466 C 341.867 322.153 341.025 322.498 340.052 322.498 Z M 342.841 311.38 C 341.82 311.38 340.942 311.035 340.194 310.335 C 339.507 309.599 339.15 308.734 339.15 307.761 C 339.15 306.788 339.507 305.957 340.194 305.257 C 340.942 304.521 341.82 304.153 342.841 304.153 C 343.813 304.153 344.644 304.521 345.344 305.257 C 346.08 305.957 346.459 306.788 346.459 307.761 C 346.459 308.734 346.08 309.599 345.344 310.335 C 344.644 311.035 343.813 311.38 342.841 311.38 Z M 332.897 300.392 L 326.502 293.296 C 326.087 292.834 325.873 292.323 325.873 291.778 C 325.873 291.22 326.087 290.733 326.502 290.318 C 327.379 289.428 328.376 289.452 329.491 290.378 L 336.516 296.773 L 332.897 300.392 Z M 333.799 383.26 C 335.567 383.26 337.62 382.264 339.993 380.282 C 342.354 378.324 344.692 375.809 347.005 372.7 C 349.331 369.639 351.229 366.459 352.712 363.172 C 354.243 366.459 356.142 369.639 358.408 372.7 C 360.734 375.809 363.071 378.324 365.432 380.282 C 367.841 382.264 369.906 383.26 371.627 383.26 C 373.11 383.26 374.522 382.477 375.862 380.9 C 377.25 379.368 378.247 377.221 378.853 374.433 C 380.336 375.501 381.581 376.272 382.602 376.734 C 383.67 377.245 384.808 377.494 386.019 377.494 C 387.965 377.494 389.449 376.841 390.457 375.548 C 391.477 374.254 391.987 372.333 391.987 369.782 C 391.987 365.332 390.457 359.138 387.407 351.212 C 390.279 352.054 393.589 352.766 397.351 353.372 C 401.1 353.929 404.339 354.202 407.08 354.202 C 409.999 354.202 412.242 353.609 413.819 352.399 C 415.445 351.188 416.252 349.551 416.252 347.462 C 416.252 346.253 415.98 345.006 415.422 343.713 C 414.863 342.408 414.057 341.115 412.989 339.81 C 415.766 339.121 418.044 338.124 419.8 336.819 C 421.603 335.526 422.517 333.995 422.517 332.239 C 422.517 329.878 420.82 327.28 417.439 324.443 C 414.057 321.572 409.169 318.938 402.773 316.529 C 409.169 314.061 414.057 311.427 417.439 308.604 C 420.82 305.767 422.517 303.18 422.517 300.807 C 422.517 299.052 421.603 297.52 419.8 296.228 C 418.044 294.922 415.766 293.925 412.989 293.237 C 414.057 291.932 414.863 290.639 415.422 289.346 C 415.98 288.041 416.252 286.794 416.252 285.584 C 416.252 283.496 415.445 281.859 413.819 280.648 C 412.242 279.45 409.999 278.844 407.08 278.844 C 404.339 278.844 401.1 279.141 397.351 279.746 C 393.589 280.304 390.279 280.992 387.407 281.834 C 390.457 273.908 391.987 267.715 391.987 263.265 C 391.987 260.714 391.477 258.792 390.457 257.498 C 389.449 256.205 387.965 255.553 386.019 255.553 C 384.808 255.553 383.67 255.802 382.602 256.312 C 381.581 256.775 380.336 257.546 378.853 258.613 C 378.247 255.825 377.25 253.678 375.862 252.147 C 374.522 250.569 373.11 249.786 371.627 249.786 C 369.906 249.786 367.841 250.783 365.432 252.765 C 363.071 254.722 360.734 257.237 358.408 260.346 C 356.142 263.408 354.243 266.588 352.712 269.874 C 351.229 266.588 349.331 263.408 347.005 260.346 C 344.692 257.237 342.354 254.722 339.993 252.765 C 337.62 250.783 335.567 249.786 333.799 249.786 C 332.363 249.786 330.951 250.569 329.563 252.147 C 328.175 253.678 327.178 255.825 326.573 258.613 C 325.09 257.546 323.808 256.775 322.74 256.312 C 321.732 255.802 320.617 255.553 319.406 255.553 C 317.46 255.553 315.977 256.205 314.956 257.498 C 313.937 258.792 313.426 260.714 313.426 263.265 C 313.426 267.715 314.956 273.908 318.018 281.834 C 315.146 280.992 311.836 280.304 308.074 279.746 C 304.325 279.141 301.074 278.844 298.345 278.844 C 295.426 278.844 293.148 279.45 291.534 280.648 C 289.956 281.859 289.161 283.496 289.161 285.584 C 289.161 286.794 289.446 288.041 290.004 289.346 C 290.597 290.639 291.416 291.932 292.436 293.237 C 289.647 293.925 287.357 294.922 285.554 296.228 C 283.786 297.52 282.908 299.052 282.908 300.807 C 282.908 303.18 284.605 305.767 287.986 308.604 C 291.368 311.427 296.256 314.061 302.652 316.529 C 296.256 318.938 291.368 321.572 287.986 324.443 C 284.605 327.28 282.908 329.878 282.908 332.239 C 282.908 333.995 283.786 335.526 285.554 336.819 C 287.357 338.124 289.647 339.121 292.436 339.81 C 291.416 341.115 290.597 342.408 290.004 343.713 C 289.446 345.006 289.161 346.253 289.161 347.462 C 289.161 349.551 289.956 351.188 291.534 352.399 C 293.148 353.609 295.426 354.202 298.345 354.202 C 301.074 354.202 304.325 353.929 308.074 353.372 C 311.836 352.766 315.146 352.054 318.018 351.212 C 314.956 359.138 313.426 365.332 313.426 369.782 C 313.426 372.333 313.937 374.254 314.956 375.548 C 315.977 376.841 317.46 377.494 319.406 377.494 C 320.617 377.494 321.732 377.245 322.74 376.734 C 323.808 376.272 325.09 375.501 326.573 374.433 C 327.178 377.221 328.175 379.368 329.563 380.9 C 330.951 382.477 332.363 383.26 333.799 383.26 Z M 352.712 343.227 C 347.801 343.227 343.303 342.016 339.221 339.607 C 335.187 337.199 331.971 333.971 329.563 329.937 C 327.154 325.915 325.944 321.441 325.944 316.529 C 325.944 311.605 327.154 307.143 329.563 303.109 C 331.971 299.075 335.187 295.847 339.221 293.439 C 343.303 291.03 347.801 289.832 352.712 289.832 C 357.625 289.832 362.098 291.03 366.132 293.439 C 370.202 295.847 373.454 299.075 375.862 303.109 C 378.271 307.143 379.482 311.605 379.482 316.529 C 379.482 321.441 378.271 325.915 375.862 329.937 C 373.454 333.971 370.202 337.199 366.132 339.607 C 362.098 342.016 357.625 343.227 352.712 343.227 Z M 352.712 337.934 C 356.651 337.934 360.247 336.986 363.487 335.087 C 366.738 333.141 369.324 330.543 371.27 327.303 C 373.216 324.052 374.189 320.469 374.189 316.529 C 374.189 312.578 373.216 308.995 371.27 305.743 C 369.324 302.504 366.738 299.929 363.487 298.031 C 360.247 296.085 356.651 295.112 352.712 295.112 C 348.773 295.112 345.178 296.085 341.938 298.031 C 338.688 299.929 336.089 302.504 334.143 305.743 C 332.197 308.995 331.224 312.578 331.224 316.529 C 331.224 320.469 332.197 324.052 334.143 327.303 C 336.089 330.543 338.688 333.141 341.938 335.087 C 345.178 336.986 348.773 337.934 352.712 337.934 Z M 378.923 342.74 C 378.046 343.619 377.049 343.594 375.933 342.669 L 368.909 336.273 L 372.528 332.655 L 378.923 339.75 C 379.339 340.213 379.552 340.723 379.552 341.269 C 379.552 341.826 379.339 342.313 378.923 342.74 Z M 351.882 319.021 C 350.861 319.021 349.971 318.676 349.236 317.989 C 348.536 317.241 348.192 316.387 348.192 315.413 C 348.192 314.441 348.536 313.598 349.236 312.91 C 349.971 312.163 350.861 311.795 351.882 311.795 C 352.855 311.795 353.685 312.163 354.374 312.91 C 355.121 313.598 355.489 314.441 355.489 315.413 C 355.489 316.387 355.121 317.241 354.374 317.989 C 353.685 318.676 352.855 319.021 351.882 319.021 Z M 354.659 307.203 C 353.638 307.203 352.76 306.859 352.012 306.159 C 351.325 305.423 350.968 304.569 350.968 303.595 C 350.968 302.623 351.325 301.78 352.012 301.092 C 352.76 300.345 353.638 299.977 354.659 299.977 C 355.632 299.977 356.462 300.345 357.162 301.092 C 357.898 301.78 358.277 302.623 358.277 303.595 C 358.277 304.569 357.898 305.423 357.162 306.159 C 356.462 306.859 355.632 307.203 354.659 307.203 Z M 339.708 293.795 L 327.676 268.201 C 327.036 266.907 327.332 265.959 328.59 265.353 C 329.788 264.795 330.714 265.116 331.367 266.327 L 344.857 291.98 L 339.708 293.795 Z M 403.39 336.89 L 376.206 328.478 L 377.606 323.197 L 404.648 332.999 C 406.036 333.461 406.499 334.339 406.036 335.644 C 405.621 336.89 404.742 337.305 403.39 336.89 Z M 349.924 291.636 L 350.624 281.621 C 350.719 280.186 351.407 279.461 352.712 279.461 C 354.006 279.461 354.706 280.186 354.8 281.621 L 355.489 291.636 L 349.924 291.636 Z M 377.666 319.305 L 377.666 313.741 L 387.68 314.441 C 389.116 314.536 389.84 315.224 389.84 316.529 C 389.84 317.822 389.116 318.511 387.68 318.606 L 377.666 319.305 Z M 372.528 300.392 L 368.909 296.773 L 375.933 290.378 C 377.049 289.452 378.046 289.428 378.923 290.318 C 379.339 290.733 379.552 291.22 379.552 291.778 C 379.552 292.323 379.339 292.834 378.923 293.296 L 372.528 300.392 Z M 377.606 309.849 L 376.206 304.569 L 403.39 296.157 C 404.742 295.74 405.621 296.157 406.036 297.402 C 406.499 298.707 406.036 299.585 404.648 300.048 L 377.606 309.849 Z M 365.717 293.795 L 360.567 291.98 L 374.058 266.327 C 374.699 265.116 375.637 264.795 376.835 265.353 C 378.093 265.959 378.389 266.907 377.736 268.201 L 365.717 293.795 Z" style="stroke-width: 1; filter: url(&quot;#filter-0&quot;); fill: rgb(69, 56, 39); opacity: 0.9; transform-origin: 352.706px 316.523px;" id="object-3" transform="matrix(0.95311624, 0.30260402, -0.30260402, 0.95311624, 0.00005638, 0.00003034)"/></svg>