<?xml version="1.0" encoding="utf-8"?>
<svg xmlns="http://www.w3.org/2000/svg" viewBox="40.8218 234.3842 180.8863 175.2975" width="180.886px" height="175.298px" preserveAspectRatio="none"><defs><filter id="filter-0" primitiveUnits="objectBoundingBox"><title>stamp</title><feTurbulence result="turbulence-0" baseFrequency="2" type="fractalNoise" numOctaves="1" seed="74" x="0%"/><feDisplacementMap result="displacement-map-0" in="SourceGraphic" in2="turbulence-0" scale="0.01"/><feTurbulence result="turbulence-2" baseFrequency="0.57" type="turbulence" numOctaves="5" seed="96"/><feComponentTransfer result="component-transfer-2" in="turbulence-2"><feFuncR/><feFuncA type="gamma" exponent="1.06" offset="-1" amplitude="1.89"/></feComponentTransfer><feTurbulence result="turbulence-1" baseFrequency="0.4" type="turbulence" numOctaves="4" seed="54"/><feComponentTransfer result="component-transfer-1" in="turbulence-1"><feFuncR/><feFuncA type="gamma" exponent="0.58" offset="-1" amplitude="1.7"/></feComponentTransfer><feTurbulence result="turbulence-3" baseFrequency="0.3" type="turbulence" numOctaves="4" seed="28"/><feComponentTransfer result="component-transfer-3" in="turbulence-3"><feFuncR/><feFuncA type="gamma" exponent="1.06" offset="-1" amplitude="1.89"/></feComponentTransfer><feTurbulence result="turbulence-4" baseFrequency="0.02" type="turbulence" numOctaves="2" seed="48"/><feComponentTransfer result="component-transfer-0" in="turbulence-4"><feFuncR/><feFuncA type="gamma" exponent="0.21" offset="-0.89" amplitude="1.17"/></feComponentTransfer><feMerge result="merge-0"><feMergeNode in="component-transfer-2"/><feMergeNode in="component-transfer-1"/><feMergeNode in="component-transfer-3"/><feMergeNode in="component-transfer-0"/></feMerge><feComposite result="composite-0" in="displacement-map-0" in2="merge-0" operator="arithmetic" k1="-2" k2="1"/></filter></defs><path d="M 131.264 381.559 C 121.639 381.559 112.639 380.215 104.265 377.536 C 95.891 374.848 88.533 371.123 82.202 366.352 C 75.901 361.619 70.974 356.088 67.402 349.757 C 63.873 343.424 62.118 336.621 62.118 329.366 C 62.118 324.235 63.011 319.124 64.817 314.034 C 66.664 308.943 69.25 303.956 72.575 299.061 C 72.175 297.183 71.836 295.058 71.548 292.689 C 71.272 290.328 71.128 288.244 71.128 286.438 C 71.128 281.79 72.175 277.675 74.257 274.113 C 76.383 270.502 79.246 267.68 82.858 265.627 C 86.512 263.543 90.596 262.507 95.121 262.507 C 98.775 262.507 102.264 263.163 105.589 264.488 C 108.955 265.811 111.983 267.639 114.671 269.958 C 117.35 272.287 119.474 274.996 121.044 278.075 C 122.285 278.198 123.825 278.3 125.671 278.383 C 127.56 278.454 129.418 278.495 131.264 278.495 C 133.144 278.495 135.011 278.454 136.857 278.383 C 138.694 278.3 140.245 278.198 141.486 278.075 C 143.087 274.996 145.232 272.287 147.92 269.958 C 150.65 267.597 153.688 265.77 157.064 264.488 C 160.429 263.163 163.879 262.507 167.398 262.507 C 172.047 262.507 176.183 263.543 179.785 265.627 C 183.398 267.68 186.22 270.502 188.271 274.113 C 190.355 277.675 191.391 281.79 191.391 286.438 C 191.391 288.244 191.258 290.328 190.97 292.689 C 190.735 295.058 190.396 297.183 189.955 299.061 C 193.28 303.956 195.846 308.943 197.651 314.034 C 199.488 319.124 200.412 324.235 200.412 329.366 C 200.412 336.621 198.626 343.424 195.065 349.757 C 191.536 356.088 186.599 361.619 180.267 366.352 C 173.977 371.123 166.64 374.848 158.265 377.536 C 149.88 380.215 140.88 381.559 131.264 381.559 Z M 115.328 319.082 C 114.25 319.082 113.307 318.642 112.506 317.77 C 111.736 316.846 111.356 315.758 111.356 314.516 C 111.356 313.233 111.736 312.156 112.506 311.274 C 113.307 310.39 114.25 309.949 115.328 309.949 C 116.416 309.949 117.329 310.39 118.098 311.274 C 118.899 312.156 119.299 313.233 119.299 314.516 C 119.299 315.758 118.899 316.846 118.098 317.77 C 117.329 318.642 116.416 319.082 115.328 319.082 Z M 98.128 301.955 C 95.891 301.955 93.961 301.011 92.36 299.123 C 90.791 297.244 90.011 294.956 90.011 292.267 C 90.011 289.62 90.791 287.362 92.36 285.473 C 93.961 283.585 95.891 282.651 98.128 282.651 C 100.376 282.651 102.284 283.585 103.845 285.473 C 105.404 287.362 106.184 289.62 106.184 292.267 C 106.184 294.956 105.404 297.244 103.845 299.123 C 102.284 301.011 100.376 301.955 98.128 301.955 Z M 131.264 376.756 C 140.245 376.756 148.619 375.525 156.397 373.083 C 164.176 370.682 170.99 367.316 176.84 362.985 C 182.73 358.654 187.328 353.625 190.612 347.889 C 193.937 342.153 195.599 335.985 195.599 329.366 C 195.599 324.563 194.696 319.77 192.9 314.998 C 191.134 310.226 188.425 305.178 184.783 299.841 C 185.101 298.764 185.398 297.419 185.686 295.818 C 185.963 294.217 186.178 292.585 186.342 290.943 C 186.506 289.261 186.579 287.762 186.579 286.438 C 186.579 282.673 185.757 279.358 184.115 276.515 C 182.474 273.631 180.205 271.384 177.322 269.782 C 174.479 268.141 171.175 267.309 167.398 267.309 C 164.155 267.309 161.004 267.977 157.957 269.301 C 154.92 270.624 152.23 272.431 149.902 274.708 C 147.582 276.956 145.878 279.542 144.791 282.467 C 144.391 282.673 142.831 282.867 140.101 283.073 C 137.382 283.226 134.427 283.309 131.264 283.309 C 128.094 283.309 125.149 283.226 122.429 283.073 C 119.7 282.867 118.139 282.673 117.728 282.467 C 116.652 279.542 114.969 276.956 112.68 274.708 C 110.403 272.431 107.734 270.624 104.686 269.301 C 101.638 267.977 98.456 267.309 95.121 267.309 C 91.478 267.309 88.195 268.141 85.259 269.782 C 82.375 271.384 80.097 273.631 78.404 276.515 C 76.762 279.358 75.942 282.673 75.942 286.438 C 75.942 287.762 76.023 289.261 76.187 290.943 C 76.341 292.585 76.567 294.217 76.844 295.818 C 77.121 297.419 77.429 298.764 77.747 299.841 C 74.105 305.178 71.374 310.226 69.569 314.998 C 67.804 319.77 66.92 324.563 66.92 329.366 C 66.92 335.985 68.562 342.153 71.857 347.889 C 75.181 353.625 79.769 358.654 85.629 362.985 C 91.519 367.316 98.354 370.682 106.133 373.083 C 113.943 375.525 122.326 376.756 131.264 376.756 Z M 147.202 319.082 C 146.114 319.082 145.17 318.642 144.37 317.77 C 143.61 316.846 143.231 315.758 143.231 314.516 C 143.231 313.233 143.61 312.156 144.37 311.274 C 145.17 310.39 146.114 309.949 147.202 309.949 C 148.281 309.949 149.203 310.39 149.963 311.274 C 150.763 312.156 151.163 313.233 151.163 314.516 C 151.163 315.758 150.763 316.846 149.963 317.77 C 149.203 318.642 148.281 319.082 147.202 319.082 Z M 164.392 301.955 C 162.195 301.955 160.286 301.011 158.685 299.123 C 157.116 297.244 156.335 294.956 156.335 292.267 C 156.335 289.62 157.116 287.362 158.685 285.473 C 160.286 283.585 162.195 282.651 164.392 282.651 C 166.64 282.651 168.548 283.585 170.107 285.473 C 171.708 287.362 172.509 289.62 172.509 292.267 C 172.509 294.956 171.708 297.244 170.107 299.123 C 168.548 301.011 166.64 301.955 164.392 301.955 Z M 172.632 322.993 C 174.521 322.993 176.142 323.793 177.507 325.404 C 178.902 326.964 179.61 328.626 179.61 330.392 C 179.61 332.598 178.625 334.784 176.665 336.949 C 174.735 339.073 172.109 341.095 168.783 343.014 C 165.5 344.944 161.755 346.647 157.536 348.136 C 153.37 349.613 149.019 350.773 144.493 351.614 C 139.957 352.455 135.555 352.876 131.264 352.876 C 126.975 352.876 122.563 352.455 118.037 351.614 C 113.501 350.773 109.14 349.613 104.921 348.136 C 100.756 346.647 97.01 344.944 93.685 343.014 C 90.39 341.095 87.773 339.073 85.804 336.949 C 83.885 334.784 82.92 332.598 82.92 330.392 C 82.92 328.626 83.618 326.964 85.023 325.404 C 86.429 323.793 88.05 322.993 89.898 322.993 C 91.181 322.993 92.935 323.392 95.182 324.193 C 97.43 324.963 100.212 325.846 103.547 326.841 C 106.913 327.847 110.885 328.749 115.451 329.55 C 120.018 330.31 125.292 330.689 131.264 330.689 C 137.238 330.689 142.513 330.31 147.079 329.55 C 151.646 328.749 155.597 327.847 158.922 326.841 C 162.287 325.846 165.1 324.963 167.337 324.193 C 169.584 323.392 171.349 322.993 172.632 322.993 Z M 94.342 338.273 C 99.278 341.197 105.024 343.559 111.602 345.364 C 118.17 347.171 124.728 348.073 131.264 348.073 C 137.802 348.073 144.349 347.171 150.928 345.364 C 157.495 343.559 163.252 341.197 168.178 338.273 C 166.301 335.421 164.053 333.101 161.446 331.294 C 156.562 332.66 151.543 333.696 146.412 334.425 C 141.281 335.143 136.232 335.502 131.264 335.502 C 126.288 335.502 121.239 335.143 116.107 334.425 C 110.976 333.696 105.969 332.66 101.073 331.294 C 98.477 333.101 96.23 335.421 94.342 338.273 Z" style="stroke-width: 1; filter: url(&quot;#filter-0&quot;); fill: rgb(69, 56, 39); opacity: 0.9; transform-origin: 131.265px 322.033px;" id="object-2" transform="matrix(0.83725703, -0.54680902, 0.54680902, 0.83725703, -0.00000191, -0.00000544)"/></svg>