<?xml version="1.0" encoding="utf-8"?>
<svg xmlns="http://www.w3.org/2000/svg" viewBox="225.9601 15.7441 186.8277 187.9318" width="186.828px" height="187.932px" preserveAspectRatio="none"><defs><filter id="filter-0" primitiveUnits="objectBoundingBox"><title>stamp</title><feTurbulence result="turbulence-0" baseFrequency="2" type="fractalNoise" numOctaves="1" seed="74" x="0%"/><feDisplacementMap result="displacement-map-0" in="SourceGraphic" in2="turbulence-0" scale="0.01"/><feTurbulence result="turbulence-2" baseFrequency="0.57" type="turbulence" numOctaves="5" seed="96"/><feComponentTransfer result="component-transfer-2" in="turbulence-2"><feFuncR/><feFuncA type="gamma" exponent="1.06" offset="-1" amplitude="1.89"/></feComponentTransfer><feTurbulence result="turbulence-1" baseFrequency="0.4" type="turbulence" numOctaves="4" seed="54"/><feComponentTransfer result="component-transfer-1" in="turbulence-1"><feFuncR/><feFuncA type="gamma" exponent="0.58" offset="-1" amplitude="1.7"/></feComponentTransfer><feTurbulence result="turbulence-3" baseFrequency="0.3" type="turbulence" numOctaves="4" seed="28"/><feComponentTransfer result="component-transfer-3" in="turbulence-3"><feFuncR/><feFuncA type="gamma" exponent="1.06" offset="-1" amplitude="1.89"/></feComponentTransfer><feTurbulence result="turbulence-4" baseFrequency="0.02" type="turbulence" numOctaves="2" seed="48"/><feComponentTransfer result="component-transfer-0" in="turbulence-4"><feFuncR/><feFuncA type="gamma" exponent="0.21" offset="-0.89" amplitude="1.17"/></feComponentTransfer><feMerge result="merge-0"><feMergeNode in="component-transfer-2"/><feMergeNode in="component-transfer-1"/><feMergeNode in="component-transfer-3"/><feMergeNode in="component-transfer-0"/></feMerge><feComposite result="composite-0" in="displacement-map-0" in2="merge-0" operator="arithmetic" k1="-2" k2="1"/></filter></defs><path d="M 318.056 130.046 C 303.214 130.046 291.156 128.907 281.87 126.62 C 272.618 124.321 265.823 120.647 261.462 115.587 C 257.145 110.527 254.993 103.833 254.993 95.516 C 254.993 87.854 256.605 80.742 259.816 74.184 C 263.074 67.58 267.558 61.799 273.284 56.818 C 279.053 51.848 285.747 47.972 293.354 45.199 C 301.017 42.427 309.244 41.041 318.056 41.041 C 327.037 41.041 335.489 42.472 343.411 45.334 C 351.334 48.197 358.309 52.13 364.339 57.145 C 370.413 62.171 375.168 67.952 378.606 74.51 C 382.032 81.08 383.755 88.079 383.755 95.516 C 383.755 103.698 381.446 110.346 376.825 115.451 C 372.193 120.523 365.049 124.219 355.357 126.552 C 345.677 128.885 333.236 130.046 318.056 130.046 Z M 318.056 178.379 C 307.35 178.379 299.168 176.712 293.489 173.365 C 287.854 170.063 285.037 165.284 285.037 159.03 C 285.037 157.318 285.24 155.255 285.635 152.832 C 286.029 150.364 286.604 147.727 287.347 144.91 L 288.204 141.664 C 288.598 140.222 288.891 138.677 289.06 137.043 C 289.286 135.421 289.443 133.438 289.522 131.106 C 289.612 128.727 289.657 125.752 289.657 122.19 L 294.943 123.25 C 294.943 126.946 294.875 129.978 294.74 132.356 C 294.66 134.734 294.503 136.74 294.278 138.362 C 294.063 139.996 293.748 141.54 293.354 142.994 L 292.497 146.228 C 291.798 148.865 291.247 151.289 290.852 153.485 C 290.491 155.695 290.322 157.542 290.322 159.03 C 290.322 163.571 292.723 167.043 297.512 169.465 C 302.313 171.888 309.165 173.094 318.056 173.094 C 326.992 173.094 333.833 171.888 338.589 169.465 C 343.388 167.043 345.79 163.571 345.79 159.03 C 345.79 157.542 345.587 155.695 345.192 153.485 C 344.842 151.289 344.313 148.865 343.603 146.228 L 342.747 142.994 C 342.352 141.54 342.048 139.996 341.823 138.362 C 341.609 136.694 341.429 134.666 341.292 132.288 C 341.203 129.876 341.158 126.811 341.158 123.115 L 346.443 122.056 C 346.443 125.797 346.488 128.862 346.579 131.24 C 346.668 133.618 346.815 135.59 347.04 137.179 C 347.254 138.768 347.547 140.255 347.897 141.664 L 348.754 144.91 C 349.508 147.727 350.071 150.364 350.477 152.832 C 350.872 155.255 351.063 157.318 351.063 159.03 C 351.063 165.284 348.223 170.063 342.556 173.365 C 336.92 176.712 328.75 178.379 318.056 178.379 Z M 276.258 110.696 C 281.228 110.696 285.24 108.87 288.271 105.219 C 291.359 101.569 292.891 97.094 292.891 91.82 C 292.891 87.639 291.9 84.089 289.927 81.182 C 287.944 78.275 284.879 76.832 280.743 76.832 C 277.306 76.832 274.275 77.734 271.637 79.537 C 269.034 81.34 267.006 83.74 265.553 86.727 C 264.11 89.725 263.377 93.048 263.377 96.7 C 263.377 100.836 264.572 104.205 266.949 106.808 C 269.361 109.4 272.471 110.696 276.258 110.696 Z M 278.759 69.89 C 280.348 69.89 282.085 69.305 283.978 68.11 C 285.871 66.926 287.505 65.518 288.869 63.884 C 290.233 62.26 290.908 60.762 290.908 59.399 C 290.908 58.204 290.434 57.213 289.465 56.423 C 288.541 55.634 287.392 55.241 286.029 55.241 C 284.181 55.241 282.377 55.759 280.608 56.818 C 278.85 57.832 277.374 59.128 276.19 60.717 C 275.041 62.295 274.478 63.93 274.478 65.597 C 274.478 66.836 274.872 67.872 275.661 68.707 C 276.495 69.496 277.532 69.89 278.759 69.89 Z M 322.405 118.956 C 325.798 118.956 328.886 118.145 331.658 116.511 C 334.475 114.843 336.695 112.59 338.329 109.772 C 339.997 106.955 340.83 103.856 340.83 100.464 C 340.83 97.071 339.997 93.995 338.329 91.223 C 336.695 88.405 334.475 86.185 331.658 84.551 C 328.886 82.884 325.798 82.039 322.405 82.039 C 319.025 82.039 315.915 82.884 313.097 84.551 C 310.28 86.185 308.037 88.405 306.369 91.223 C 304.735 93.995 303.923 97.071 303.923 100.464 C 303.923 103.856 304.735 106.955 306.369 109.772 C 308.037 112.59 310.28 114.843 313.097 116.511 C 315.915 118.145 319.025 118.956 322.405 118.956 Z M 316.535 70.556 C 319.791 70.556 322.766 70.026 325.448 68.966 C 328.131 67.872 330.272 66.419 331.85 64.616 C 333.484 62.767 334.295 60.739 334.295 58.542 C 334.295 56.289 333.484 54.271 331.85 52.456 C 330.272 50.654 328.131 49.222 325.448 48.175 C 322.766 47.07 319.791 46.518 316.535 46.518 C 313.278 46.518 310.28 47.07 307.553 48.175 C 304.871 49.222 302.707 50.654 301.084 52.456 C 299.496 54.271 298.706 56.289 298.706 58.542 C 298.706 60.739 299.496 62.767 301.084 64.616 C 302.707 66.419 304.871 67.872 307.553 68.966 C 310.28 70.026 313.278 70.556 316.535 70.556 Z M 367.843 109.445 C 369.342 109.445 370.592 108.893 371.607 107.8 C 372.621 106.65 373.117 105.264 373.117 103.631 C 373.117 101.478 372.418 99.585 371.01 97.962 C 369.647 96.283 368.08 95.449 366.322 95.449 C 364.609 95.449 363.2 96.001 362.096 97.094 C 361.037 98.153 360.507 99.517 360.507 101.196 C 360.507 103.44 361.239 105.377 362.693 107 C 364.148 108.634 365.86 109.445 367.843 109.445 Z M 357.476 88.18 C 360.822 88.18 363.482 86.998 365.465 84.62 C 367.482 82.196 368.497 79.424 368.497 76.303 C 368.497 73.395 367.619 70.6 365.86 67.918 C 364.148 65.224 361.915 63.028 359.188 61.315 C 356.462 59.545 353.598 58.666 350.601 58.666 C 347.176 58.666 344.335 59.906 342.094 62.363 C 339.839 64.785 338.723 67.558 338.723 70.691 C 338.723 73.632 339.67 76.449 341.563 79.142 C 343.502 81.825 345.913 84 348.821 85.678 C 351.728 87.346 354.613 88.18 357.476 88.18 Z" style="stroke-width: 1; filter: url(&quot;#filter-0&quot;); fill: rgb(69, 56, 39); opacity: 0.9; transform-origin: 319.374px 109.71px;" id="object-1" transform="matrix(0.76854402, 0.63979697, -0.63979697, 0.76854402, -0.00000239, -0.00000439)"/></svg>