<?xml version="1.0" encoding="utf-8"?>
<svg xmlns="http://www.w3.org/2000/svg" viewBox="28.1138 21.4217 182.2824 182.4767" width="182.282px" height="182.477px" preserveAspectRatio="none"><defs><filter id="filter-0" primitiveUnits="objectBoundingBox"><title>stamp</title><feTurbulence result="turbulence-0" baseFrequency="2" type="fractalNoise" numOctaves="1" seed="74" x="0%"/><feDisplacementMap result="displacement-map-0" in="SourceGraphic" in2="turbulence-0" scale="0.01"/><feTurbulence result="turbulence-2" baseFrequency="0.57" type="turbulence" numOctaves="5" seed="96"/><feComponentTransfer result="component-transfer-2" in="turbulence-2"><feFuncR/><feFuncA type="gamma" exponent="1.06" offset="-1" amplitude="1.89"/></feComponentTransfer><feTurbulence result="turbulence-1" baseFrequency="0.4" type="turbulence" numOctaves="4" seed="54"/><feComponentTransfer result="component-transfer-1" in="turbulence-1"><feFuncR/><feFuncA type="gamma" exponent="0.58" offset="-1" amplitude="1.7"/></feComponentTransfer><feTurbulence result="turbulence-3" baseFrequency="0.3" type="turbulence" numOctaves="4" seed="28"/><feComponentTransfer result="component-transfer-3" in="turbulence-3"><feFuncR/><feFuncA type="gamma" exponent="1.06" offset="-1" amplitude="1.89"/></feComponentTransfer><feTurbulence result="turbulence-4" baseFrequency="0.02" type="turbulence" numOctaves="2" seed="48"/><feComponentTransfer result="component-transfer-0" in="turbulence-4"><feFuncR/><feFuncA type="gamma" exponent="0.21" offset="-0.89" amplitude="1.17"/></feComponentTransfer><feMerge result="merge-0"><feMergeNode in="component-transfer-2"/><feMergeNode in="component-transfer-1"/><feMergeNode in="component-transfer-3"/><feMergeNode in="component-transfer-0"/></feMerge><feComposite result="composite-0" in="displacement-map-0" in2="merge-0" operator="arithmetic" k1="-2" k2="1"/></filter></defs><path d="M 97.449 193.93 L 90.913 161.734 L 59.838 172.057 L 70.241 141.035 L 38.098 134.46 L 62.505 112.667 L 38.098 90.861 L 70.241 84.299 L 59.838 53.276 L 90.913 63.586 L 97.449 31.39 L 119.322 56.091 L 141.061 31.39 L 147.596 63.586 L 178.672 53.276 L 168.402 84.299 L 200.412 90.861 L 176.005 112.667 L 200.412 134.46 L 168.402 141.035 L 178.672 172.057 L 147.596 161.734 L 141.061 193.93 L 119.322 169.403 L 97.449 193.93 Z M 119.322 138.221 C 111.986 138.221 105.718 136.06 100.383 131.726 L 104.251 127.124 C 108.518 130.552 113.453 132.273 119.322 132.273 C 125.057 132.273 129.991 130.552 134.259 127.124 L 138.127 131.726 C 132.926 136.06 126.524 138.221 119.322 138.221 Z M 97.048 107.505 C 95.448 107.505 93.981 106.772 92.781 105.318 C 91.58 103.811 91.047 101.984 91.047 99.85 C 91.047 97.716 91.714 95.915 92.914 94.448 C 94.114 92.995 95.448 92.261 97.048 92.261 C 98.782 92.261 100.116 92.995 101.316 94.448 C 102.517 95.915 103.05 97.716 103.05 99.85 C 103.05 101.984 102.517 103.811 101.316 105.318 C 100.116 106.772 98.782 107.505 97.048 107.505 Z M 119.322 165.642 C 126.657 165.642 133.459 164.295 139.861 161.588 C 146.263 158.827 151.864 155.012 156.666 150.171 C 161.6 145.276 165.468 139.648 168.136 133.3 C 170.803 126.884 172.27 120.002 172.27 112.667 C 172.27 105.318 170.803 98.463 168.136 92.114 C 165.468 85.699 161.6 80.071 156.666 75.229 C 151.864 70.335 146.263 66.534 139.861 63.826 C 133.459 61.065 126.657 59.678 119.322 59.678 C 111.986 59.678 105.051 61.065 98.649 63.826 C 92.247 66.534 86.645 70.335 81.711 75.229 C 76.909 80.071 73.042 85.699 70.374 92.114 C 67.573 98.463 66.24 105.318 66.24 112.667 C 66.24 120.002 67.573 126.884 70.374 133.3 C 73.042 139.648 76.909 145.276 81.711 150.171 C 86.645 155.012 92.247 158.827 98.649 161.588 C 105.051 164.295 111.986 165.642 119.322 165.642 Z M 119.055 123.523 C 117.454 123.523 115.587 123.137 113.186 122.35 L 115.32 116.881 C 116.788 117.348 117.988 117.588 119.055 117.588 C 119.855 117.588 120.522 117.375 120.922 116.961 C 121.456 116.495 121.722 115.868 121.722 115.081 C 121.722 113 121.189 111.106 120.122 109.386 C 119.188 107.612 118.121 105.785 117.054 103.904 C 115.987 101.984 115.587 99.77 115.587 97.262 C 115.587 95.235 115.987 93.315 117.054 91.487 C 117.988 89.66 119.322 88.26 120.922 87.26 L 123.856 92.581 C 123.189 92.888 122.656 93.541 122.256 94.528 C 121.856 95.475 121.589 96.382 121.589 97.262 C 121.589 98.103 121.856 98.983 122.122 99.93 C 122.523 100.864 123.189 102.237 124.123 104.064 C 124.923 105.478 125.723 107.092 126.39 108.906 C 127.191 110.733 127.591 112.787 127.591 115.081 C 127.591 117.535 126.79 119.562 125.19 121.176 C 123.589 122.75 121.589 123.523 119.055 123.523 Z M 141.461 107.505 C 139.727 107.505 138.394 106.772 137.193 105.318 C 135.993 103.811 135.46 101.984 135.46 99.85 C 135.46 97.716 135.993 95.915 137.193 94.448 C 138.394 92.995 139.861 92.261 141.461 92.261 C 143.062 92.261 144.529 92.995 145.729 94.448 C 146.93 95.915 147.463 97.716 147.463 99.85 C 147.463 101.984 146.93 103.811 145.729 105.318 C 144.529 106.772 143.062 107.505 141.461 107.505 Z" style="stroke-width: 1; filter: url(&quot;#filter-0&quot;); fill: rgb(69, 56, 39); opacity: 0.9; transform-origin: 119.255px 112.66px;" id="object-0" transform="matrix(0.99131298, 0.13152698, -0.13152698, 0.99131298, 0.00000155, -0.00000183)"/></svg>