<svg width="234" height="89" viewBox="0 0 234 89" fill="none" xmlns="http://www.w3.org/2000/svg">
<path d="M18.9946 36.2359L18.6537 36.1835V8.4406C18.6537 7.95113 18.5838 7.6015 18.4439 7.39173C18.3041 7.18195 18.103 7.0421 17.8408 6.97217L17.1853 6.81484C16.8531 6.70995 16.6171 6.56136 16.4773 6.36907C16.3374 6.17677 16.2675 5.9233 16.2675 5.60863C16.2675 5.259 16.3636 4.9793 16.5559 4.76953C16.7482 4.55975 17.1153 4.34998 17.6573 4.1402L24.1603 1.80644C24.9295 1.49178 25.5501 1.27326 26.0221 1.15089C26.5115 1.01104 26.9835 0.941116 27.4381 0.941116C28.1023 0.941116 28.6093 1.13341 28.9589 1.518C29.326 1.90259 29.5096 2.39207 29.5096 2.98643V35.659C29.5096 36.2883 29.562 36.7429 29.6669 37.0226C29.7718 37.2848 29.9466 37.4683 30.1914 37.5732L30.8469 37.8354C31.1965 37.9753 31.45 38.1589 31.6074 38.3861C31.7647 38.6134 31.8433 38.8756 31.8433 39.1728C31.8433 39.6098 31.7035 39.9507 31.4238 40.1954C31.1616 40.4227 30.7333 40.5363 30.1389 40.5363H22.823C21.8091 40.5363 20.9175 40.1692 20.1483 39.435C19.3792 38.7008 18.9946 37.8267 18.9946 36.8128V36.2359ZM0.481857 28.8675C0.481857 26.053 1.05 23.5969 2.18629 21.4992C3.32257 19.3839 4.87841 17.7407 6.8538 16.5694C8.82919 15.3982 11.0668 14.8125 13.5666 14.8125C15.6119 14.8125 17.3688 15.2321 18.8372 16.0712C20.3057 16.8928 21.5643 18.1602 22.6132 19.8734L20.1221 21.5516C19.4054 20.4678 18.7061 19.6986 18.0244 19.2441C17.3426 18.7721 16.5996 18.5361 15.7955 18.5361C14.9739 18.5361 14.2484 18.8332 13.6191 19.4276C12.9897 20.022 12.5003 21.0009 12.1506 22.3645C11.8185 23.7105 11.6524 25.5286 11.6524 27.8186C11.6524 29.8814 11.8272 31.5422 12.1769 32.8008C12.5265 34.042 12.9985 34.9423 13.5928 35.5017C14.2047 36.0611 14.8952 36.3408 15.6644 36.3408C16.5909 36.3408 17.4387 36.0349 18.2079 35.423C18.9771 34.7937 19.7026 33.7973 20.3843 32.4337L22.0101 34.007C20.6116 36.2621 19.0295 38.0365 17.2639 39.3301C15.5158 40.6062 13.5054 41.2443 11.2329 41.2443C9.15259 41.2443 7.29957 40.7286 5.67381 39.6972C4.06553 38.6483 2.79813 37.1974 1.87162 35.3444C0.945112 33.4913 0.481857 31.3324 0.481857 28.8675Z" fill="#453827"/>
<path d="M47.2147 37.1275V36.5768L46.4281 36.6292V19.3227C46.4281 18.6584 46.2533 18.134 45.9036 17.7494C45.554 17.3473 45.082 17.1463 44.4876 17.1463C44.0157 17.1463 43.6048 17.2687 43.2552 17.5134C42.9231 17.7581 42.757 18.0816 42.757 18.4836V21.3418C42.757 22.7578 42.2588 23.8766 41.2624 24.6982C40.2834 25.5024 38.8936 25.9044 37.0931 25.9044C35.6072 25.9044 34.4884 25.581 33.7367 24.9342C32.985 24.2874 32.6091 23.3697 32.6091 22.1809C32.6091 21.0446 33.1161 19.9171 34.13 18.7983C35.1439 17.662 36.6648 16.718 38.6926 15.9663C40.7379 15.2146 43.2989 14.8388 46.3756 14.8388C50.0292 14.8388 52.7388 15.5118 54.5044 16.8579C56.2875 18.2039 57.1791 20.0569 57.1791 22.4169V35.0297C57.1791 35.3793 57.2665 35.6678 57.4413 35.895C57.6161 36.1048 57.8696 36.2097 58.2017 36.2097C58.4989 36.2097 58.7437 36.131 58.936 35.9737C59.1283 35.7989 59.2943 35.5978 59.4342 35.3706C59.5391 35.2482 59.644 35.1521 59.7488 35.0821C59.8712 35.0122 60.0111 34.9773 60.1684 34.9773C60.4306 34.9773 60.6142 35.0734 60.7191 35.2657C60.8414 35.4405 60.9026 35.6765 60.9026 35.9737C60.9026 36.6729 60.6317 37.4334 60.0897 38.255C59.5478 39.0766 58.7349 39.7846 57.6511 40.379C56.5672 40.9559 55.2037 41.2443 53.5605 41.2443C51.6375 41.2443 50.0992 40.851 48.9454 40.0643C47.7916 39.2777 47.2147 38.2987 47.2147 37.1275ZM31.5865 35.0035C31.5865 32.661 32.6353 30.808 34.7331 29.4444C36.8308 28.0809 39.8551 27.3991 43.8059 27.3991C44.8023 27.3991 45.6589 27.4778 46.3756 27.6351C47.0924 27.7749 47.6867 27.976 48.1587 28.2382L47.3721 30.1786C46.9875 29.9689 46.6291 29.8203 46.297 29.7329C45.9648 29.6454 45.5977 29.6017 45.1956 29.6017C44.3565 29.6017 43.6923 29.9077 43.2028 30.5195C42.7133 31.1139 42.4686 31.9967 42.4686 33.1679C42.4686 34.3567 42.7133 35.257 43.2028 35.8688C43.6923 36.4632 44.3303 36.7603 45.117 36.7603C45.6065 36.7603 46.0697 36.638 46.5067 36.3932C46.9613 36.1485 47.3021 35.8601 47.5294 35.5279L48.1063 37.3372C47.2847 38.5784 46.0959 39.5399 44.5401 40.2216C42.9843 40.9034 41.3148 41.2443 39.5317 41.2443C37.1543 41.2443 35.2313 40.6499 33.7629 39.4612C32.3119 38.2725 31.5865 36.7866 31.5865 35.0035Z" fill="#453827"/>
<path d="M70.8125 16.8316V35.659C70.8125 36.2883 70.8649 36.7341 70.9698 36.9963C71.0747 37.2586 71.2495 37.4509 71.4942 37.5732L72.0973 37.8617C72.6218 38.1414 72.884 38.5522 72.884 39.0941C72.884 40.0556 72.3071 40.5363 71.1534 40.5363H59.3272C58.7329 40.5363 58.2958 40.4227 58.0161 40.1954C57.7539 39.9507 57.6228 39.6098 57.6228 39.1728C57.6228 38.8756 57.6927 38.6134 57.8326 38.3861C57.9899 38.1589 58.2521 37.9753 58.6193 37.8354L59.2486 37.5732C59.5108 37.4683 59.6943 37.2848 59.7992 37.0226C59.9041 36.7429 59.9566 36.2883 59.9566 35.659V22.2858C59.9566 21.7963 59.8866 21.4467 59.7468 21.2369C59.6069 21.0272 59.4059 20.8873 59.1437 20.8174L58.4881 20.66C58.156 20.5552 57.9113 20.4066 57.7539 20.2143C57.6141 20.022 57.5442 19.7685 57.5442 19.4538C57.5442 19.1042 57.6403 18.8245 57.8326 18.6147C58.0424 18.405 58.4182 18.1952 58.9601 17.9854L65.4632 15.6516C66.2324 15.337 66.8529 15.1185 67.3249 14.9961C67.7969 14.8562 68.2602 14.7863 68.7147 14.7863C69.3965 14.7863 69.9122 14.9786 70.2618 15.3632C70.6289 15.7478 70.8125 16.2373 70.8125 16.8316ZM69.8947 23.1511L68.5049 21.6827L69.344 20.9223C71.7215 18.6672 73.8018 17.0851 75.5849 16.1761C77.3854 15.2671 79.0287 14.8125 80.5146 14.8125C82.7347 14.8125 84.5266 15.538 85.8901 16.989C87.2537 18.4399 87.9354 20.3891 87.9354 22.8365V35.659C87.9354 36.2883 87.9879 36.7429 88.0928 37.0226C88.1976 37.2848 88.3812 37.4683 88.6434 37.5732L89.2728 37.8354C89.6399 37.9753 89.8933 38.1589 90.0332 38.3861C90.1905 38.6134 90.2692 38.8756 90.2692 39.1728C90.2692 39.6098 90.1293 39.9507 89.8496 40.1954C89.5874 40.4227 89.1591 40.5363 88.5648 40.5363H76.7649C75.5936 40.5363 75.008 40.0556 75.008 39.0941C75.008 38.5522 75.2702 38.1414 75.7946 37.8617L76.3978 37.5732C76.66 37.4509 76.8348 37.2586 76.9222 36.9963C77.0271 36.7341 77.0795 36.2883 77.0795 35.659V24.3311C77.0795 23.2123 76.826 22.382 76.3191 21.84C75.8296 21.2806 75.1304 21.0009 74.2213 21.0009C73.6619 21.0009 73.0763 21.1146 72.4645 21.3418C71.8526 21.5691 71.3019 21.9012 70.8125 22.3383L69.8947 23.1511Z" fill="#453827"/>
<path d="M107.236 36.2359L106.895 36.1835V8.4406C106.895 7.95113 106.825 7.6015 106.685 7.39173C106.545 7.18195 106.344 7.0421 106.082 6.97217L105.426 6.81484C105.094 6.70995 104.858 6.56136 104.718 6.36907C104.578 6.17677 104.509 5.9233 104.509 5.60863C104.509 5.259 104.605 4.9793 104.797 4.76953C104.989 4.55975 105.356 4.34998 105.898 4.1402L112.401 1.80644C113.171 1.49178 113.791 1.27326 114.263 1.15089C114.753 1.01104 115.225 0.941116 115.679 0.941116C116.343 0.941116 116.85 1.13341 117.2 1.518C117.567 1.90259 117.751 2.39207 117.751 2.98643V35.659C117.751 36.2883 117.803 36.7429 117.908 37.0226C118.013 37.2848 118.188 37.4683 118.432 37.5732L119.088 37.8354C119.438 37.9753 119.691 38.1589 119.848 38.3861C120.006 38.6134 120.084 38.8756 120.084 39.1728C120.084 39.6098 119.945 39.9507 119.665 40.1954C119.403 40.4227 118.974 40.5363 118.38 40.5363H111.064C110.05 40.5363 109.159 40.1692 108.389 39.435C107.62 38.7008 107.236 37.8267 107.236 36.8128V36.2359ZM88.7229 28.8675C88.7229 26.053 89.291 23.5969 90.4273 21.4992C91.5636 19.3839 93.1195 17.7407 95.0948 16.5694C97.0702 15.3982 99.3078 14.8125 101.808 14.8125C103.853 14.8125 105.61 15.2321 107.078 16.0712C108.547 16.8928 109.805 18.1602 110.854 19.8734L108.363 21.5516C107.646 20.4678 106.947 19.6986 106.265 19.2441C105.584 18.7721 104.841 18.5361 104.037 18.5361C103.215 18.5361 102.489 18.8332 101.86 19.4276C101.231 20.022 100.741 21.0009 100.392 22.3645C100.06 23.7105 99.8935 25.5286 99.8935 27.8186C99.8935 29.8814 100.068 31.5422 100.418 32.8008C100.768 34.042 101.24 34.9423 101.834 35.5017C102.446 36.0611 103.136 36.3408 103.905 36.3408C104.832 36.3408 105.68 36.0349 106.449 35.423C107.218 34.7937 107.944 33.7973 108.625 32.4337L110.251 34.007C108.853 36.2621 107.271 38.0365 105.505 39.3301C103.757 40.6062 101.746 41.2443 99.4739 41.2443C97.3936 41.2443 95.5406 40.7286 93.9148 39.6972C92.3066 38.6483 91.0392 37.1974 90.1127 35.3444C89.1862 33.4913 88.7229 31.3324 88.7229 28.8675Z" fill="#453827"/>
<path d="M144.948 25.0653C144.948 26.1142 144.66 26.9358 144.083 27.5302C143.506 28.1071 142.676 28.3955 141.592 28.3955H125.911V26.0093H132.938C133.795 26.0093 134.223 25.5985 134.223 24.7769C134.223 22.3645 133.961 20.6426 133.437 19.6112C132.912 18.5623 132.239 18.0378 131.418 18.0378C130.841 18.0378 130.308 18.2738 129.818 18.7458C129.346 19.2004 128.97 19.9171 128.691 20.896C128.411 21.875 128.271 23.1424 128.271 24.6982C128.271 27.9498 128.988 30.3272 130.421 31.8306C131.855 33.334 133.813 34.0857 136.295 34.0857C137.571 34.0857 138.699 33.9021 139.678 33.535C140.674 33.1505 141.557 32.4862 142.326 31.5422C142.746 31.1576 143.069 30.8954 143.296 30.7555C143.523 30.6157 143.742 30.5457 143.952 30.5457C144.249 30.5457 144.467 30.6943 144.607 30.9915C144.765 31.2887 144.843 31.6645 144.843 32.1191C144.843 33.7448 144.319 35.257 143.27 36.6555C142.221 38.0365 140.761 39.1465 138.891 39.9856C137.038 40.8248 134.888 41.2443 132.44 41.2443C129.818 41.2443 127.467 40.7199 125.387 39.671C123.306 38.6221 121.654 37.1537 120.431 35.2657C119.224 33.3777 118.621 31.1838 118.621 28.684C118.621 25.8695 119.181 23.4308 120.299 21.368C121.418 19.2878 123.044 17.6795 125.177 16.5432C127.31 15.3894 129.871 14.8125 132.86 14.8125C135.5 14.8125 137.72 15.2583 139.52 16.1499C141.321 17.0239 142.676 18.2389 143.585 19.7947C144.494 21.3331 144.948 23.09 144.948 25.0653Z" fill="#453827"/>
<path d="M157.082 2.98643V35.659C157.082 36.2883 157.135 36.7429 157.24 37.0226C157.345 37.2848 157.528 37.4683 157.79 37.5732L158.42 37.8354C158.787 37.9753 159.04 38.1589 159.18 38.3861C159.337 38.6134 159.416 38.8756 159.416 39.1728C159.416 39.6098 159.276 39.9507 158.997 40.1954C158.734 40.4227 158.306 40.5363 157.712 40.5363H145.623C145.029 40.5363 144.592 40.4227 144.312 40.1954C144.033 39.9507 143.893 39.6098 143.893 39.1728C143.893 38.8756 143.971 38.6134 144.129 38.3861C144.286 38.1589 144.54 37.9753 144.889 37.8354L145.545 37.5732C145.807 37.4683 145.982 37.2848 146.069 37.0226C146.174 36.7429 146.226 36.2883 146.226 35.659V8.4406C146.226 7.95113 146.157 7.6015 146.017 7.39173C145.894 7.18195 145.693 7.0421 145.414 6.97217L144.758 6.81484C144.443 6.70995 144.207 6.56136 144.05 6.36907C143.91 6.17677 143.84 5.9233 143.84 5.60863C143.84 5.259 143.936 4.9793 144.129 4.76953C144.338 4.55975 144.714 4.34998 145.256 4.1402L151.733 1.80644C152.555 1.49178 153.202 1.27326 153.674 1.15089C154.146 1.01104 154.565 0.941116 154.932 0.941116C155.649 0.941116 156.182 1.13341 156.532 1.518C156.899 1.90259 157.082 2.39207 157.082 2.98643Z" fill="#453827"/>
<path d="M171.259 16.8316V35.659C171.259 36.2883 171.311 36.7429 171.416 37.0226C171.521 37.2848 171.696 37.4683 171.941 37.5732L172.596 37.8354C172.946 37.9753 173.199 38.1589 173.357 38.3861C173.514 38.6134 173.593 38.8756 173.593 39.1728C173.593 39.6098 173.453 39.9507 173.173 40.1954C172.911 40.4227 172.483 40.5363 171.888 40.5363H159.774C159.179 40.5363 158.742 40.4227 158.463 40.1954C158.2 39.9507 158.069 39.6098 158.069 39.1728C158.069 38.8756 158.139 38.6134 158.279 38.3861C158.436 38.1589 158.699 37.9753 159.066 37.8354L159.695 37.5732C159.957 37.4683 160.141 37.2848 160.246 37.0226C160.351 36.7429 160.403 36.2883 160.403 35.659V22.2858C160.403 21.7963 160.333 21.4467 160.193 21.2369C160.054 21.0272 159.852 20.8873 159.59 20.8174L158.935 20.66C158.603 20.5552 158.358 20.4066 158.201 20.2143C158.061 20.022 157.991 19.7685 157.991 19.4538C157.991 19.1042 158.087 18.8245 158.279 18.6147C158.489 18.405 158.865 18.1952 159.407 17.9854L165.91 15.6516C166.731 15.337 167.369 15.1185 167.824 14.9961C168.296 14.8562 168.716 14.7863 169.083 14.7863C169.799 14.7863 170.341 14.9786 170.708 15.3632C171.075 15.7478 171.259 16.2373 171.259 16.8316ZM165.333 12.6099C163.427 12.6099 161.915 12.1466 160.796 11.2201C159.695 10.2936 159.144 9.05245 159.144 7.49661C159.144 5.95826 159.695 4.73456 160.796 3.82553C161.915 2.91651 163.427 2.46199 165.333 2.46199C167.221 2.46199 168.724 2.91651 169.843 3.82553C170.962 4.73456 171.521 5.95826 171.521 7.49661C171.521 9.05245 170.962 10.2936 169.843 11.2201C168.724 12.1466 167.221 12.6099 165.333 12.6099Z" fill="#453827"/>
<path d="M186.958 14.8125C189.842 14.8125 192.368 15.3719 194.536 16.4908C196.721 17.5921 198.417 19.1479 199.623 21.1583C200.829 23.1511 201.432 25.4762 201.432 28.1333C201.432 30.5982 200.794 32.8183 199.518 34.7937C198.259 36.7691 196.511 38.3424 194.274 39.5137C192.054 40.6674 189.475 41.2443 186.538 41.2443C183.636 41.2443 181.102 40.6849 178.934 39.5661C176.766 38.4298 175.079 36.8652 173.873 34.8724C172.667 32.8795 172.064 30.572 172.064 27.9498C172.064 25.4325 172.693 23.1861 173.952 21.2107C175.228 19.2353 176.976 17.6795 179.196 16.5432C181.434 15.3894 184.021 14.8125 186.958 14.8125ZM188.793 37.9666C189.458 37.8267 189.956 37.3634 190.288 36.5768C190.638 35.7726 190.795 34.6189 190.76 33.1155C190.725 31.5946 190.472 29.6717 190 27.3467C189.563 25.0916 189.064 23.256 188.505 21.84C187.963 20.424 187.369 19.4014 186.722 18.7721C186.075 18.1427 185.402 17.9155 184.703 18.0903C184.038 18.2301 183.531 18.7021 183.182 19.5063C182.85 20.2929 182.701 21.438 182.736 22.9414C182.789 24.4448 183.042 26.3677 183.497 28.7102C183.934 30.9478 184.432 32.7833 184.991 34.2168C185.551 35.6328 186.145 36.6467 186.774 37.2586C187.421 37.8704 188.094 38.1064 188.793 37.9666Z" fill="#453827"/>
<path d="M213.071 16.8316V35.659C213.071 36.2883 213.123 36.7341 213.228 36.9963C213.333 37.2586 213.508 37.4509 213.753 37.5732L214.356 37.8617C214.88 38.1414 215.142 38.5522 215.142 39.0941C215.142 40.0556 214.565 40.5363 213.412 40.5363H201.586C200.991 40.5363 200.554 40.4227 200.274 40.1954C200.012 39.9507 199.881 39.6098 199.881 39.1728C199.881 38.8756 199.951 38.6134 200.091 38.3861C200.248 38.1589 200.51 37.9753 200.878 37.8354L201.507 37.5732C201.769 37.4683 201.953 37.2848 202.058 37.0226C202.162 36.7429 202.215 36.2883 202.215 35.659V22.2858C202.215 21.7963 202.145 21.4467 202.005 21.2369C201.865 21.0272 201.664 20.8873 201.402 20.8174L200.746 20.66C200.414 20.5552 200.17 20.4066 200.012 20.2143C199.872 20.022 199.802 19.7685 199.802 19.4538C199.802 19.1042 199.899 18.8245 200.091 18.6147C200.301 18.405 200.677 18.1952 201.218 17.9854L207.722 15.6516C208.491 15.337 209.111 15.1185 209.583 14.9961C210.055 14.8562 210.519 14.7863 210.973 14.7863C211.655 14.7863 212.171 14.9786 212.52 15.3632C212.887 15.7478 213.071 16.2373 213.071 16.8316ZM212.153 23.1511L210.763 21.6827L211.602 20.9223C213.962 18.7371 215.99 17.1725 217.686 16.2285C219.382 15.2845 220.946 14.8125 222.38 14.8125C224.53 14.8125 226.217 15.538 227.44 16.989C228.664 18.4224 229.381 20.3366 229.591 22.7316L230.876 35.659C230.945 36.2883 231.015 36.7429 231.085 37.0226C231.155 37.2848 231.321 37.4683 231.584 37.5732L232.213 37.8354C232.58 37.9753 232.833 38.1589 232.973 38.3861C233.131 38.6134 233.209 38.8756 233.209 39.1728C233.209 39.6098 233.069 39.9507 232.79 40.1954C232.528 40.4227 232.099 40.5363 231.505 40.5363H219.548C218.394 40.5363 217.817 40.0556 217.817 39.0941C217.817 38.5522 218.07 38.1414 218.577 37.8617L219.181 37.5732C219.443 37.4509 219.635 37.2586 219.757 36.9963C219.897 36.7341 219.941 36.2883 219.889 35.659L218.813 24.2262C218.726 23.1424 218.473 22.3383 218.053 21.8138C217.651 21.2719 217.03 21.0009 216.191 21.0009C215.667 21.0009 215.134 21.1233 214.592 21.368C214.05 21.5953 213.543 21.9187 213.071 22.3383L212.153 23.1511Z" fill="#453827"/>
<path d="M29.4785 79.1875C27.4157 79.1875 25.5626 78.8554 23.9194 78.1911C22.2761 77.5268 20.8776 76.5828 19.7239 75.3591C18.6051 74.1354 17.731 72.6495 17.1017 70.9014C16.5073 69.1532 16.2101 67.1953 16.2101 65.0276C16.2101 62.86 16.5073 60.902 17.1017 59.1539C17.731 57.4058 18.6051 55.9199 19.7239 54.6962C20.8776 53.4725 22.2587 52.5285 23.8669 51.8642C25.5102 51.1999 27.3632 50.8678 29.426 50.8678C32.2929 50.8678 34.6005 51.4621 36.3486 52.6509C38.0967 53.8396 39.4253 55.4129 40.3344 57.3708L35.1424 60.2028C34.6529 59.049 33.9537 58.1225 33.0446 57.4233C32.1706 56.6891 30.9644 56.3219 29.426 56.3219C27.4331 56.3219 25.8948 56.8988 24.8109 58.0526C23.7621 59.2064 23.2376 60.7797 23.2376 62.7725V67.2827C23.2376 69.2406 23.7621 70.814 24.8109 72.0027C25.8948 73.1565 27.4681 73.7333 29.5309 73.7333C31.1392 73.7333 32.4153 73.3662 33.3593 72.632C34.3383 71.8978 35.1249 70.9188 35.7193 69.6952L40.7539 72.6845C39.8449 74.6074 38.4639 76.1807 36.6108 77.4044C34.7928 78.5931 32.4153 79.1875 29.4785 79.1875Z" fill="#453827"/>
<path d="M54.1066 79.1875C52.0438 79.1875 50.1908 78.8554 48.5476 78.1911C46.9393 77.5268 45.5582 76.5828 44.4045 75.3591C43.2857 74.1354 42.4116 72.6495 41.7823 70.9014C41.1879 69.1532 40.8908 67.1953 40.8908 65.0276C40.8908 62.86 41.1879 60.902 41.7823 59.1539C42.4116 57.4058 43.0207 56.1673 44.4045 54.6962C45.7473 53.2686 46.9393 52.5285 48.5476 51.8642C50.1908 51.1999 52.0438 50.8678 54.1066 50.8678C56.1344 50.8678 57.97 51.1999 59.6132 51.8642C61.2565 52.5285 62.6375 53.4725 63.7563 54.6962C64.9101 55.9199 65.7841 57.4058 66.3785 59.1539C67.0078 60.902 67.3225 62.86 67.3225 65.0276C67.3225 67.1953 67.0078 69.1532 66.3785 70.9014C65.7841 72.6495 64.9101 74.1354 63.7563 75.3591C62.6375 76.5828 61.2565 77.5268 59.6132 78.1911C57.97 78.8554 56.1344 79.1875 54.1066 79.1875ZM54.1066 74.048C56.0296 74.048 57.5504 73.4711 58.6692 72.3174C59.788 71.1286 60.3474 69.398 60.3474 67.1254V62.9299C60.3474 60.6573 59.788 58.9441 58.6692 57.7904C57.5504 56.6016 56.0296 56.0073 54.1066 56.0073C52.1837 56.0073 50.6628 56.6016 49.544 57.7904C48.4252 58.9441 47.8658 60.6573 47.8658 62.9299V67.1254C47.8658 69.398 48.4252 71.1286 49.544 72.3174C50.6628 73.4711 52.1837 74.048 54.1066 74.048Z" fill="#453827"/>
<path d="M69.2949 78.5582V51.4971H75.5357V55.4828H75.9028C76.3224 54.2242 76.9167 53.1403 77.6859 52.2313C78.49 51.3223 79.6089 50.8678 81.0423 50.8678C83.6645 50.8678 85.2728 52.4061 85.8672 55.4828H86.1818C86.3916 54.8535 86.6538 54.2591 86.9685 53.6997C87.2831 53.1403 87.6677 52.6509 88.1223 52.2313C88.5768 51.8118 89.1187 51.4796 89.748 51.2349C90.3773 50.9901 91.1116 50.8678 91.9507 50.8678C95.7266 50.8678 97.6146 53.6473 97.6146 59.2064V78.5582H91.3738V59.993C91.3738 58.7344 91.1465 57.8603 90.692 57.3708C90.2725 56.8464 89.7131 56.5842 89.0138 56.5842C88.3495 56.5842 87.7726 56.8114 87.2831 57.2659C86.8286 57.6855 86.6014 58.3498 86.6014 59.2588V78.5582H80.3081V59.993C80.3081 58.7344 80.0983 57.8603 79.6788 57.3708C79.2942 56.8464 78.7523 56.5842 78.053 56.5842C77.3538 56.5842 76.7594 56.8114 76.2699 57.2659C75.7804 57.6855 75.5357 58.3498 75.5357 59.2588V78.5582H69.2949Z" fill="#453827"/>
<path d="M99.6394 51.4971H106.352V56.2695H106.719C107.454 54.6263 108.45 53.3152 109.709 52.3362C111.002 51.3572 112.698 50.8678 114.796 50.8678C116.334 50.8678 117.733 51.165 118.991 51.7593C120.285 52.3187 121.386 53.1928 122.295 54.3815C123.204 55.5353 123.904 57.0037 124.393 58.7868C124.882 60.5699 125.127 62.6502 125.127 65.0276C125.127 67.4051 124.882 69.4854 124.393 71.2685C123.904 73.0516 123.204 74.5375 122.295 75.7262C121.386 76.88 120.285 77.754 118.991 78.3484C117.733 78.9078 116.334 79.1875 114.796 79.1875C112.698 79.1875 111.002 78.698 109.709 77.7191C108.45 76.7401 107.454 75.429 106.719 73.7858H106.352V89.047H99.6394V51.4971ZM111.964 73.8382C113.922 73.8382 115.425 73.2439 116.474 72.0551C117.558 70.8664 118.1 69.2406 118.1 67.1778V62.8774C118.1 60.8146 117.558 59.1889 116.474 58.0001C115.425 56.8114 113.922 56.2171 111.964 56.2171C110.425 56.2171 109.097 56.6016 107.978 57.3708C106.894 58.105 106.352 59.2413 106.352 60.7797V69.2756C106.352 70.814 106.894 71.9677 107.978 72.7369C109.097 73.4711 110.425 73.8382 111.964 73.8382Z" fill="#453827"/>
<path d="M144.091 73.7858H143.829C143.235 75.2542 142.308 76.5304 141.05 77.6142C139.826 78.6631 138.113 79.1875 135.91 79.1875C133.253 79.1875 131.085 78.3134 129.407 76.5653C127.764 74.7822 126.942 72.2474 126.942 68.9609V51.4971H133.655V68.0169C133.655 71.9328 135.351 73.8907 138.742 73.8907C139.406 73.8907 140.053 73.8033 140.683 73.6284C141.347 73.4536 141.924 73.1914 142.413 72.8418C142.938 72.4572 143.34 72.0027 143.619 71.4782C143.934 70.9538 144.091 70.3245 144.091 69.5903V51.4971H150.804V78.5582H144.091V73.7858Z" fill="#453827"/>
<path d="M167.566 78.5582C164.979 78.5582 163.073 77.8764 161.849 76.5129C160.626 75.1493 160.014 73.3837 160.014 71.216V56.7939H152.147V51.4971H157.497C158.58 51.4971 159.35 51.2873 159.804 50.8678C160.259 50.4133 160.486 49.6266 160.486 48.5078V41.9523H166.727V51.4971H177.74V56.7939H166.727V73.2613H177.74V78.5582H167.566Z" fill="#453827"/>
<path d="M192.037 79.1875C189.869 79.1875 187.946 78.8554 186.268 78.1911C184.59 77.5268 183.174 76.5828 182.02 75.3591C180.901 74.1354 180.044 72.667 179.45 70.9538C178.856 69.2057 178.559 67.2478 178.559 65.0801C178.559 62.8774 178.856 60.902 179.45 59.1539C180.079 57.4058 180.954 55.9199 182.072 54.6962C183.191 53.4725 184.537 52.5285 186.111 51.8642C187.719 51.1999 189.519 50.8678 191.512 50.8678C193.47 50.8678 195.236 51.1999 196.809 51.8642C198.382 52.4935 199.711 53.4026 200.795 54.5913C201.914 55.78 202.77 57.2135 203.365 58.8917C203.959 60.5699 204.256 62.4229 204.256 64.4508V66.6534H185.271V67.3352C185.271 69.2931 185.883 70.8839 187.107 72.1076C188.331 73.2963 190.044 73.8907 192.246 73.8907C193.925 73.8907 195.358 73.5585 196.547 72.8942C197.771 72.195 198.784 71.286 199.589 70.1672L203.417 73.9956C202.438 75.429 201.005 76.6527 199.117 77.6666C197.264 78.6806 194.904 79.1875 192.037 79.1875ZM191.565 55.7975C189.677 55.7975 188.156 56.3919 187.002 57.5806C185.848 58.7693 185.271 60.3426 185.271 62.3006V62.6677H197.543V62.1957C197.543 60.2378 197.001 58.6819 195.918 57.5282C194.869 56.3744 193.418 55.7975 191.565 55.7975Z" fill="#453827"/>
<path d="M205.809 73.2613H212.522V56.7939H205.809V51.4971H219.235V58.8917H219.654C219.899 57.9477 220.231 57.0387 220.651 56.1646C221.105 55.2556 221.665 54.4689 222.329 53.8046C223.028 53.1054 223.867 52.546 224.846 52.1264C225.825 51.7069 226.996 51.4971 228.36 51.4971H231.297V57.7904H225.738C223.71 57.7904 222.119 58.3847 220.965 59.5735C219.811 60.7622 219.235 62.2831 219.235 64.1361V73.2613H228.622V78.5582H205.809V73.2613Z" fill="#453827"/>
<path d="M59.9597 26.1142C59.9597 26.8922 59.9802 34.5059 59.1554 35.7528L59.4342 35.3706L59.7488 35.0821L59.9566 35.0008L59.9597 26.1142Z" fill="#453827"/>
<path d="M59.4883 40.5363C57.6816 40.5363 58.2494 40.3014 56.9275 40.7053L58.2494 39.2252L59.4883 40.5363Z" fill="#453827"/>
<path d="M160.123 40.5363H157.363L158.743 39.8808L160.123 40.5363Z" fill="#453827"/>
<path d="M157.363 37.2586C157.763 37.7649 159.163 38.1155 160.123 37.2586L159.964 38.1155L158.743 38.5697L157.204 38.2009L157.363 37.2586Z" fill="#453827"/>
<path d="M1.82851 69.5152H10.9486V78.6353H1.82851V69.5152Z" fill="#363969"/>
</svg>
